<?xml version="1.0" encoding="utf-8" standalone="no"?>
<!DOCTYPE svg PUBLIC "-//W3C//DTD SVG 1.1//EN"
  "http://www.w3.org/Graphics/SVG/1.1/DTD/svg11.dtd">
<svg xmlns:xlink="http://www.w3.org/1999/xlink" width="310.100937pt" height="213.00625pt" viewBox="0 0 310.100937 213.00625" xmlns="http://www.w3.org/2000/svg" version="1.1">
 <metadata>
  <rdf:RDF xmlns:dc="http://purl.org/dc/elements/1.1/" xmlns:cc="http://creativecommons.org/ns#" xmlns:rdf="http://www.w3.org/1999/02/22-rdf-syntax-ns#">
   <cc:Work>
    <dc:type rdf:resource="http://purl.org/dc/dcmitype/StillImage"/>
    <dc:date>2024-07-01T12:05:13.739558</dc:date>
    <dc:format>image/svg+xml</dc:format>
    <dc:creator>
     <cc:Agent>
      <dc:title>Matplotlib v3.7.3, https://matplotlib.org/</dc:title>
     </cc:Agent>
    </dc:creator>
   </cc:Work>
  </rdf:RDF>
 </metadata>
 <defs>
  <style type="text/css">*{stroke-linejoin: round; stroke-linecap: butt}</style>
 </defs>
 <g id="figure_1">
  <g id="patch_1">
   <path d="M 0 213.00625 
L 310.100937 213.00625 
L 310.100937 0 
L 0 0 
z
" style="fill: #ffffff"/>
  </g>
  <g id="axes_1">
   <g id="patch_2">
    <path d="M 51.800938 175.45 
L 302.900938 175.45 
L 302.900938 36.85 
L 51.800938 36.85 
z
" style="fill: #e5e5e5"/>
   </g>
   <g id="matplotlib.axis_1">
    <g id="xtick_1">
     <g id="line2d_1">
      <defs>
       <path id="m603048ce9f" d="M 0 0 
L 0 3.5 
" style="stroke: #000000; stroke-width: 0.8"/>
      </defs>
      <g>
       <use xlink:href="#m603048ce9f" x="73.590607" y="175.45" style="stroke: #000000; stroke-width: 0.8"/>
      </g>
     </g>
     <g id="text_1">
      <text style="font: 10px 'DejaVu Sans', 'Bitstream Vera Sans', 'Computer Modern Sans Serif', 'Lucida Grande', 'Verdana', 'Geneva', 'Lucid', 'Arial', 'Helvetica', 'Avant Garde', sans-serif; text-anchor: middle" x="73.590607" y="190.048438" transform="rotate(-0 73.590607 190.048438)">2018</text>
     </g>
    </g>
    <g id="xtick_2">
     <g id="line2d_2">
      <g>
       <use xlink:href="#m603048ce9f" x="125.470772" y="175.45" style="stroke: #000000; stroke-width: 0.8"/>
      </g>
     </g>
     <g id="text_2">
      <text style="font: 10px 'DejaVu Sans', 'Bitstream Vera Sans', 'Computer Modern Sans Serif', 'Lucida Grande', 'Verdana', 'Geneva', 'Lucid', 'Arial', 'Helvetica', 'Avant Garde', sans-serif; text-anchor: middle" x="125.470772" y="190.048438" transform="rotate(-0 125.470772 190.048438)">2019</text>
     </g>
    </g>
    <g id="xtick_3">
     <g id="line2d_3">
      <g>
       <use xlink:href="#m603048ce9f" x="177.350938" y="175.45" style="stroke: #000000; stroke-width: 0.8"/>
      </g>
     </g>
     <g id="text_3">
      <text style="font: 10px 'DejaVu Sans', 'Bitstream Vera Sans', 'Computer Modern Sans Serif', 'Lucida Grande', 'Verdana', 'Geneva', 'Lucid', 'Arial', 'Helvetica', 'Avant Garde', sans-serif; text-anchor: middle" x="177.350938" y="190.048438" transform="rotate(-0 177.350938 190.048438)">2020</text>
     </g>
    </g>
    <g id="xtick_4">
     <g id="line2d_4">
      <g>
       <use xlink:href="#m603048ce9f" x="229.231103" y="175.45" style="stroke: #000000; stroke-width: 0.8"/>
      </g>
     </g>
     <g id="text_4">
      <text style="font: 10px 'DejaVu Sans', 'Bitstream Vera Sans', 'Computer Modern Sans Serif', 'Lucida Grande', 'Verdana', 'Geneva', 'Lucid', 'Arial', 'Helvetica', 'Avant Garde', sans-serif; text-anchor: middle" x="229.231103" y="190.048438" transform="rotate(-0 229.231103 190.048438)">2021</text>
     </g>
    </g>
    <g id="xtick_5">
     <g id="line2d_5">
      <g>
       <use xlink:href="#m603048ce9f" x="281.111268" y="175.45" style="stroke: #000000; stroke-width: 0.8"/>
      </g>
     </g>
     <g id="text_5">
      <text style="font: 10px 'DejaVu Sans', 'Bitstream Vera Sans', 'Computer Modern Sans Serif', 'Lucida Grande', 'Verdana', 'Geneva', 'Lucid', 'Arial', 'Helvetica', 'Avant Garde', sans-serif; text-anchor: middle" x="281.111268" y="190.048438" transform="rotate(-0 281.111268 190.048438)">2022</text>
     </g>
    </g>
    <g id="text_6">
     <text style="font: 10px 'DejaVu Sans', 'Bitstream Vera Sans', 'Computer Modern Sans Serif', 'Lucida Grande', 'Verdana', 'Geneva', 'Lucid', 'Arial', 'Helvetica', 'Avant Garde', sans-serif; text-anchor: middle" x="177.350938" y="203.726563" transform="rotate(-0 177.350938 203.726563)">Year of publication</text>
    </g>
   </g>
   <g id="matplotlib.axis_2">
    <g id="ytick_1">
     <g id="line2d_6">
      <path d="M 51.800938 175.45 
L 302.900938 175.45 
" clip-path="url(#p70d5d0ba2e)" style="fill: none; stroke: #ffffff; stroke-width: 0.8; stroke-linecap: square"/>
     </g>
     <g id="line2d_7">
      <defs>
       <path id="m5d65bf48fd" d="M 0 0 
L -3.5 0 
" style="stroke: #000000; stroke-width: 0.8"/>
      </defs>
      <g>
       <use xlink:href="#m5d65bf48fd" x="51.800938" y="175.45" style="stroke: #000000; stroke-width: 0.8"/>
      </g>
     </g>
     <g id="text_7">
      <text style="font: 10px 'DejaVu Sans', 'Bitstream Vera Sans', 'Computer Modern Sans Serif', 'Lucida Grande', 'Verdana', 'Geneva', 'Lucid', 'Arial', 'Helvetica', 'Avant Garde', sans-serif; text-anchor: end" x="44.800938" y="179.249219" transform="rotate(-0 44.800938 179.249219)">0</text>
     </g>
    </g>
    <g id="ytick_2">
     <g id="line2d_8">
      <path d="M 51.800938 155.65 
L 302.900938 155.65 
" clip-path="url(#p70d5d0ba2e)" style="fill: none; stroke: #ffffff; stroke-width: 0.8; stroke-linecap: square"/>
     </g>
     <g id="line2d_9">
      <g>
       <use xlink:href="#m5d65bf48fd" x="51.800938" y="155.65" style="stroke: #000000; stroke-width: 0.8"/>
      </g>
     </g>
     <g id="text_8">
      <text style="font: 10px 'DejaVu Sans', 'Bitstream Vera Sans', 'Computer Modern Sans Serif', 'Lucida Grande', 'Verdana', 'Geneva', 'Lucid', 'Arial', 'Helvetica', 'Avant Garde', sans-serif; text-anchor: end" x="44.800938" y="159.449219" transform="rotate(-0 44.800938 159.449219)">2</text>
     </g>
    </g>
    <g id="ytick_3">
     <g id="line2d_10">
      <path d="M 51.800938 135.85 
L 302.900938 135.85 
" clip-path="url(#p70d5d0ba2e)" style="fill: none; stroke: #ffffff; stroke-width: 0.8; stroke-linecap: square"/>
     </g>
     <g id="line2d_11">
      <g>
       <use xlink:href="#m5d65bf48fd" x="51.800938" y="135.85" style="stroke: #000000; stroke-width: 0.8"/>
      </g>
     </g>
     <g id="text_9">
      <text style="font: 10px 'DejaVu Sans', 'Bitstream Vera Sans', 'Computer Modern Sans Serif', 'Lucida Grande', 'Verdana', 'Geneva', 'Lucid', 'Arial', 'Helvetica', 'Avant Garde', sans-serif; text-anchor: end" x="44.800938" y="139.649219" transform="rotate(-0 44.800938 139.649219)">4</text>
     </g>
    </g>
    <g id="ytick_4">
     <g id="line2d_12">
      <path d="M 51.800938 116.05 
L 302.900938 116.05 
" clip-path="url(#p70d5d0ba2e)" style="fill: none; stroke: #ffffff; stroke-width: 0.8; stroke-linecap: square"/>
     </g>
     <g id="line2d_13">
      <g>
       <use xlink:href="#m5d65bf48fd" x="51.800938" y="116.05" style="stroke: #000000; stroke-width: 0.8"/>
      </g>
     </g>
     <g id="text_10">
      <text style="font: 10px 'DejaVu Sans', 'Bitstream Vera Sans', 'Computer Modern Sans Serif', 'Lucida Grande', 'Verdana', 'Geneva', 'Lucid', 'Arial', 'Helvetica', 'Avant Garde', sans-serif; text-anchor: end" x="44.800938" y="119.849219" transform="rotate(-0 44.800938 119.849219)">6</text>
     </g>
    </g>
    <g id="ytick_5">
     <g id="line2d_14">
      <path d="M 51.800938 96.25 
L 302.900938 96.25 
" clip-path="url(#p70d5d0ba2e)" style="fill: none; stroke: #ffffff; stroke-width: 0.8; stroke-linecap: square"/>
     </g>
     <g id="line2d_15">
      <g>
       <use xlink:href="#m5d65bf48fd" x="51.800938" y="96.25" style="stroke: #000000; stroke-width: 0.8"/>
      </g>
     </g>
     <g id="text_11">
      <text style="font: 10px 'DejaVu Sans', 'Bitstream Vera Sans', 'Computer Modern Sans Serif', 'Lucida Grande', 'Verdana', 'Geneva', 'Lucid', 'Arial', 'Helvetica', 'Avant Garde', sans-serif; text-anchor: end" x="44.800938" y="100.049219" transform="rotate(-0 44.800938 100.049219)">8</text>
     </g>
    </g>
    <g id="ytick_6">
     <g id="line2d_16">
      <path d="M 51.800938 76.45 
L 302.900938 76.45 
" clip-path="url(#p70d5d0ba2e)" style="fill: none; stroke: #ffffff; stroke-width: 0.8; stroke-linecap: square"/>
     </g>
     <g id="line2d_17">
      <g>
       <use xlink:href="#m5d65bf48fd" x="51.800938" y="76.45" style="stroke: #000000; stroke-width: 0.8"/>
      </g>
     </g>
     <g id="text_12">
      <text style="font: 10px 'DejaVu Sans', 'Bitstream Vera Sans', 'Computer Modern Sans Serif', 'Lucida Grande', 'Verdana', 'Geneva', 'Lucid', 'Arial', 'Helvetica', 'Avant Garde', sans-serif; text-anchor: end" x="44.800938" y="80.249219" transform="rotate(-0 44.800938 80.249219)">10</text>
     </g>
    </g>
    <g id="ytick_7">
     <g id="line2d_18">
      <path d="M 51.800938 56.65 
L 302.900938 56.65 
" clip-path="url(#p70d5d0ba2e)" style="fill: none; stroke: #ffffff; stroke-width: 0.8; stroke-linecap: square"/>
     </g>
     <g id="line2d_19">
      <g>
       <use xlink:href="#m5d65bf48fd" x="51.800938" y="56.65" style="stroke: #000000; stroke-width: 0.8"/>
      </g>
     </g>
     <g id="text_13">
      <text style="font: 10px 'DejaVu Sans', 'Bitstream Vera Sans', 'Computer Modern Sans Serif', 'Lucida Grande', 'Verdana', 'Geneva', 'Lucid', 'Arial', 'Helvetica', 'Avant Garde', sans-serif; text-anchor: end" x="44.800938" y="60.449219" transform="rotate(-0 44.800938 60.449219)">12</text>
     </g>
    </g>
    <g id="ytick_8">
     <g id="line2d_20">
      <path d="M 51.800938 36.85 
L 302.900938 36.85 
" clip-path="url(#p70d5d0ba2e)" style="fill: none; stroke: #ffffff; stroke-width: 0.8; stroke-linecap: square"/>
     </g>
     <g id="line2d_21">
      <g>
       <use xlink:href="#m5d65bf48fd" x="51.800938" y="36.85" style="stroke: #000000; stroke-width: 0.8"/>
      </g>
     </g>
     <g id="text_14">
      <text style="font: 10px 'DejaVu Sans', 'Bitstream Vera Sans', 'Computer Modern Sans Serif', 'Lucida Grande', 'Verdana', 'Geneva', 'Lucid', 'Arial', 'Helvetica', 'Avant Garde', sans-serif; text-anchor: end" x="44.800938" y="40.649219" transform="rotate(-0 44.800938 40.649219)">14</text>
     </g>
    </g>
    <g id="text_15">
     <text style="font: 10px 'DejaVu Sans', 'Bitstream Vera Sans', 'Computer Modern Sans Serif', 'Lucida Grande', 'Verdana', 'Geneva', 'Lucid', 'Arial', 'Helvetica', 'Avant Garde', sans-serif" transform="translate(14.798438 159.157813) rotate(-90)">Articles included per </text>
     <text style="font: 10px 'DejaVu Sans', 'Bitstream Vera Sans', 'Computer Modern Sans Serif', 'Lucida Grande', 'Verdana', 'Geneva', 'Lucid', 'Arial', 'Helvetica', 'Avant Garde', sans-serif" transform="translate(25.99625 174.201563) rotate(-90)"> 100,000 published articles</text>
    </g>
   </g>
   <g id="patch_3">
    <path d="M 63.214574 175.45 
L 83.96664 175.45 
L 83.96664 124.922797 
L 63.214574 124.922797 
z
" clip-path="url(#p70d5d0ba2e)" style="fill: #b3e2cd; stroke: #000000; stroke-linejoin: miter"/>
   </g>
   <g id="patch_4">
    <path d="M 115.094739 175.45 
L 135.846805 175.45 
L 135.846805 114.006848 
L 115.094739 114.006848 
z
" clip-path="url(#p70d5d0ba2e)" style="fill: #b3e2cd; stroke: #000000; stroke-linejoin: miter"/>
   </g>
   <g id="patch_5">
    <path d="M 166.974904 175.45 
L 187.726971 175.45 
L 187.726971 110.283329 
L 166.974904 110.283329 
z
" clip-path="url(#p70d5d0ba2e)" style="fill: #b3e2cd; stroke: #000000; stroke-linejoin: miter"/>
   </g>
   <g id="patch_6">
    <path d="M 218.85507 175.45 
L 239.607136 175.45 
L 239.607136 102.310638 
L 218.85507 102.310638 
z
" clip-path="url(#p70d5d0ba2e)" style="fill: #b3e2cd; stroke: #000000; stroke-linejoin: miter"/>
   </g>
   <g id="patch_7">
    <path d="M 270.735235 175.45 
L 291.487301 175.45 
L 291.487301 90.817007 
L 270.735235 90.817007 
z
" clip-path="url(#p70d5d0ba2e)" style="fill: #b3e2cd; stroke: #000000; stroke-linejoin: miter"/>
   </g>
   <g id="patch_8">
    <path d="M 63.214574 124.922797 
L 83.96664 124.922797 
L 83.96664 124.922797 
L 63.214574 124.922797 
z
" clip-path="url(#p70d5d0ba2e)" style="fill: #fdcdac; stroke: #000000; stroke-linejoin: miter"/>
   </g>
   <g id="patch_9">
    <path d="M 115.094739 114.006848 
L 135.846805 114.006848 
L 135.846805 114.006848 
L 115.094739 114.006848 
z
" clip-path="url(#p70d5d0ba2e)" style="fill: #fdcdac; stroke: #000000; stroke-linejoin: miter"/>
   </g>
   <g id="patch_10">
    <path d="M 166.974904 110.283329 
L 187.726971 110.283329 
L 187.726971 107.266353 
L 166.974904 107.266353 
z
" clip-path="url(#p70d5d0ba2e)" style="fill: #fdcdac; stroke: #000000; stroke-linejoin: miter"/>
   </g>
   <g id="patch_11">
    <path d="M 218.85507 102.310638 
L 239.607136 102.310638 
L 239.607136 82.363539 
L 218.85507 82.363539 
z
" clip-path="url(#p70d5d0ba2e)" style="fill: #fdcdac; stroke: #000000; stroke-linejoin: miter"/>
   </g>
   <g id="patch_12">
    <path d="M 270.735235 90.817007 
L 291.487301 90.817007 
L 291.487301 67.431575 
L 270.735235 67.431575 
z
" clip-path="url(#p70d5d0ba2e)" style="fill: #fdcdac; stroke: #000000; stroke-linejoin: miter"/>
   </g>
   <g id="PolyCollection_1">
    <path d="M 73.590607 124.129647 
L 73.590607 147.101132 
L 75.686775 146.296389 
L 77.782944 145.491646 
L 79.879112 144.686903 
L 81.97528 143.88216 
L 84.071448 143.077417 
L 86.167617 142.272674 
L 88.263785 141.467931 
L 90.359953 140.663188 
L 92.456122 139.858445 
L 94.55229 139.053702 
L 96.648458 138.248959 
L 98.744626 137.444216 
L 100.840795 136.639473 
L 102.936963 135.83473 
L 105.033131 135.029987 
L 107.1293 134.225244 
L 109.225468 133.420501 
L 111.321636 132.615758 
L 113.417805 131.811015 
L 115.513973 131.006272 
L 117.610141 130.201529 
L 119.706309 129.396786 
L 121.802478 128.592043 
L 123.898646 127.7873 
L 125.994814 126.976262 
L 128.090983 126.14634 
L 130.187151 125.316418 
L 132.283319 124.486496 
L 134.379487 123.656574 
L 136.475656 122.826652 
L 138.571824 121.996731 
L 140.667992 121.166809 
L 142.764161 120.336887 
L 144.860329 119.506965 
L 146.956497 118.677043 
L 149.052666 117.847121 
L 151.148834 117.017199 
L 153.245002 116.187277 
L 155.34117 115.357355 
L 157.437339 114.527433 
L 159.533507 113.697511 
L 161.629675 112.86759 
L 163.725844 112.037668 
L 165.822012 111.207746 
L 167.91818 110.377824 
L 170.014348 109.547902 
L 172.110517 108.71798 
L 174.206685 107.888058 
L 176.302853 107.444701 
L 178.399022 106.863982 
L 180.49519 106.313764 
L 182.591358 105.957068 
L 184.687527 105.600372 
L 186.783695 105.243677 
L 188.879863 104.886981 
L 190.976031 104.530285 
L 193.0722 104.173589 
L 195.168368 103.816893 
L 197.264536 103.460198 
L 199.360705 103.103502 
L 201.456873 102.746806 
L 203.553041 102.39011 
L 205.649209 102.033414 
L 207.745378 101.676718 
L 209.841546 101.327855 
L 211.937714 100.98321 
L 214.033883 100.638564 
L 216.130051 100.293919 
L 218.226219 99.949274 
L 220.322388 99.604628 
L 222.418556 99.259983 
L 224.514724 98.915337 
L 226.610892 98.570692 
L 228.707061 98.226046 
L 230.803229 97.881401 
L 232.899397 97.536755 
L 234.995566 97.19211 
L 237.091734 96.847465 
L 239.187902 96.502819 
L 241.28407 96.158174 
L 243.380239 95.813528 
L 245.476407 95.468883 
L 247.572575 95.124237 
L 249.668744 94.779592 
L 251.764912 94.434946 
L 253.86108 94.090301 
L 255.957249 93.745655 
L 258.053417 93.40101 
L 260.149585 93.056365 
L 262.245753 92.711719 
L 264.341922 92.367074 
L 266.43809 92.022428 
L 268.534258 91.677783 
L 270.630427 91.333137 
L 272.726595 90.988492 
L 274.822763 90.643846 
L 276.918931 90.299201 
L 279.0151 89.954556 
L 281.111268 89.60991 
L 281.111268 64.582761 
L 281.111268 64.582761 
L 279.0151 65.41628 
L 276.918931 66.249799 
L 274.822763 67.083317 
L 272.726595 67.916836 
L 270.630427 68.750355 
L 268.534258 69.583874 
L 266.43809 70.417393 
L 264.341922 71.250912 
L 262.245753 72.084431 
L 260.149585 72.91795 
L 258.053417 73.573731 
L 255.957249 74.21299 
L 253.86108 74.901979 
L 251.764912 75.561647 
L 249.668744 76.142366 
L 247.572575 76.770025 
L 245.476407 77.409284 
L 243.380239 77.996356 
L 241.28407 78.577076 
L 239.187902 79.157795 
L 237.091734 79.738514 
L 234.995566 80.319234 
L 232.899397 80.899953 
L 230.803229 81.502781 
L 228.707061 82.082424 
L 226.610892 82.662068 
L 224.514724 83.241712 
L 222.418556 83.821355 
L 220.322388 84.400999 
L 218.226219 84.980642 
L 216.130051 85.560286 
L 214.033883 86.139929 
L 211.937714 86.719573 
L 209.841546 87.299217 
L 207.745378 87.87886 
L 205.649209 88.458504 
L 203.553041 89.038147 
L 201.456873 89.617791 
L 199.360705 90.197435 
L 197.264536 90.777078 
L 195.168368 91.356722 
L 193.0722 91.936365 
L 190.976031 92.516009 
L 188.879863 93.095653 
L 186.783695 93.67578 
L 184.687527 94.2565 
L 182.591358 94.837219 
L 180.49519 95.417938 
L 178.399022 95.998658 
L 176.302853 96.579377 
L 174.206685 97.160097 
L 172.110517 97.740816 
L 170.014348 98.321536 
L 167.91818 98.902255 
L 165.822012 99.482974 
L 163.725844 100.063694 
L 161.629675 100.644413 
L 159.533507 101.225133 
L 157.437339 101.805852 
L 155.34117 102.386571 
L 153.245002 102.967291 
L 151.148834 103.54801 
L 149.052666 104.12873 
L 146.956497 104.709449 
L 144.860329 105.29013 
L 142.764161 105.87079 
L 140.667992 106.45145 
L 138.571824 107.03211 
L 136.475656 107.61277 
L 134.379487 108.19343 
L 132.283319 108.77409 
L 130.187151 109.354749 
L 128.090983 109.935409 
L 125.994814 110.516069 
L 123.898646 111.096729 
L 121.802478 111.677389 
L 119.706309 112.258049 
L 117.610141 112.838709 
L 115.513973 113.419369 
L 113.417805 114.000029 
L 111.321636 114.580699 
L 109.225468 115.161391 
L 107.1293 115.742084 
L 105.033131 116.322776 
L 102.936963 116.897228 
L 100.840795 117.433789 
L 98.744626 118.012131 
L 96.648458 118.590472 
L 94.55229 119.168813 
L 92.456122 119.747155 
L 90.359953 120.325496 
L 88.263785 120.903837 
L 86.167617 121.482178 
L 84.071448 122.018884 
L 81.97528 122.593702 
L 79.879112 123.091304 
L 77.782944 123.437418 
L 75.686775 123.783533 
L 73.590607 124.129647 
z
" clip-path="url(#p70d5d0ba2e)" style="fill: #808080; fill-opacity: 0.15"/>
   </g>
   <g id="line2d_22">
    <path d="M 73.590607 128.523373 
L 75.686775 127.930945 
L 77.782944 127.338518 
L 79.879112 126.746091 
L 81.97528 126.153664 
L 84.071448 125.561236 
L 86.167617 124.968809 
L 88.263785 124.376382 
L 90.359953 123.783954 
L 92.456122 123.191527 
L 94.55229 122.5991 
L 96.648458 122.006673 
L 98.744626 121.414245 
L 100.840795 120.821818 
L 102.936963 120.229391 
L 105.033131 119.636963 
L 107.1293 119.044536 
L 109.225468 118.452109 
L 111.321636 117.859682 
L 113.417805 117.267254 
L 115.513973 116.674827 
L 117.610141 116.0824 
L 119.706309 115.489973 
L 121.802478 114.897545 
L 123.898646 114.305118 
L 125.994814 113.712691 
L 128.090983 113.120263 
L 130.187151 112.527836 
L 132.283319 111.935409 
L 134.379487 111.342982 
L 136.475656 110.750554 
L 138.571824 110.158127 
L 140.667992 109.5657 
L 142.764161 108.973272 
L 144.860329 108.380845 
L 146.956497 107.788418 
L 149.052666 107.195991 
L 151.148834 106.603563 
L 153.245002 106.011136 
L 155.34117 105.418709 
L 157.437339 104.826281 
L 159.533507 104.233854 
L 161.629675 103.641427 
L 163.725844 103.049 
L 165.822012 102.456572 
L 167.91818 101.864145 
L 170.014348 101.271718 
L 172.110517 100.679291 
L 174.206685 100.086863 
L 176.302853 99.494436 
L 178.399022 98.902009 
L 180.49519 98.309581 
L 182.591358 97.717154 
L 184.687527 97.124727 
L 186.783695 96.5323 
L 188.879863 95.939872 
L 190.976031 95.347445 
L 193.0722 94.755018 
L 195.168368 94.16259 
L 197.264536 93.570163 
L 199.360705 92.977736 
L 201.456873 92.385309 
L 203.553041 91.792881 
L 205.649209 91.200454 
L 207.745378 90.608027 
L 209.841546 90.0156 
L 211.937714 89.423172 
L 214.033883 88.830745 
L 216.130051 88.238318 
L 218.226219 87.64589 
L 220.322388 87.053463 
L 222.418556 86.461036 
L 224.514724 85.868609 
L 226.610892 85.276181 
L 228.707061 84.683754 
L 230.803229 84.091327 
L 232.899397 83.498899 
L 234.995566 82.906472 
L 237.091734 82.314045 
L 239.187902 81.721618 
L 241.28407 81.12919 
L 243.380239 80.536763 
L 245.476407 79.944336 
L 247.572575 79.351909 
L 249.668744 78.759481 
L 251.764912 78.167054 
L 253.86108 77.574627 
L 255.957249 76.982199 
L 258.053417 76.389772 
L 260.149585 75.797345 
L 262.245753 75.204918 
L 264.341922 74.61249 
L 266.43809 74.020063 
L 268.534258 73.427636 
L 270.630427 72.835208 
L 272.726595 72.242781 
L 274.822763 71.650354 
L 276.918931 71.057927 
L 279.0151 70.465499 
L 281.111268 69.873072 
" clip-path="url(#p70d5d0ba2e)" style="fill: none; stroke: #808080; stroke-width: 2.25; stroke-linecap: square"/>
   </g>
   <g id="patch_13">
    <path d="M 51.800938 175.45 
L 51.800938 36.85 
" style="fill: none; stroke: #ffffff; stroke-linejoin: miter; stroke-linecap: square"/>
   </g>
   <g id="patch_14">
    <path d="M 302.900938 175.45 
L 302.900938 36.85 
" style="fill: none; stroke: #ffffff; stroke-linejoin: miter; stroke-linecap: square"/>
   </g>
   <g id="patch_15">
    <path d="M 51.800938 175.45 
L 302.900938 175.45 
" style="fill: none; stroke: #ffffff; stroke-linejoin: miter; stroke-linecap: square"/>
   </g>
   <g id="patch_16">
    <path d="M 51.800938 36.85 
L 302.900938 36.85 
" style="fill: none; stroke: #ffffff; stroke-linejoin: miter; stroke-linecap: square"/>
   </g>
   <g id="text_16">
    <text style="font: 10px 'DejaVu Sans', 'Bitstream Vera Sans', 'Computer Modern Sans Serif', 'Lucida Grande', 'Verdana', 'Geneva', 'Lucid', 'Arial', 'Helvetica', 'Avant Garde', sans-serif; text-anchor: middle" x="73.590607" y="107.993109" transform="rotate(-0 73.590607 107.993109)">69</text>
   </g>
   <g id="text_17">
    <text style="font: 10px 'DejaVu Sans', 'Bitstream Vera Sans', 'Computer Modern Sans Serif', 'Lucida Grande', 'Verdana', 'Geneva', 'Lucid', 'Arial', 'Helvetica', 'Avant Garde', sans-serif; text-anchor: middle" x="125.470772" y="97.07716" transform="rotate(-0 125.470772 97.07716)">88</text>
   </g>
   <g id="text_18">
    <text style="font: 10px 'DejaVu Sans', 'Bitstream Vera Sans', 'Computer Modern Sans Serif', 'Lucida Grande', 'Verdana', 'Geneva', 'Lucid', 'Arial', 'Helvetica', 'Avant Garde', sans-serif; text-anchor: middle" x="177.350938" y="90.336666" transform="rotate(-0 177.350938 90.336666)">113</text>
   </g>
   <g id="text_19">
    <text style="font: 10px 'DejaVu Sans', 'Bitstream Vera Sans', 'Computer Modern Sans Serif', 'Lucida Grande', 'Verdana', 'Geneva', 'Lucid', 'Arial', 'Helvetica', 'Avant Garde', sans-serif; text-anchor: middle" x="229.231103" y="65.433852" transform="rotate(-0 229.231103 65.433852)">168</text>
   </g>
   <g id="text_20">
    <text style="font: 10px 'DejaVu Sans', 'Bitstream Vera Sans', 'Computer Modern Sans Serif', 'Lucida Grande', 'Verdana', 'Geneva', 'Lucid', 'Arial', 'Helvetica', 'Avant Garde', sans-serif; text-anchor: middle" x="281.111268" y="50.501888" transform="rotate(-0 281.111268 50.501888)">194</text>
   </g>
   <g id="legend_1">
    <g id="patch_17">
     <path d="M 60.288438 24.878125 
L 294.413438 24.878125 
Q 296.413438 24.878125 296.413438 22.878125 
L 296.413438 9.2 
Q 296.413438 7.2 294.413438 7.2 
L 60.288438 7.2 
Q 58.288438 7.2 58.288438 9.2 
L 58.288438 22.878125 
Q 58.288438 24.878125 60.288438 24.878125 
z
" style="fill: #e5e5e5; opacity: 0.8; stroke: #cccccc; stroke-width: 0.5; stroke-linejoin: miter"/>
    </g>
    <g id="patch_18">
     <path d="M 62.288438 18.798438 
L 82.288438 18.798438 
L 82.288438 11.798438 
L 62.288438 11.798438 
z
" style="fill: #b3e2cd; stroke: #000000; stroke-linejoin: miter"/>
    </g>
    <g id="text_21">
     <text style="font: 10px 'DejaVu Sans', 'Bitstream Vera Sans', 'Computer Modern Sans Serif', 'Lucida Grande', 'Verdana', 'Geneva', 'Lucid', 'Arial', 'Helvetica', 'Avant Garde', sans-serif; text-anchor: start" x="90.288438" y="18.798438" transform="rotate(-0 90.288438 18.798438)">Other focus</text>
    </g>
    <g id="patch_19">
     <path d="M 168.544688 18.798438 
L 188.544688 18.798438 
L 188.544688 11.798438 
L 168.544688 11.798438 
z
" style="fill: #fdcdac; stroke: #000000; stroke-linejoin: miter"/>
    </g>
    <g id="text_22">
     <text style="font: 10px 'DejaVu Sans', 'Bitstream Vera Sans', 'Computer Modern Sans Serif', 'Lucida Grande', 'Verdana', 'Geneva', 'Lucid', 'Arial', 'Helvetica', 'Avant Garde', sans-serif; text-anchor: start" x="196.544688" y="18.798438" transform="rotate(-0 196.544688 18.798438)">Focus on COVID-19</text>
    </g>
   </g>
  </g>
 </g>
 <defs>
  <clipPath id="p70d5d0ba2e">
   <rect x="51.800938" y="36.85" width="251.1" height="138.6"/>
  </clipPath>
 </defs>
</svg>
