<?xml version="1.0" encoding="UTF-8" standalone="no"?>
<svg
   width="529984"
   height="82369"
   viewBox="0 0 529984 82369"
   version="1.1"
   xml:space="preserve"
   style="clip-rule:evenodd;fill-rule:evenodd"
   id="svg87"
   xmlns="http://www.w3.org/2000/svg"
   xmlns:svg="http://www.w3.org/2000/svg"><defs
   id="defs87" />
    <g
   id="Artboard1"
   transform="scale(1.47111,1.02763)">
        <rect
   x="0"
   y="0"
   width="494.80499"
   height="278.901"
   style="fill:none"
   id="rect1" />
        <clipPath
   id="_clip1">
            <rect
   x="0"
   y="0"
   width="494.80499"
   height="278.901"
   id="rect2" />
        </clipPath>
        <g
   clip-path="url(#_clip1)"
   id="g87">
            <g
   id="figure_1"
   transform="matrix(0.679758,0,0,0.973114,18.3329,31.2436)">
                <g
   transform="matrix(1.57331,0,0,1.03684,-26.9697,-34.6754)"
   id="g3">
                    <rect
   x="0"
   y="0"
   width="494.80499"
   height="278.901"
   style="fill:#ffffff;fill-rule:nonzero"
   id="rect3" />
                </g>
                <g
   transform="matrix(1,0,0,-1.03204,0,270.3)"
   id="g4">
                    <rect
   x="60.603001"
   y="220.05499"
   width="22.593"
   height="39.727001"
   style="fill:#fdcdac;fill-opacity:0.9;fill-rule:nonzero"
   id="rect4" />
                </g>
                <g
   transform="matrix(1,0,0,-1.5103,0,370.346)"
   id="g5">
                    <rect
   x="60.603001"
   y="210.12399"
   width="22.593"
   height="1.9859999"
   style="fill:#e7298a;fill-opacity:0.9;fill-rule:nonzero"
   id="rect5" />
                </g>
                <g
   transform="matrix(1,0,0,-1.05986,0,274.433)"
   id="g6">
                    <rect
   x="60.603001"
   y="192.743"
   width="22.593"
   height="9.4350004"
   style="fill:#7570b3;fill-opacity:0.9;fill-rule:nonzero"
   id="rect6" />
                </g>
                <g
   transform="matrix(1,0,0,-1.01769,0,265.475)"
   id="g7">
                    <rect
   x="60.603001"
   y="138.614"
   width="22.593"
   height="46.182999"
   style="fill:#b3e2cd;fill-opacity:0.9;fill-rule:nonzero"
   id="rect7" />
                </g>
                <g
   transform="matrix(1,0,0,-1.04158,0,267.748)"
   id="g8">
                    <rect
   x="60.603001"
   y="116.268"
   width="22.593"
   height="14.401"
   style="fill:#f4cae4;fill-opacity:0.9;fill-rule:nonzero"
   id="rect8" />
                </g>
                <g
   transform="matrix(1,0,0,-1.34249,0,299.458)"
   id="g9">
                    <rect
   x="60.603001"
   y="106.833"
   width="22.593"
   height="1.49"
   style="fill:#1b9e77;fill-opacity:0.9;fill-rule:nonzero"
   id="rect9" />
                </g>
                <g
   transform="matrix(1,0,0,-1.06609,0,268.592)"
   id="g10">
                    <rect
   x="60.603001"
   y="82.002998"
   width="22.593"
   height="16.884001"
   style="fill:#cbd5e8;fill-opacity:0.9;fill-rule:nonzero"
   id="rect10" />
                </g>
                <g
   transform="matrix(1,0,0,-1.1507,0,273.251)"
   id="g11">
                    <rect
   x="60.603001"
   y="67.105003"
   width="22.593"
   height="6.9520001"
   style="fill:#a6761d;fill-opacity:0.9;fill-rule:nonzero"
   id="rect11" />
                </g>
                <g
   transform="matrix(1,0,0,-2.01373,0,321.831)"
   id="g12">
                    <rect
   x="60.603001"
   y="57.669998"
   width="22.593"
   height="1.49"
   style="fill:#66a61e;fill-opacity:0.9;fill-rule:nonzero"
   id="rect12" />
                </g>
                <g
   transform="matrix(1,0,0,-1.16584,0,270.078)"
   id="g13">
                    <rect
   x="60.603001"
   y="40.289001"
   width="22.593"
   height="9.4350004"
   style="fill:#fbb4ae;fill-opacity:0.9;fill-rule:nonzero"
   id="rect13" />
                </g>
                <g
   transform="matrix(1,0,0,-1.0984,0,265.259)"
   id="g14">
                    <rect
   x="60.603001"
   y="21.419001"
   width="22.593"
   height="10.925"
   style="fill:#fff2ae;fill-opacity:0.9;fill-rule:nonzero"
   id="rect14" />
                </g>
                <g
   transform="matrix(1,0,0,-1.00686,0,264.237)"
   id="g15">
                    <rect
   x="444.67899"
   y="213.103"
   width="22.593"
   height="46.68"
   style="fill:#cccccc;fill-opacity:0.9;fill-rule:nonzero"
   id="rect15" />
                </g>
                <g
   transform="matrix(1,0,0,-1.04714,0,271.992)"
   id="g16">
                    <rect
   x="444.67899"
   y="192.743"
   width="22.593"
   height="12.415"
   style="fill:#cccccc;fill-opacity:0.9;fill-rule:nonzero"
   id="rect16" />
                </g>
                <g
   transform="matrix(1,0,0,-1.00687,0,263.848)"
   id="g17">
                    <rect
   x="444.67899"
   y="174.866"
   width="22.593"
   height="9.9320002"
   style="fill:#cccccc;fill-opacity:0.9;fill-rule:nonzero"
   id="rect17" />
                </g>
                <g
   transform="matrix(1,0,0,-1.00687,0,263.692)"
   id="g18">
                    <rect
   x="444.67899"
   y="147.05701"
   width="22.593"
   height="19.864"
   style="fill:#cccccc;fill-opacity:0.9;fill-rule:nonzero"
   id="rect18" />
                </g>
                <g
   transform="matrix(1,0,0,-1.03204,0,266.434)"
   id="g19">
                    <rect
   x="444.67899"
   y="99.384003"
   width="22.593"
   height="39.727001"
   style="fill:#cccccc;fill-opacity:0.9;fill-rule:nonzero"
   id="rect19" />
                </g>
                <g
   transform="matrix(1,0,0,-1.11874,0,272.419)"
   id="g20">
                    <rect
   x="444.67899"
   y="82.5"
   width="22.593"
   height="8.9390001"
   style="fill:#cccccc;fill-opacity:0.9;fill-rule:nonzero"
   id="rect20" />
                </g>
                <g
   transform="matrix(1,0,0,-1,0,262.614)"
   id="g21">
                    <rect
   x="444.67899"
   y="53.201"
   width="22.593"
   height="21.353001"
   style="fill:#cccccc;fill-opacity:0.9;fill-rule:nonzero"
   id="rect21" />
                </g>
                <g
   id="mf0e67bfcfd"
   transform="matrix(1,0,0,-1,0,-16.2869)">
                    <rect
   x="83.195999"
   y="-58.348999"
   width="361.483"
   height="39.230999"
   style="fill:#fdcdac;fill-opacity:0.4;fill-rule:nonzero;stroke:#fdcdac;stroke-width:1px;stroke-opacity:0.4"
   id="rect22" />
                </g>
                <g
   id="mbe6f1b0ee0"
   transform="matrix(1,0,0,-1,0,-16.2869)">
                    <path
   d="m 83.196,-58.845 v 0.496 h 7.088 l 7.087,-0.233 7.088,-0.468 7.088,-0.7 7.088,-0.935 7.088,-1.168 7.088,-1.401 7.088,-1.636 7.088,-1.868 7.088,-2.103 7.088,-2.336 7.088,-2.569 7.087,-2.803 7.088,-3.037 7.088,-3.27 7.088,-3.504 7.088,-3.738 7.088,-3.971 7.088,-4.205 7.088,-4.438 7.088,-4.672 7.088,-4.906 7.088,-5.139 7.087,-5.372 7.088,-5.607 7.088,-5.84 7.088,-5.606 7.088,-5.373 7.088,-5.139 7.088,-4.905 7.088,-4.672 7.088,-4.439 7.088,-4.204 7.087,-3.971 7.088,-3.738 7.088,-3.504 7.088,-3.27 7.088,-3.037 7.088,-2.803 7.088,-2.57 7.088,-2.336 7.088,-2.102 7.088,-1.869 7.088,-1.635 7.087,-1.402 7.088,-1.168 7.088,-0.934 7.088,-0.701 7.088,-0.467 7.088,-0.234 h 7.088 v -0.496 h -7.088 l -7.088,0.233 -7.088,0.468 -7.088,0.7 -7.088,0.935 -7.088,1.168 -7.087,1.401 -7.088,1.636 -7.088,1.868 -7.088,2.103 -7.088,2.336 -7.088,2.569 -7.088,2.803 -7.088,3.037 -7.088,3.27 -7.088,3.504 -7.088,3.738 -7.087,3.971 -7.088,4.205 -7.088,4.438 -7.088,4.672 -7.088,4.906 -7.088,5.139 -7.088,5.372 -7.088,5.607 -7.088,5.84 -7.088,5.606 -7.087,5.373 -7.088,5.139 -7.088,4.905 -7.088,4.672 -7.088,4.439 -7.088,4.204 -7.088,3.971 -7.088,3.738 -7.088,3.504 -7.088,3.27 -7.088,3.037 -7.087,2.803 -7.088,2.57 -7.088,2.336 -7.088,2.102 -7.088,1.869 -7.088,1.635 -7.088,1.402 -7.088,1.168 -7.088,0.934 -7.088,0.701 -7.088,0.467 -7.087,0.234 z"
   style="fill:#fdcdac;fill-opacity:0.4;fill-rule:nonzero;stroke:#fdcdac;stroke-width:1px;stroke-opacity:0.4"
   id="path22" />
                </g>
                <g
   id="m09f8494267"
   transform="matrix(1,0,0,-1,0,-16.2869)">
                    <path
   d="m 83.196,-67.288 v 0.497 h 7.088 l 7.087,0.014 7.088,0.027 7.088,0.04 7.088,0.054 7.088,0.068 7.088,0.081 7.088,0.094 7.088,0.108 7.088,0.122 7.088,0.135 7.088,0.149 7.087,0.162 7.088,0.175 7.088,0.189 7.088,0.203 7.088,0.216 7.088,0.23 7.088,0.243 7.088,0.256 7.088,0.271 7.088,0.283 7.088,0.297 7.087,0.311 7.088,0.324 7.088,0.338 7.088,0.324 7.088,0.311 7.088,0.297 7.088,0.284 7.088,0.27 7.088,0.256 7.088,0.244 7.087,0.229 7.088,0.216 7.088,0.203 7.088,0.189 7.088,0.176 7.088,0.162 7.088,0.148 7.088,0.135 7.088,0.122 7.088,0.108 7.088,0.094 7.087,0.082 7.088,0.067 7.088,0.054 7.088,0.041 7.088,0.027 7.088,0.013 h 7.088 v -0.496 h -7.088 l -7.088,-0.014 -7.088,-0.027 -7.088,-0.04 -7.088,-0.055 -7.088,-0.067 -7.087,-0.081 -7.088,-0.095 -7.088,-0.108 -7.088,-0.121 -7.088,-0.135 -7.088,-0.149 -7.088,-0.162 -7.088,-0.176 -7.088,-0.189 -7.088,-0.202 -7.088,-0.216 -7.087,-0.23 -7.088,-0.243 -7.088,-0.257 -7.088,-0.27 -7.088,-0.284 -7.088,-0.297 -7.088,-0.31 -7.088,-0.325 -7.088,-0.337 -7.088,-0.324 -7.087,-0.311 -7.088,-0.297 -7.088,-0.284 -7.088,-0.27 -7.088,-0.257 -7.088,-0.243 -7.088,-0.23 -7.088,-0.216 -7.088,-0.202 -7.088,-0.189 -7.088,-0.176 -7.087,-0.162 -7.088,-0.149 -7.088,-0.135 -7.088,-0.121 -7.088,-0.108 -7.088,-0.095 -7.088,-0.081 -7.088,-0.067 -7.088,-0.054 -7.088,-0.041 -7.088,-0.027 -7.087,-0.014 z"
   style="fill:#e7298a;fill-opacity:0.4;fill-rule:nonzero;stroke:#e7298a;stroke-width:1px;stroke-opacity:0.4"
   id="path23" />
                </g>
                <g
   id="m0eb25fc185"
   transform="matrix(1,0,0,-1,0,-16.2869)">
                    <path
   d="m 83.196,-68.281 v 0.993 h 7.088 l 7.087,-0.01 7.088,-0.02 7.088,-0.031 7.088,-0.042 7.088,-0.051 7.088,-0.062 7.088,-0.073 7.088,-0.082 7.088,-0.093 7.088,-0.104 7.088,-0.113 7.087,-0.124 7.088,-0.134 7.088,-0.145 7.088,-0.155 7.088,-0.165 7.088,-0.176 7.088,-0.186 7.088,-0.196 7.088,-0.207 7.088,-0.217 7.088,-0.227 7.087,-0.237 7.088,-0.248 7.088,-0.258 7.088,-0.248 7.088,-0.238 7.088,-0.227 7.088,-0.217 7.088,-0.207 7.088,-0.196 7.088,-0.186 7.087,-0.175 7.088,-0.166 7.088,-0.155 7.088,-0.144 7.088,-0.135 7.088,-0.123 7.088,-0.114 7.088,-0.103 7.088,-0.093 7.088,-0.083 7.088,-0.072 7.087,-0.062 7.088,-0.052 7.088,-0.041 7.088,-0.031 7.088,-0.021 7.088,-0.01 h 7.088 v -0.993 h -7.088 l -7.088,0.01 -7.088,0.021 -7.088,0.031 -7.088,0.041 -7.088,0.052 -7.087,0.062 -7.088,0.072 -7.088,0.082 -7.088,0.093 -7.088,0.104 -7.088,0.113 -7.088,0.124 -7.088,0.135 -7.088,0.144 -7.088,0.155 -7.088,0.165 -7.087,0.176 -7.088,0.186 -7.088,0.196 -7.088,0.207 -7.088,0.217 -7.088,0.227 -7.088,0.237 -7.088,0.248 -7.088,0.259 -7.088,0.247 -7.087,0.238 -7.088,0.227 -7.088,0.217 -7.088,0.207 -7.088,0.196 -7.088,0.186 -7.088,0.176 -7.088,0.165 -7.088,0.155 -7.088,0.144 -7.088,0.135 -7.087,0.124 -7.088,0.113 -7.088,0.104 -7.088,0.092 -7.088,0.083 -7.088,0.072 -7.088,0.062 -7.088,0.052 -7.088,0.041 -7.088,0.031 -7.088,0.021 -7.087,0.01 z"
   style="fill:#e7298a;fill-opacity:0.4;fill-rule:nonzero;stroke:#e7298a;stroke-width:1px;stroke-opacity:0.4"
   id="path24" />
                </g>
                <g
   id="mfa0283cb6f"
   transform="matrix(1,0,0,-1,0,-16.2869)">
                    <path
   d="m 83.196,-68.777 v 0.496 h 7.088 l 7.087,-0.218 7.088,-0.437 7.088,-0.656 7.088,-0.874 7.088,-1.092 7.088,-1.311 7.088,-1.53 7.088,-1.748 7.088,-1.966 7.088,-2.185 7.088,-2.404 7.087,-2.622 7.088,-2.84 7.088,-3.059 7.088,-3.278 7.088,-3.496 7.088,-3.714 7.088,-3.933 7.088,-4.152 7.088,-4.37 7.088,-4.588 7.088,-4.807 7.087,-5.026 7.088,-5.244 7.088,-5.462 7.088,-5.244 7.088,-5.026 7.088,-4.807 7.088,-4.588 7.088,-4.37 7.088,-4.152 7.088,-3.933 7.087,-3.714 7.088,-3.496 7.088,-3.278 7.088,-3.059 7.088,-2.84 7.088,-2.622 7.088,-2.404 7.088,-2.185 7.088,-1.966 7.088,-1.748 7.088,-1.53 7.087,-1.311 7.088,-1.092 7.088,-0.874 7.088,-0.656 7.088,-0.437 7.088,-0.218 h 7.088 v -0.497 h -7.088 l -7.088,0.219 -7.088,0.437 -7.088,0.655 -7.088,0.874 -7.088,1.093 -7.087,1.311 -7.088,1.529 -7.088,1.748 -7.088,1.967 -7.088,2.185 -7.088,2.403 -7.088,2.622 -7.088,2.841 -7.088,3.059 -7.088,3.277 -7.088,3.496 -7.087,3.715 -7.088,3.933 -7.088,4.151 -7.088,4.37 -7.088,4.589 -7.088,4.807 -7.088,5.025 -7.088,5.244 -7.088,5.463 -7.088,5.244 -7.087,5.025 -7.088,4.807 -7.088,4.589 -7.088,4.37 -7.088,4.151 -7.088,3.933 -7.088,3.715 -7.088,3.496 -7.088,3.277 -7.088,3.059 -7.088,2.841 -7.087,2.622 -7.088,2.403 -7.088,2.185 -7.088,1.967 -7.088,1.748 -7.088,1.529 -7.088,1.311 -7.088,1.093 -7.088,0.874 -7.088,0.655 -7.088,0.437 -7.087,0.219 z"
   style="fill:#e7298a;fill-opacity:0.4;fill-rule:nonzero;stroke:#e7298a;stroke-width:1px;stroke-opacity:0.4"
   id="path25" />
                </g>
                <g
   id="mf1578f2dab"
   transform="matrix(1,0,0,-1,0,-16.2869)">
                    <path
   d="m 83.196,-77.219 v 0.496 h 7.088 l 7.087,0.029 7.088,0.057 7.088,0.086 7.088,0.114 7.088,0.143 7.088,0.172 7.088,0.2 7.088,0.229 7.088,0.257 7.088,0.286 7.088,0.315 7.087,0.343 7.088,0.372 7.088,0.401 7.088,0.429 7.088,0.457 7.088,0.487 7.088,0.514 7.088,0.544 7.088,0.572 7.088,0.601 7.088,0.629 7.087,0.658 7.088,0.686 7.088,0.715 7.088,0.687 7.088,0.658 7.088,0.629 7.088,0.601 7.088,0.572 7.088,0.543 7.088,0.515 7.087,0.486 7.088,0.458 7.088,0.429 7.088,0.401 7.088,0.371 7.088,0.344 7.088,0.314 7.088,0.286 7.088,0.258 7.088,0.229 7.088,0.2 7.087,0.171 7.088,0.144 7.088,0.114 7.088,0.086 7.088,0.057 7.088,0.029 h 7.088 v -0.497 h -7.088 l -7.088,-0.029 -7.088,-0.057 -7.088,-0.086 -7.088,-0.114 -7.088,-0.143 -7.087,-0.172 -7.088,-0.2 -7.088,-0.229 -7.088,-0.257 -7.088,-0.286 -7.088,-0.315 -7.088,-0.343 -7.088,-0.372 -7.088,-0.4 -7.088,-0.429 -7.088,-0.458 -7.087,-0.486 -7.088,-0.515 -7.088,-0.544 -7.088,-0.572 -7.088,-0.6 -7.088,-0.63 -7.088,-0.658 -7.088,-0.686 -7.088,-0.715 -7.088,-0.687 -7.087,-0.658 -7.088,-0.629 -7.088,-0.601 -7.088,-0.572 -7.088,-0.543 -7.088,-0.515 -7.088,-0.486 -7.088,-0.458 -7.088,-0.429 -7.088,-0.4 -7.088,-0.372 -7.087,-0.343 -7.088,-0.315 -7.088,-0.286 -7.088,-0.258 -7.088,-0.228 -7.088,-0.201 -7.088,-0.171 -7.088,-0.143 -7.088,-0.115 -7.088,-0.086 -7.088,-0.057 -7.087,-0.028 z"
   style="fill:#7570b3;fill-opacity:0.4;fill-rule:nonzero;stroke:#7570b3;stroke-width:1px;stroke-opacity:0.4"
   id="path26" />
                </g>
                <g
   id="m533de2c04b"
   transform="matrix(1,0,0,-1,0,-16.2869)">
                    <path
   d="m 83.196,-78.213 v 0.994 h 7.088 l 7.087,0.004 7.088,0.008 7.088,0.012 7.088,0.015 7.088,0.02 7.088,0.024 7.088,0.028 7.088,0.032 7.088,0.035 7.088,0.04 7.088,0.044 7.087,0.048 7.088,0.051 7.088,0.056 7.088,0.059 7.088,0.064 7.088,0.068 7.088,0.071 7.088,0.075 7.088,0.08 7.088,0.083 7.088,0.088 7.087,0.091 7.088,0.095 7.088,0.1 7.088,0.095 7.088,0.092 7.088,0.087 7.088,0.083 7.088,0.08 7.088,0.075 7.088,0.072 7.087,0.067 7.088,0.064 7.088,0.06 7.088,0.055 7.088,0.052 7.088,0.047 7.088,0.044 7.088,0.04 7.088,0.036 7.088,0.031 7.088,0.028 7.087,0.024 7.088,0.02 7.088,0.016 7.088,0.012 7.088,0.008 7.088,0.004 h 7.088 v -0.994 h -7.088 l -7.088,-0.004 -7.088,-0.007 -7.088,-0.012 -7.088,-0.016 -7.088,-0.02 -7.087,-0.024 -7.088,-0.028 -7.088,-0.032 -7.088,-0.035 -7.088,-0.04 -7.088,-0.044 -7.088,-0.047 -7.088,-0.052 -7.088,-0.056 -7.088,-0.059 -7.088,-0.064 -7.087,-0.067 -7.088,-0.072 -7.088,-0.075 -7.088,-0.08 -7.088,-0.083 -7.088,-0.088 -7.088,-0.091 -7.088,-0.095 -7.088,-0.1 -7.088,-0.095 -7.087,-0.091 -7.088,-0.088 -7.088,-0.083 -7.088,-0.08 -7.088,-0.075 -7.088,-0.072 -7.088,-0.067 -7.088,-0.064 -7.088,-0.059 -7.088,-0.056 -7.088,-0.052 -7.087,-0.047 -7.088,-0.044 -7.088,-0.04 -7.088,-0.035 -7.088,-0.032 -7.088,-0.028 -7.088,-0.024 -7.088,-0.02 -7.088,-0.016 -7.088,-0.012 -7.088,-0.008 -7.087,-0.004 z"
   style="fill:#7570b3;fill-opacity:0.4;fill-rule:nonzero;stroke:#7570b3;stroke-width:1px;stroke-opacity:0.4"
   id="path27" />
                </g>
                <g
   id="m21b3c80b87"
   transform="matrix(1,0,0,-1,0,-16.2869)">
                    <path
   d="m 83.196,-79.206 v 0.993 h 7.088 l 7.087,-0.025 7.088,-0.051 7.088,-0.076 7.088,-0.102 7.088,-0.127 7.088,-0.152 7.088,-0.178 7.088,-0.204 7.088,-0.229 7.088,-0.254 7.088,-0.28 7.087,-0.305 7.088,-0.33 7.088,-0.356 7.088,-0.382 7.088,-0.406 7.088,-0.433 7.088,-0.457 7.088,-0.483 7.088,-0.509 7.088,-0.534 7.088,-0.559 7.087,-0.585 7.088,-0.61 7.088,-0.636 7.088,-0.61 7.088,-0.585 7.088,-0.559 7.088,-0.534 7.088,-0.509 7.088,-0.483 7.088,-0.457 7.087,-0.433 7.088,-0.406 7.088,-0.382 7.088,-0.356 7.088,-0.33 7.088,-0.305 7.088,-0.28 7.088,-0.254 7.088,-0.229 7.088,-0.203 7.088,-0.178 7.087,-0.153 7.088,-0.127 7.088,-0.102 7.088,-0.076 7.088,-0.051 7.088,-0.025 h 7.088 v -0.994 h -7.088 l -7.088,0.026 -7.088,0.051 -7.088,0.076 -7.088,0.102 -7.088,0.127 -7.087,0.152 -7.088,0.178 -7.088,0.204 -7.088,0.229 -7.088,0.254 -7.088,0.279 -7.088,0.306 -7.088,0.33 -7.088,0.356 -7.088,0.381 -7.088,0.407 -7.087,0.433 -7.088,0.457 -7.088,0.483 -7.088,0.509 -7.088,0.534 -7.088,0.559 -7.088,0.585 -7.088,0.61 -7.088,0.636 -7.088,0.61 -7.087,0.585 -7.088,0.559 -7.088,0.534 -7.088,0.508 -7.088,0.484 -7.088,0.457 -7.088,0.432 -7.088,0.407 -7.088,0.382 -7.088,0.356 -7.088,0.33 -7.087,0.305 -7.088,0.28 -7.088,0.254 -7.088,0.229 -7.088,0.203 -7.088,0.178 -7.088,0.153 -7.088,0.127 -7.088,0.102 -7.088,0.076 -7.088,0.051 -7.087,0.025 z"
   style="fill:#7570b3;fill-opacity:0.4;fill-rule:nonzero;stroke:#7570b3;stroke-width:1px;stroke-opacity:0.4"
   id="path28" />
                </g>
                <g
   id="ma9012eed0a"
   transform="matrix(1,0,0,-1,0,-16.2869)">
                    <path
   d="m 83.196,-80.695 v 1.489 h 7.088 l 7.087,-0.052 7.088,-0.105 7.088,-0.157 7.088,-0.21 7.088,-0.262 7.088,-0.315 7.088,-0.367 7.088,-0.42 7.088,-0.471 7.088,-0.525 7.088,-0.577 7.087,-0.629 7.088,-0.682 7.088,-0.734 7.088,-0.786 7.088,-0.84 7.088,-0.891 7.088,-0.944 7.088,-0.996 7.088,-1.049 7.088,-1.101 7.088,-1.154 7.087,-1.206 7.088,-1.259 7.088,-1.311 7.088,-1.258 7.088,-1.206 7.088,-1.154 7.088,-1.101 7.088,-1.049 7.088,-0.996 7.088,-0.944 7.087,-0.892 7.088,-0.839 7.088,-0.786 7.088,-0.735 7.088,-0.681 7.088,-0.63 7.088,-0.576 7.088,-0.525 7.088,-0.472 7.088,-0.419 7.088,-0.367 7.087,-0.315 7.088,-0.262 7.088,-0.21 7.088,-0.157 7.088,-0.105 7.088,-0.053 h 7.088 v -1.489 h -7.088 l -7.088,0.052 -7.088,0.105 -7.088,0.157 -7.088,0.21 -7.088,0.262 -7.087,0.315 -7.088,0.367 -7.088,0.419 -7.088,0.472 -7.088,0.525 -7.088,0.577 -7.088,0.629 -7.088,0.682 -7.088,0.734 -7.088,0.786 -7.088,0.839 -7.087,0.892 -7.088,0.944 -7.088,0.996 -7.088,1.049 -7.088,1.101 -7.088,1.154 -7.088,1.206 -7.088,1.259 -7.088,1.311 -7.088,1.258 -7.087,1.206 -7.088,1.154 -7.088,1.101 -7.088,1.049 -7.088,0.996 -7.088,0.944 -7.088,0.892 -7.088,0.839 -7.088,0.786 -7.088,0.735 -7.088,0.681 -7.087,0.63 -7.088,0.576 -7.088,0.525 -7.088,0.472 -7.088,0.419 -7.088,0.367 -7.088,0.315 -7.088,0.262 -7.088,0.21 -7.088,0.157 -7.088,0.105 -7.087,0.053 z"
   style="fill:#7570b3;fill-opacity:0.4;fill-rule:nonzero;stroke:#7570b3;stroke-width:1px;stroke-opacity:0.4"
   id="path29" />
                </g>
                <g
   id="m5fe29f8c6c"
   transform="matrix(1,0,0,-1,0,-16.2869)">
                    <path
   d="m 83.196,-85.165 v 4.47 h 7.088 l 7.087,-0.095 7.088,-0.189 7.088,-0.284 7.088,-0.378 7.088,-0.473 7.088,-0.567 7.088,-0.662 7.088,-0.756 7.088,-0.851 7.088,-0.946 7.088,-1.04 7.087,-1.134 7.088,-1.23 7.088,-1.323 7.088,-1.419 7.088,-1.512 7.088,-1.608 7.088,-1.702 7.088,-1.796 7.088,-1.891 7.088,-1.986 7.088,-2.08 7.087,-2.175 7.088,-2.269 7.088,-2.363 7.088,-2.27 7.088,-2.174 7.088,-2.081 7.088,-1.985 7.088,-1.891 7.088,-1.797 7.088,-1.701 7.087,-1.608 7.088,-1.513 7.088,-1.418 7.088,-1.324 7.088,-1.229 7.088,-1.134 7.088,-1.04 7.088,-0.946 7.088,-0.851 7.088,-0.756 7.088,-0.662 7.087,-0.568 7.088,-0.472 7.088,-0.378 7.088,-0.284 7.088,-0.189 7.088,-0.095 h 7.088 v -4.469 h -7.088 l -7.088,0.094 -7.088,0.19 -7.088,0.283 -7.088,0.378 -7.088,0.473 -7.087,0.567 -7.088,0.662 -7.088,0.757 -7.088,0.851 -7.088,0.945 -7.088,1.04 -7.088,1.135 -7.088,1.229 -7.088,1.324 -7.088,1.418 -7.088,1.513 -7.087,1.607 -7.088,1.702 -7.088,1.797 -7.088,1.891 -7.088,1.985 -7.088,2.08 -7.088,2.175 -7.088,2.269 -7.088,2.364 -7.088,2.269 -7.087,2.175 -7.088,2.08 -7.088,1.986 -7.088,1.891 -7.088,1.796 -7.088,1.702 -7.088,1.607 -7.088,1.513 -7.088,1.418 -7.088,1.324 -7.088,1.229 -7.087,1.135 -7.088,1.04 -7.088,0.945 -7.088,0.851 -7.088,0.757 -7.088,0.662 -7.088,0.567 -7.088,0.473 -7.088,0.378 -7.088,0.284 -7.088,0.189 -7.087,0.094 z"
   style="fill:#7570b3;fill-opacity:0.4;fill-rule:nonzero;stroke:#7570b3;stroke-width:1px;stroke-opacity:0.4"
   id="path30" />
                </g>
                <g
   id="m9ab7c16284"
   transform="matrix(1,0,0,-1,0,-16.2869)">
                    <path
   d="m 83.196,-86.158 v 0.993 h 7.088 l 7.087,-0.192 7.088,-0.385 7.088,-0.576 7.088,-0.77 7.088,-0.961 7.088,-1.154 7.088,-1.346 7.088,-1.538 7.088,-1.73 7.088,-1.923 7.088,-2.115 7.087,-2.308 7.088,-2.499 7.088,-2.692 7.088,-2.884 7.088,-3.077 7.088,-3.269 7.088,-3.461 7.088,-3.653 7.088,-3.846 7.088,-4.037 7.088,-4.231 7.087,-4.422 7.088,-4.615 7.088,-4.807 7.088,-4.614 7.088,-4.423 7.088,-4.23 7.088,-4.038 7.088,-3.846 7.088,-3.653 7.088,-3.461 7.087,-3.269 7.088,-3.076 7.088,-2.884 7.088,-2.692 7.088,-2.5 7.088,-2.307 7.088,-2.115 7.088,-1.923 7.088,-1.731 7.088,-1.538 7.088,-1.346 7.087,-1.154 7.088,-0.961 7.088,-0.769 7.088,-0.577 7.088,-0.384 7.088,-0.193 h 7.088 v -0.993 h -7.088 l -7.088,0.192 -7.088,0.385 -7.088,0.577 -7.088,0.769 -7.088,0.961 -7.087,1.154 -7.088,1.346 -7.088,1.538 -7.088,1.731 -7.088,1.922 -7.088,2.116 -7.088,2.307 -7.088,2.5 -7.088,2.691 -7.088,2.885 -7.088,3.076 -7.087,3.269 -7.088,3.461 -7.088,3.653 -7.088,3.846 -7.088,4.038 -7.088,4.23 -7.088,4.422 -7.088,4.615 -7.088,4.807 -7.088,4.615 -7.087,4.422 -7.088,4.23 -7.088,4.038 -7.088,3.846 -7.088,3.653 -7.088,3.461 -7.088,3.269 -7.088,3.076 -7.088,2.885 -7.088,2.692 -7.088,2.499 -7.087,2.308 -7.088,2.115 -7.088,1.922 -7.088,1.731 -7.088,1.538 -7.088,1.346 -7.088,1.154 -7.088,0.961 -7.088,0.769 -7.088,0.577 -7.088,0.385 -7.087,0.192 z"
   style="fill:#7570b3;fill-opacity:0.4;fill-rule:nonzero;stroke:#7570b3;stroke-width:1px;stroke-opacity:0.4"
   id="path31" />
                </g>
                <g
   id="mec3ecfd63c"
   transform="matrix(1,0,0,-1,0,-16.2869)">
                    <path
   d="m 83.196,-98.573 v 4.47 h 7.088 l 7.087,0.055 7.088,0.111 7.088,0.167 7.088,0.223 7.088,0.278 7.088,0.334 7.088,0.389 7.088,0.445 7.088,0.5 7.088,0.557 7.088,0.611 7.087,0.668 7.088,0.723 7.088,0.779 7.088,0.834 7.088,0.89 7.088,0.945 7.088,1.001 7.088,1.057 7.088,1.112 7.088,1.168 7.088,1.224 7.087,1.279 7.088,1.335 7.088,1.39 7.088,1.335 7.088,1.28 7.088,1.223 7.088,1.168 7.088,1.112 7.088,1.057 7.088,1.001 7.087,0.946 7.088,0.89 7.088,0.834 7.088,0.779 7.088,0.723 7.088,0.667 7.088,0.612 7.088,0.556 7.088,0.501 7.088,0.445 7.088,0.389 7.087,0.334 7.088,0.278 7.088,0.222 7.088,0.167 7.088,0.111 7.088,0.056 h 7.088 v -4.469 h -7.088 l -7.088,-0.056 -7.088,-0.111 -7.088,-0.167 -7.088,-0.223 -7.088,-0.278 -7.087,-0.333 -7.088,-0.39 -7.088,-0.445 -7.088,-0.5 -7.088,-0.556 -7.088,-0.612 -7.088,-0.668 -7.088,-0.723 -7.088,-0.778 -7.088,-0.835 -7.088,-0.889 -7.087,-0.946 -7.088,-1.001 -7.088,-1.057 -7.088,-1.112 -7.088,-1.168 -7.088,-1.224 -7.088,-1.279 -7.088,-1.335 -7.088,-1.39 -7.088,-1.335 -7.087,-1.279 -7.088,-1.224 -7.088,-1.168 -7.088,-1.112 -7.088,-1.057 -7.088,-1.001 -7.088,-0.946 -7.088,-0.89 -7.088,-0.834 -7.088,-0.778 -7.088,-0.724 -7.087,-0.667 -7.088,-0.612 -7.088,-0.556 -7.088,-0.5 -7.088,-0.445 -7.088,-0.39 -7.088,-0.333 -7.088,-0.279 -7.088,-0.222 -7.088,-0.167 -7.088,-0.111 -7.087,-0.056 z"
   style="fill:#b3e2cd;fill-opacity:0.4;fill-rule:nonzero;stroke:#b3e2cd;stroke-width:1px;stroke-opacity:0.4"
   id="path32" />
                </g>
                <g
   id="md74c090f0b"
   transform="matrix(1,0,0,-1,0,-16.2869)">
                    <path
   d="m 83.196,-105.525 v 6.952 h 7.088 l 7.087,0.037 7.088,0.073 7.088,0.11 7.088,0.146 7.088,0.183 7.088,0.219 7.088,0.256 7.088,0.292 7.088,0.329 7.088,0.365 7.088,0.403 7.087,0.438 7.088,0.475 7.088,0.512 7.088,0.548 7.088,0.585 7.088,0.621 7.088,0.658 7.088,0.695 7.088,0.731 7.088,0.767 7.088,0.804 7.087,0.841 7.088,0.877 7.088,0.914 7.088,0.877 7.088,0.841 7.088,0.804 7.088,0.767 7.088,0.731 7.088,0.695 7.088,0.657 7.087,0.622 7.088,0.585 7.088,0.548 7.088,0.511 7.088,0.476 7.088,0.438 7.088,0.402 7.088,0.366 7.088,0.329 7.088,0.292 7.088,0.256 7.087,0.219 7.088,0.183 7.088,0.146 7.088,0.11 7.088,0.073 7.088,0.036 h 7.088 v -6.952 h -7.088 l -7.088,-0.036 -7.088,-0.073 -7.088,-0.11 -7.088,-0.146 -7.088,-0.183 -7.087,-0.219 -7.088,-0.256 -7.088,-0.293 -7.088,-0.329 -7.088,-0.365 -7.088,-0.402 -7.088,-0.439 -7.088,-0.475 -7.088,-0.511 -7.088,-0.549 -7.088,-0.584 -7.087,-0.622 -7.088,-0.658 -7.088,-0.694 -7.088,-0.731 -7.088,-0.768 -7.088,-0.804 -7.088,-0.84 -7.088,-0.878 -7.088,-0.913 -7.088,-0.877 -7.087,-0.841 -7.088,-0.804 -7.088,-0.768 -7.088,-0.731 -7.088,-0.694 -7.088,-0.658 -7.088,-0.621 -7.088,-0.585 -7.088,-0.548 -7.088,-0.512 -7.088,-0.475 -7.087,-0.439 -7.088,-0.402 -7.088,-0.365 -7.088,-0.329 -7.088,-0.293 -7.088,-0.255 -7.088,-0.22 -7.088,-0.183 -7.088,-0.146 -7.088,-0.109 -7.088,-0.073 -7.087,-0.037 z"
   style="fill:#b3e2cd;fill-opacity:0.4;fill-rule:nonzero;stroke:#b3e2cd;stroke-width:1px;stroke-opacity:0.4"
   id="path33" />
                </g>
                <g
   id="m78677cac56"
   transform="matrix(1,0,0,-1,0,-16.2869)">
                    <path
   d="m 83.196,-110.988 v 5.463 h 7.088 l 7.087,0.017 7.088,0.033 7.088,0.05 7.088,0.067 7.088,0.083 7.088,0.1 7.088,0.117 7.088,0.134 7.088,0.15 7.088,0.167 7.088,0.183 7.087,0.2 7.088,0.217 7.088,0.234 7.088,0.25 7.088,0.267 7.088,0.284 7.088,0.3 7.088,0.317 7.088,0.334 7.088,0.35 7.088,0.367 7.087,0.384 7.088,0.401 7.088,0.417 7.088,0.4 7.088,0.384 7.088,0.367 7.088,0.35 7.088,0.334 7.088,0.317 7.088,0.301 7.087,0.283 7.088,0.267 7.088,0.25 7.088,0.234 7.088,0.217 7.088,0.2 7.088,0.184 7.088,0.167 7.088,0.15 7.088,0.133 7.088,0.117 7.087,0.1 7.088,0.084 7.088,0.066 7.088,0.05 7.088,0.034 7.088,0.016 h 7.088 v -5.462 h -7.088 l -7.088,-0.017 -7.088,-0.033 -7.088,-0.05 -7.088,-0.067 -7.088,-0.083 -7.087,-0.1 -7.088,-0.117 -7.088,-0.134 -7.088,-0.15 -7.088,-0.167 -7.088,-0.183 -7.088,-0.201 -7.088,-0.216 -7.088,-0.234 -7.088,-0.25 -7.088,-0.267 -7.087,-0.284 -7.088,-0.3 -7.088,-0.317 -7.088,-0.334 -7.088,-0.35 -7.088,-0.368 -7.088,-0.383 -7.088,-0.401 -7.088,-0.417 -7.088,-0.4 -7.087,-0.384 -7.088,-0.367 -7.088,-0.351 -7.088,-0.333 -7.088,-0.317 -7.088,-0.301 -7.088,-0.283 -7.088,-0.267 -7.088,-0.251 -7.088,-0.233 -7.088,-0.217 -7.087,-0.2 -7.088,-0.184 -7.088,-0.167 -7.088,-0.15 -7.088,-0.133 -7.088,-0.117 -7.088,-0.1 -7.088,-0.084 -7.088,-0.066 -7.088,-0.05 -7.088,-0.034 -7.087,-0.017 z"
   style="fill:#b3e2cd;fill-opacity:0.4;fill-rule:nonzero;stroke:#b3e2cd;stroke-width:1px;stroke-opacity:0.4"
   id="path34" />
                </g>
                <g
   id="m79ebda985c"
   transform="matrix(1,0,0,-1,0,-16.2869)">
                    <path
   d="m 83.196,-121.416 v 10.428 h 7.088 l 7.087,-0.003 7.088,-0.008 7.088,-0.012 7.088,-0.016 7.088,-0.02 7.088,-0.024 7.088,-0.028 7.088,-0.032 7.088,-0.035 7.088,-0.04 7.088,-0.044 7.087,-0.047 7.088,-0.052 7.088,-0.056 7.088,-0.059 7.088,-0.064 7.088,-0.067 7.088,-0.072 7.088,-0.075 7.088,-0.08 7.088,-0.083 7.088,-0.088 7.087,-0.091 7.088,-0.095 7.088,-0.1 7.088,-0.095 7.088,-0.091 7.088,-0.088 7.088,-0.083 7.088,-0.08 7.088,-0.075 7.088,-0.072 7.087,-0.067 7.088,-0.064 7.088,-0.059 7.088,-0.056 7.088,-0.052 7.088,-0.047 7.088,-0.044 7.088,-0.04 7.088,-0.035 7.088,-0.032 7.088,-0.028 7.087,-0.024 7.088,-0.02 7.088,-0.016 7.088,-0.012 7.088,-0.007 7.088,-0.004 h 7.088 v -10.429 h -7.088 l -7.088,0.004 -7.088,0.008 -7.088,0.012 -7.088,0.016 -7.088,0.02 -7.087,0.024 -7.088,0.027 -7.088,0.032 -7.088,0.036 -7.088,0.04 -7.088,0.043 -7.088,0.048 -7.088,0.052 -7.088,0.055 -7.088,0.06 -7.088,0.063 -7.087,0.068 -7.088,0.071 -7.088,0.076 -7.088,0.079 -7.088,0.084 -7.088,0.087 -7.088,0.092 -7.088,0.095 -7.088,0.099 -7.088,0.096 -7.087,0.091 -7.088,0.087 -7.088,0.084 -7.088,0.079 -7.088,0.076 -7.088,0.071 -7.088,0.068 -7.088,0.063 -7.088,0.06 -7.088,0.056 -7.088,0.051 -7.087,0.048 -7.088,0.044 -7.088,0.039 -7.088,0.036 -7.088,0.032 -7.088,0.028 -7.088,0.023 -7.088,0.02 -7.088,0.016 -7.088,0.012 -7.088,0.008 -7.087,0.004 z"
   style="fill:#b3e2cd;fill-opacity:0.4;fill-rule:nonzero;stroke:#b3e2cd;stroke-width:1px;stroke-opacity:0.4"
   id="path35" />
                </g>
                <g
   id="me5597bd1be"
   transform="matrix(1,0,0,-1,0,-16.2869)">
                    <path
   d="m 83.196,-134.824 v 13.408 h 7.088 l 7.087,-0.036 7.088,-0.074 7.088,-0.109 7.088,-0.146 7.088,-0.183 7.088,-0.219 7.088,-0.256 7.088,-0.293 7.088,-0.329 7.088,-0.365 7.088,-0.402 7.087,-0.439 7.088,-0.475 7.088,-0.512 7.088,-0.548 7.088,-0.585 7.088,-0.621 7.088,-0.658 7.088,-0.694 7.088,-0.731 7.088,-0.768 7.088,-0.804 7.087,-0.84 7.088,-0.878 7.088,-0.913 7.088,-0.878 7.088,-0.84 7.088,-0.804 7.088,-0.768 7.088,-0.731 7.088,-0.694 7.088,-0.658 7.087,-0.621 7.088,-0.585 7.088,-0.548 7.088,-0.512 7.088,-0.475 7.088,-0.439 7.088,-0.402 7.088,-0.365 7.088,-0.329 7.088,-0.293 7.088,-0.256 7.087,-0.219 7.088,-0.183 7.088,-0.146 7.088,-0.109 7.088,-0.074 7.088,-0.036 h 7.088 v -13.408 h -7.088 l -7.088,0.037 -7.088,0.073 -7.088,0.109 -7.088,0.146 -7.088,0.183 -7.087,0.219 -7.088,0.256 -7.088,0.293 -7.088,0.329 -7.088,0.365 -7.088,0.402 -7.088,0.439 -7.088,0.475 -7.088,0.512 -7.088,0.548 -7.088,0.585 -7.087,0.621 -7.088,0.658 -7.088,0.694 -7.088,0.731 -7.088,0.768 -7.088,0.804 -7.088,0.841 -7.088,0.877 -7.088,0.913 -7.088,0.878 -7.087,0.84 -7.088,0.804 -7.088,0.768 -7.088,0.731 -7.088,0.694 -7.088,0.658 -7.088,0.621 -7.088,0.585 -7.088,0.548 -7.088,0.512 -7.088,0.475 -7.087,0.439 -7.088,0.402 -7.088,0.365 -7.088,0.329 -7.088,0.293 -7.088,0.256 -7.088,0.219 -7.088,0.183 -7.088,0.146 -7.088,0.109 -7.088,0.074 -7.087,0.036 z"
   style="fill:#b3e2cd;fill-opacity:0.4;fill-rule:nonzero;stroke:#b3e2cd;stroke-width:1px;stroke-opacity:0.4"
   id="path36" />
                </g>
                <g
   id="m777aeedab7"
   transform="matrix(1,0,0,-1,0,-16.2869)">
                    <path
   d="m 83.196,-137.803 v 2.979 h 7.088 l 7.087,-0.084 7.088,-0.169 7.088,-0.252 7.088,-0.337 7.088,-0.421 7.088,-0.506 7.088,-0.589 7.088,-0.674 7.088,-0.758 7.088,-0.842 7.088,-0.927 7.087,-1.01 7.088,-1.095 7.088,-1.179 7.088,-1.263 7.088,-1.348 7.088,-1.432 7.088,-1.516 7.088,-1.6 7.088,-1.684 7.088,-1.769 7.088,-1.853 7.087,-1.937 7.088,-2.021 7.088,-2.106 7.088,-2.021 7.088,-1.937 7.088,-1.853 7.088,-1.769 7.088,-1.684 7.088,-1.601 7.088,-1.516 7.087,-1.431 7.088,-1.348 7.088,-1.263 7.088,-1.179 7.088,-1.095 7.088,-1.011 7.088,-0.926 7.088,-0.843 7.088,-0.758 7.088,-0.673 7.088,-0.59 7.087,-0.505 7.088,-0.421 7.088,-0.337 7.088,-0.253 7.088,-0.168 7.088,-0.085 h 7.088 v -2.979 h -7.088 l -7.088,0.084 -7.088,0.169 -7.088,0.252 -7.088,0.337 -7.088,0.421 -7.087,0.506 -7.088,0.589 -7.088,0.674 -7.088,0.758 -7.088,0.842 -7.088,0.927 -7.088,1.01 -7.088,1.095 -7.088,1.179 -7.088,1.264 -7.088,1.347 -7.087,1.432 -7.088,1.516 -7.088,1.6 -7.088,1.685 -7.088,1.768 -7.088,1.853 -7.088,1.937 -7.088,2.021 -7.088,2.106 -7.088,2.021 -7.087,1.937 -7.088,1.853 -7.088,1.769 -7.088,1.684 -7.088,1.601 -7.088,1.516 -7.088,1.431 -7.088,1.348 -7.088,1.263 -7.088,1.179 -7.088,1.095 -7.087,1.011 -7.088,0.926 -7.088,0.843 -7.088,0.758 -7.088,0.673 -7.088,0.59 -7.088,0.505 -7.088,0.421 -7.088,0.337 -7.088,0.253 -7.088,0.168 -7.087,0.085 z"
   style="fill:#b3e2cd;fill-opacity:0.4;fill-rule:nonzero;stroke:#b3e2cd;stroke-width:1px;stroke-opacity:0.4"
   id="path37" />
                </g>
                <g
   id="m5823f0c717"
   transform="matrix(1,0,0,-1,0,-16.2869)">
                    <path
   d="m 83.196,-140.286 v 2.483 h 7.088 l 7.087,-0.11 7.088,-0.219 7.088,-0.329 7.088,-0.439 7.088,-0.548 7.088,-0.658 7.088,-0.768 7.088,-0.877 7.088,-0.987 7.088,-1.096 7.088,-1.206 7.087,-1.316 7.088,-1.425 7.088,-1.535 7.088,-1.645 7.088,-1.754 7.088,-1.864 7.088,-1.974 7.088,-2.083 7.088,-2.193 7.088,-2.303 7.088,-2.412 7.087,-2.522 7.088,-2.632 7.088,-2.741 7.088,-2.631 7.088,-2.522 7.088,-2.412 7.088,-2.303 7.088,-2.193 7.088,-2.083 7.088,-1.974 7.087,-1.864 7.088,-1.754 7.088,-1.645 7.088,-1.535 7.088,-1.425 7.088,-1.316 7.088,-1.206 7.088,-1.097 7.088,-0.987 7.088,-0.877 7.088,-0.767 7.087,-0.658 7.088,-0.548 7.088,-0.439 7.088,-0.329 7.088,-0.219 7.088,-0.11 h 7.088 v -2.483 h -7.088 l -7.088,0.11 -7.088,0.219 -7.088,0.329 -7.088,0.439 -7.088,0.548 -7.087,0.658 -7.088,0.767 -7.088,0.877 -7.088,0.987 -7.088,1.097 -7.088,1.206 -7.088,1.316 -7.088,1.425 -7.088,1.535 -7.088,1.645 -7.088,1.754 -7.087,1.864 -7.088,1.974 -7.088,2.083 -7.088,2.193 -7.088,2.303 -7.088,2.412 -7.088,2.522 -7.088,2.631 -7.088,2.741 -7.088,2.632 -7.087,2.522 -7.088,2.412 -7.088,2.303 -7.088,2.193 -7.088,2.083 -7.088,1.974 -7.088,1.864 -7.088,1.754 -7.088,1.645 -7.088,1.535 -7.088,1.425 -7.087,1.316 -7.088,1.206 -7.088,1.097 -7.088,0.986 -7.088,0.878 -7.088,0.767 -7.088,0.658 -7.088,0.548 -7.088,0.439 -7.088,0.329 -7.088,0.219 -7.087,0.11 z"
   style="fill:#b3e2cd;fill-opacity:0.4;fill-rule:nonzero;stroke:#b3e2cd;stroke-width:1px;stroke-opacity:0.4"
   id="path38" />
                </g>
                <g
   id="m1d3e862d13"
   transform="matrix(1,0,0,-1,0,-16.2869)">
                    <path
   d="m 83.196,-150.715 v 2.483 h 7.088 l 7.087,0.105 7.088,0.21 7.088,0.314 7.088,0.42 7.088,0.524 7.088,0.63 7.088,0.734 7.088,0.839 7.088,0.944 7.088,1.049 7.088,1.153 7.087,1.259 7.088,1.363 7.088,1.469 7.088,1.573 7.088,1.678 7.088,1.783 7.088,1.888 7.088,1.992 7.088,2.098 7.088,2.202 7.088,2.308 7.087,2.412 7.088,2.517 7.088,2.622 7.088,2.517 7.088,2.413 7.088,2.307 7.088,2.202 7.088,2.098 7.088,1.993 7.088,1.888 7.087,1.783 7.088,1.678 7.088,1.573 7.088,1.468 7.088,1.364 7.088,1.258 7.088,1.154 7.088,1.049 7.088,0.944 7.088,0.839 7.088,0.734 7.087,0.629 7.088,0.524 7.088,0.42 7.088,0.315 7.088,0.209 7.088,0.105 h 7.088 v -2.483 h -7.088 l -7.088,-0.105 -7.088,-0.209 -7.088,-0.315 -7.088,-0.42 -7.088,-0.524 -7.087,-0.629 -7.088,-0.734 -7.088,-0.839 -7.088,-0.944 -7.088,-1.049 -7.088,-1.154 -7.088,-1.258 -7.088,-1.364 -7.088,-1.468 -7.088,-1.573 -7.088,-1.678 -7.087,-1.783 -7.088,-1.888 -7.088,-1.993 -7.088,-2.098 -7.088,-2.202 -7.088,-2.307 -7.088,-2.413 -7.088,-2.517 -7.088,-2.622 -7.088,-2.517 -7.087,-2.412 -7.088,-2.307 -7.088,-2.203 -7.088,-2.098 -7.088,-1.992 -7.088,-1.888 -7.088,-1.783 -7.088,-1.678 -7.088,-1.573 -7.088,-1.469 -7.088,-1.363 -7.087,-1.259 -7.088,-1.153 -7.088,-1.049 -7.088,-0.944 -7.088,-0.839 -7.088,-0.734 -7.088,-0.63 -7.088,-0.524 -7.088,-0.419 -7.088,-0.315 -7.088,-0.21 -7.087,-0.105 z"
   style="fill:#f4cae4;fill-opacity:0.4;fill-rule:nonzero;stroke:#f4cae4;stroke-width:1px;stroke-opacity:0.4"
   id="path39" />
                </g>
                <g
   id="me645751d74"
   transform="matrix(1,0,0,-1,0,-16.2869)">
                    <path
   d="m 83.196,-152.701 v 1.986 h 7.088 l 7.087,0.08 7.088,0.161 7.088,0.241 7.088,0.321 7.088,0.401 7.088,0.481 7.088,0.562 7.088,0.642 7.088,0.722 7.088,0.803 7.088,0.883 7.087,0.963 7.088,1.043 7.088,1.123 7.088,1.204 7.088,1.284 7.088,1.364 7.088,1.445 7.088,1.525 7.088,1.605 7.088,1.685 7.088,1.765 7.087,1.846 7.088,1.926 7.088,2.006 7.088,1.926 7.088,1.846 7.088,1.765 7.088,1.686 7.088,1.605 7.088,1.524 7.088,1.445 7.087,1.364 7.088,1.284 7.088,1.204 7.088,1.123 7.088,1.043 7.088,0.963 7.088,0.883 7.088,0.803 7.088,0.722 7.088,0.642 7.088,0.562 7.087,0.481 7.088,0.401 7.088,0.321 7.088,0.241 7.088,0.161 7.088,0.08 h 7.088 v -1.986 h -7.088 l -7.088,-0.081 -7.088,-0.16 -7.088,-0.241 -7.088,-0.321 -7.088,-0.401 -7.087,-0.482 -7.088,-0.561 -7.088,-0.642 -7.088,-0.723 -7.088,-0.802 -7.088,-0.883 -7.088,-0.963 -7.088,-1.043 -7.088,-1.124 -7.088,-1.203 -7.088,-1.284 -7.087,-1.365 -7.088,-1.444 -7.088,-1.525 -7.088,-1.605 -7.088,-1.685 -7.088,-1.765 -7.088,-1.846 -7.088,-1.926 -7.088,-2.006 -7.088,-1.926 -7.087,-1.846 -7.088,-1.766 -7.088,-1.685 -7.088,-1.605 -7.088,-1.525 -7.088,-1.444 -7.088,-1.364 -7.088,-1.284 -7.088,-1.204 -7.088,-1.123 -7.088,-1.044 -7.087,-0.963 -7.088,-0.882 -7.088,-0.803 -7.088,-0.722 -7.088,-0.642 -7.088,-0.562 -7.088,-0.481 -7.088,-0.402 -7.088,-0.321 -7.088,-0.24 -7.088,-0.161 -7.087,-0.08 z"
   style="fill:#f4cae4;fill-opacity:0.4;fill-rule:nonzero;stroke:#f4cae4;stroke-width:1px;stroke-opacity:0.4"
   id="path40" />
                </g>
                <g
   id="m50d69ac2ad"
   transform="matrix(1,0,0,-1,0,-16.2869)">
                    <path
   d="m 83.196,-154.191 v 1.49 h 7.088 l 7.087,0.046 7.088,0.092 7.088,0.138 7.088,0.185 7.088,0.23 7.088,0.277 7.088,0.322 7.088,0.369 7.088,0.415 7.088,0.46 7.088,0.507 7.087,0.553 7.088,0.599 7.088,0.646 7.088,0.691 7.088,0.737 7.088,0.784 7.088,0.829 7.088,0.876 7.088,0.921 7.088,0.968 7.088,1.014 7.087,1.06 7.088,1.106 7.088,1.152 7.088,1.106 7.088,1.06 7.088,1.014 7.088,0.968 7.088,0.921 7.088,0.876 7.088,0.829 7.087,0.784 7.088,0.737 7.088,0.691 7.088,0.646 7.088,0.599 7.088,0.553 7.088,0.507 7.088,0.46 7.088,0.415 7.088,0.369 7.088,0.322 7.087,0.277 7.088,0.23 7.088,0.185 7.088,0.138 7.088,0.092 7.088,0.046 h 7.088 v -1.49 h -7.088 l -7.088,-0.046 -7.088,-0.092 -7.088,-0.138 -7.088,-0.184 -7.088,-0.231 -7.087,-0.276 -7.088,-0.323 -7.088,-0.369 -7.088,-0.414 -7.088,-0.461 -7.088,-0.507 -7.088,-0.553 -7.088,-0.599 -7.088,-0.645 -7.088,-0.692 -7.088,-0.737 -7.087,-0.783 -7.088,-0.83 -7.088,-0.876 -7.088,-0.921 -7.088,-0.968 -7.088,-1.014 -7.088,-1.06 -7.088,-1.106 -7.088,-1.152 -7.088,-1.106 -7.087,-1.06 -7.088,-1.014 -7.088,-0.967 -7.088,-0.922 -7.088,-0.876 -7.088,-0.829 -7.088,-0.784 -7.088,-0.737 -7.088,-0.691 -7.088,-0.645 -7.088,-0.599 -7.087,-0.553 -7.088,-0.507 -7.088,-0.461 -7.088,-0.415 -7.088,-0.369 -7.088,-0.322 -7.088,-0.277 -7.088,-0.23 -7.088,-0.184 -7.088,-0.139 -7.088,-0.092 -7.087,-0.046 z"
   style="fill:#f4cae4;fill-opacity:0.4;fill-rule:nonzero;stroke:#f4cae4;stroke-width:1px;stroke-opacity:0.4"
   id="path41" />
                </g>
                <g
   id="m418f94dee0"
   transform="matrix(1,0,0,-1,0,-16.2869)">
                    <path
   d="m 83.196,-160.15 v 5.959 h 7.088 l 7.087,-0.005 7.088,-0.012 7.088,-0.016 7.088,-0.023 7.088,-0.027 7.088,-0.034 7.088,-0.039 7.088,-0.044 7.088,-0.05 7.088,-0.056 7.088,-0.061 7.087,-0.067 7.088,-0.072 7.088,-0.078 7.088,-0.083 7.088,-0.089 7.088,-0.095 7.088,-0.1 7.088,-0.106 7.088,-0.111 7.088,-0.117 7.088,-0.122 7.087,-0.128 7.088,-0.133 7.088,-0.14 7.088,-0.133 7.088,-0.128 7.088,-0.122 7.088,-0.117 7.088,-0.111 7.088,-0.106 7.088,-0.1 7.087,-0.095 7.088,-0.089 7.088,-0.083 7.088,-0.078 7.088,-0.072 7.088,-0.067 7.088,-0.061 7.088,-0.056 7.088,-0.05 7.088,-0.044 7.088,-0.039 7.087,-0.034 7.088,-0.027 7.088,-0.023 7.088,-0.016 7.088,-0.011 7.088,-0.006 h 7.088 v -5.959 h -7.088 l -7.088,0.005 -7.088,0.012 -7.088,0.016 -7.088,0.022 -7.088,0.028 -7.087,0.034 -7.088,0.039 -7.088,0.044 -7.088,0.05 -7.088,0.056 -7.088,0.061 -7.088,0.067 -7.088,0.072 -7.088,0.078 -7.088,0.083 -7.088,0.089 -7.087,0.095 -7.088,0.1 -7.088,0.106 -7.088,0.111 -7.088,0.117 -7.088,0.122 -7.088,0.128 -7.088,0.133 -7.088,0.139 -7.088,0.134 -7.087,0.128 -7.088,0.122 -7.088,0.117 -7.088,0.111 -7.088,0.106 -7.088,0.1 -7.088,0.095 -7.088,0.089 -7.088,0.083 -7.088,0.078 -7.088,0.072 -7.087,0.067 -7.088,0.061 -7.088,0.056 -7.088,0.05 -7.088,0.044 -7.088,0.039 -7.088,0.034 -7.088,0.027 -7.088,0.023 -7.088,0.016 -7.088,0.011 -7.087,0.006 z"
   style="fill:#f4cae4;fill-opacity:0.4;fill-rule:nonzero;stroke:#f4cae4;stroke-width:1px;stroke-opacity:0.4"
   id="path42" />
                </g>
                <g
   id="m1696c7129f"
   transform="matrix(1,0,0,-1,0,-16.2869)">
                    <path
   d="m 83.196,-160.647 v 0.497 h 7.088 l 7.087,-0.048 7.088,-0.097 7.088,-0.146 7.088,-0.194 7.088,-0.242 7.088,-0.291 7.088,-0.339 7.088,-0.388 7.088,-0.436 7.088,-0.485 7.088,-0.533 7.087,-0.581 7.088,-0.631 7.088,-0.678 7.088,-0.727 7.088,-0.776 7.088,-0.823 7.088,-0.873 7.088,-0.921 7.088,-0.969 7.088,-1.018 7.088,-1.066 7.087,-1.115 7.088,-1.163 7.088,-1.212 7.088,-1.163 7.088,-1.115 7.088,-1.066 7.088,-1.018 7.088,-0.969 7.088,-0.921 7.088,-0.873 7.087,-0.823 7.088,-0.776 7.088,-0.727 7.088,-0.679 7.088,-0.63 7.088,-0.581 7.088,-0.533 7.088,-0.485 7.088,-0.436 7.088,-0.388 7.088,-0.339 7.087,-0.291 7.088,-0.242 7.088,-0.194 7.088,-0.146 7.088,-0.097 7.088,-0.048 h 7.088 v -0.497 h -7.088 l -7.088,0.049 -7.088,0.097 -7.088,0.145 -7.088,0.194 -7.088,0.242 -7.087,0.291 -7.088,0.339 -7.088,0.388 -7.088,0.436 -7.088,0.485 -7.088,0.533 -7.088,0.582 -7.088,0.63 -7.088,0.678 -7.088,0.727 -7.088,0.776 -7.087,0.824 -7.088,0.872 -7.088,0.921 -7.088,0.969 -7.088,1.018 -7.088,1.067 -7.088,1.114 -7.088,1.164 -7.088,1.211 -7.088,1.163 -7.087,1.115 -7.088,1.066 -7.088,1.018 -7.088,0.97 -7.088,0.921 -7.088,0.872 -7.088,0.824 -7.088,0.775 -7.088,0.727 -7.088,0.679 -7.088,0.63 -7.087,0.582 -7.088,0.533 -7.088,0.484 -7.088,0.437 -7.088,0.387 -7.088,0.34 -7.088,0.29 -7.088,0.243 -7.088,0.194 -7.088,0.145 -7.088,0.097 -7.087,0.048 z"
   style="fill:#f4cae4;fill-opacity:0.4;fill-rule:nonzero;stroke:#f4cae4;stroke-width:1px;stroke-opacity:0.4"
   id="path43" />
                </g>
                <g
   id="m41bbf288b2"
   transform="matrix(1,0,0,-1,0,-16.2869)">
                    <path
   d="m 83.196,-162.633 v 1.986 h 7.088 l 7.087,-0.077 7.088,-0.154 7.088,-0.231 7.088,-0.308 7.088,-0.386 7.088,-0.462 7.088,-0.54 7.088,-0.616 7.088,-0.694 7.088,-0.77 7.088,-0.848 7.087,-0.925 7.088,-1.002 7.088,-1.079 7.088,-1.156 7.088,-1.233 7.088,-1.31 7.088,-1.388 7.088,-1.464 7.088,-1.541 7.088,-1.619 7.088,-1.696 7.087,-1.772 7.088,-1.85 7.088,-1.927 7.088,-1.849 7.088,-1.773 7.088,-1.696 7.088,-1.618 7.088,-1.541 7.088,-1.465 7.088,-1.387 7.087,-1.31 7.088,-1.233 7.088,-1.156 7.088,-1.079 7.088,-1.002 7.088,-0.925 7.088,-0.848 7.088,-0.771 7.088,-0.693 7.088,-0.617 7.088,-0.539 7.087,-0.463 7.088,-0.385 7.088,-0.308 7.088,-0.232 7.088,-0.154 7.088,-0.077 h 7.088 v -1.986 h -7.088 l -7.088,0.077 -7.088,0.154 -7.088,0.231 -7.088,0.308 -7.088,0.386 -7.087,0.462 -7.088,0.54 -7.088,0.616 -7.088,0.694 -7.088,0.771 -7.088,0.847 -7.088,0.925 -7.088,1.002 -7.088,1.079 -7.088,1.156 -7.088,1.233 -7.087,1.311 -7.088,1.387 -7.088,1.464 -7.088,1.542 -7.088,1.618 -7.088,1.696 -7.088,1.772 -7.088,1.85 -7.088,1.927 -7.088,1.849 -7.087,1.773 -7.088,1.696 -7.088,1.618 -7.088,1.542 -7.088,1.464 -7.088,1.387 -7.088,1.31 -7.088,1.234 -7.088,1.156 -7.088,1.079 -7.088,1.002 -7.087,0.924 -7.088,0.848 -7.088,0.771 -7.088,0.693 -7.088,0.617 -7.088,0.54 -7.088,0.462 -7.088,0.385 -7.088,0.309 -7.088,0.231 -7.088,0.154 -7.087,0.077 z"
   style="fill:#f4cae4;fill-opacity:0.4;fill-rule:nonzero;stroke:#f4cae4;stroke-width:1px;stroke-opacity:0.4"
   id="path44" />
                </g>
                <g
   id="mdefcffae60"
   transform="matrix(1,0,0,-1,0,-16.2869)">
                    <path
   d="m 83.196,-171.075 v 0.497 h 7.088 l 7.087,0.072 7.088,0.145 7.088,0.216 7.088,0.29 7.088,0.361 7.088,0.434 7.088,0.506 7.088,0.579 7.088,0.65 7.088,0.723 7.088,0.796 7.087,0.867 7.088,0.94 7.088,1.012 7.088,1.085 7.088,1.157 7.088,1.229 7.088,1.302 7.088,1.373 7.088,1.446 7.088,1.519 7.088,1.59 7.087,1.663 7.088,1.736 7.088,1.807 7.088,1.736 7.088,1.663 7.088,1.59 7.088,1.519 7.088,1.446 7.088,1.373 7.088,1.302 7.087,1.229 7.088,1.157 7.088,1.084 7.088,1.013 7.088,0.94 7.088,0.867 7.088,0.796 7.088,0.723 7.088,0.65 7.088,0.579 7.088,0.506 7.087,0.434 7.088,0.361 7.088,0.29 7.088,0.216 7.088,0.145 7.088,0.072 h 7.088 v -0.496 h -7.088 l -7.088,-0.073 -7.088,-0.144 -7.088,-0.217 -7.088,-0.289 -7.088,-0.362 -7.087,-0.434 -7.088,-0.506 -7.088,-0.578 -7.088,-0.651 -7.088,-0.723 -7.088,-0.795 -7.088,-0.868 -7.088,-0.94 -7.088,-1.012 -7.088,-1.085 -7.088,-1.157 -7.087,-1.229 -7.088,-1.301 -7.088,-1.374 -7.088,-1.446 -7.088,-1.518 -7.088,-1.591 -7.088,-1.663 -7.088,-1.735 -7.088,-1.808 -7.088,-1.735 -7.087,-1.663 -7.088,-1.591 -7.088,-1.518 -7.088,-1.446 -7.088,-1.374 -7.088,-1.302 -7.088,-1.229 -7.088,-1.157 -7.088,-1.084 -7.088,-1.012 -7.088,-0.94 -7.087,-0.868 -7.088,-0.795 -7.088,-0.723 -7.088,-0.651 -7.088,-0.578 -7.088,-0.507 -7.088,-0.433 -7.088,-0.362 -7.088,-0.289 -7.088,-0.217 -7.088,-0.145 -7.087,-0.072 z"
   style="fill:#1b9e77;fill-opacity:0.4;fill-rule:nonzero;stroke:#1b9e77;stroke-width:1px;stroke-opacity:0.4"
   id="path45" />
                </g>
                <g
   id="m729ff6a5d9"
   transform="matrix(1,0,0,-1,0,-16.2869)">
                    <path
   d="m 83.196,-172.068 v 0.993 h 7.088 l 7.087,0.012 7.088,0.024 7.088,0.036 7.088,0.047 7.088,0.06 7.088,0.071 7.088,0.084 7.088,0.095 7.088,0.107 7.088,0.119 7.088,0.132 7.087,0.143 7.088,0.155 7.088,0.166 7.088,0.179 7.088,0.191 7.088,0.202 7.088,0.215 7.088,0.226 7.088,0.239 7.088,0.25 7.088,0.262 7.087,0.274 7.088,0.286 7.088,0.298 7.088,0.286 7.088,0.275 7.088,0.262 7.088,0.25 7.088,0.238 7.088,0.227 7.088,0.214 7.087,0.203 7.088,0.191 7.088,0.178 7.088,0.167 7.088,0.155 7.088,0.143 7.088,0.131 7.088,0.12 7.088,0.107 7.088,0.095 7.088,0.084 7.087,0.071 7.088,0.06 7.088,0.047 7.088,0.036 7.088,0.024 7.088,0.012 h 7.088 v -0.993 h -7.088 l -7.088,-0.012 -7.088,-0.024 -7.088,-0.036 -7.088,-0.047 -7.088,-0.06 -7.087,-0.072 -7.088,-0.083 -7.088,-0.095 -7.088,-0.108 -7.088,-0.119 -7.088,-0.131 -7.088,-0.143 -7.088,-0.155 -7.088,-0.167 -7.088,-0.179 -7.088,-0.19 -7.087,-0.203 -7.088,-0.214 -7.088,-0.227 -7.088,-0.238 -7.088,-0.25 -7.088,-0.263 -7.088,-0.274 -7.088,-0.286 -7.088,-0.298 -7.088,-0.286 -7.087,-0.274 -7.088,-0.262 -7.088,-0.25 -7.088,-0.239 -7.088,-0.226 -7.088,-0.215 -7.088,-0.202 -7.088,-0.191 -7.088,-0.179 -7.088,-0.167 -7.088,-0.155 -7.087,-0.143 -7.088,-0.131 -7.088,-0.119 -7.088,-0.107 -7.088,-0.095 -7.088,-0.084 -7.088,-0.071 -7.088,-0.06 -7.088,-0.048 -7.088,-0.035 -7.088,-0.024 -7.087,-0.012 z"
   style="fill:#1b9e77;fill-opacity:0.4;fill-rule:nonzero;stroke:#1b9e77;stroke-width:1px;stroke-opacity:0.4"
   id="path46" />
                </g>
                <g
   id="m9cf16c72bf"
   transform="matrix(1,0,0,-1,0,-16.2869)">
                    <path
   d="m 83.196,-182 v 1.986 h 7.088 l 7.087,0.186 7.088,0.372 7.088,0.558 7.088,0.744 7.088,0.929 7.088,1.116 7.088,1.301 7.088,1.488 7.088,1.673 7.088,1.859 7.088,2.045 7.087,2.231 7.088,2.417 7.088,2.603 7.088,2.789 7.088,2.975 7.088,3.161 7.088,3.346 7.088,3.533 7.088,3.718 7.088,3.905 7.088,4.09 7.087,4.276 7.088,4.462 7.088,4.649 7.088,4.462 7.088,4.276 7.088,4.09 7.088,3.905 7.088,3.718 7.088,3.533 7.088,3.346 7.087,3.161 7.088,2.975 7.088,2.789 7.088,2.603 7.088,2.417 7.088,2.231 7.088,2.045 7.088,1.859 7.088,1.673 7.088,1.488 7.088,1.301 7.087,1.116 7.088,0.929 7.088,0.744 7.088,0.558 7.088,0.372 7.088,0.186 h 7.088 v -1.987 h -7.088 l -7.088,-0.186 -7.088,-0.371 -7.088,-0.558 -7.088,-0.744 -7.088,-0.93 -7.087,-1.115 -7.088,-1.302 -7.088,-1.487 -7.088,-1.673 -7.088,-1.86 -7.088,-2.045 -7.088,-2.231 -7.088,-2.417 -7.088,-2.603 -7.088,-2.789 -7.088,-2.974 -7.087,-3.161 -7.088,-3.347 -7.088,-3.532 -7.088,-3.719 -7.088,-3.904 -7.088,-4.09 -7.088,-4.277 -7.088,-4.462 -7.088,-4.648 -7.088,-4.462 -7.087,-4.276 -7.088,-4.091 -7.088,-3.904 -7.088,-3.719 -7.088,-3.532 -7.088,-3.347 -7.088,-3.16 -7.088,-2.975 -7.088,-2.789 -7.088,-2.603 -7.088,-2.417 -7.087,-2.231 -7.088,-2.045 -7.088,-1.859 -7.088,-1.674 -7.088,-1.487 -7.088,-1.302 -7.088,-1.115 -7.088,-0.93 -7.088,-0.743 -7.088,-0.558 -7.088,-0.372 -7.087,-0.186 z"
   style="fill:#cbd5e8;fill-opacity:0.4;fill-rule:nonzero;stroke:#cbd5e8;stroke-width:1px;stroke-opacity:0.4"
   id="path47" />
                </g>
                <g
   id="m12a8136bb6"
   transform="matrix(1,0,0,-1,0,-16.2869)">
                    <path
   d="M 83.196,-182.993 V -182 h 7.088 l 7.087,0.127 7.088,0.254 7.088,0.382 7.088,0.508 7.088,0.636 7.088,0.763 7.088,0.89 7.088,1.017 7.088,1.144 7.088,1.271 7.088,1.398 7.087,1.526 7.088,1.653 7.088,1.779 7.088,1.907 7.088,2.034 7.088,2.161 7.088,2.289 7.088,2.415 7.088,2.543 7.088,2.669 7.088,2.797 7.087,2.924 7.088,3.051 7.088,3.178 7.088,3.051 7.088,2.924 7.088,2.797 7.088,2.67 7.088,2.542 7.088,2.416 7.088,2.288 7.087,2.161 7.088,2.034 7.088,1.907 7.088,1.78 7.088,1.653 7.088,1.525 7.088,1.399 7.088,1.271 7.088,1.144 7.088,1.017 7.088,0.89 7.087,0.763 7.088,0.635 7.088,0.509 7.088,0.381 7.088,0.254 7.088,0.128 h 7.088 v -0.994 h -7.088 l -7.088,-0.127 -7.088,-0.254 -7.088,-0.381 -7.088,-0.509 -7.088,-0.636 -7.087,-0.762 -7.088,-0.89 -7.088,-1.017 -7.088,-1.144 -7.088,-1.272 -7.088,-1.398 -7.088,-1.526 -7.088,-1.652 -7.088,-1.78 -7.088,-1.907 -7.088,-2.034 -7.087,-2.161 -7.088,-2.288 -7.088,-2.416 -7.088,-2.542 -7.088,-2.67 -7.088,-2.797 -7.088,-2.924 -7.088,-3.051 -7.088,-3.178 -7.088,-3.051 -7.087,-2.924 -7.088,-2.797 -7.088,-2.669 -7.088,-2.543 -7.088,-2.415 -7.088,-2.289 -7.088,-2.161 -7.088,-2.034 -7.088,-1.907 -7.088,-1.78 -7.088,-1.652 -7.087,-1.526 -7.088,-1.398 -7.088,-1.271 -7.088,-1.145 -7.088,-1.017 -7.088,-0.89 -7.088,-0.762 -7.088,-0.636 -7.088,-0.508 -7.088,-0.382 -7.088,-0.254 -7.087,-0.127 z"
   style="fill:#cbd5e8;fill-opacity:0.4;fill-rule:nonzero;stroke:#cbd5e8;stroke-width:1px;stroke-opacity:0.4"
   id="path48" />
                </g>
                <g
   id="m322726583f"
   transform="matrix(1,0,0,-1,0,-16.2869)">
                    <path
   d="m 83.196,-187.463 v 4.47 h 7.088 l 7.087,0.091 7.088,0.183 7.088,0.274 7.088,0.366 7.088,0.456 7.088,0.549 7.088,0.639 7.088,0.731 7.088,0.823 7.088,0.913 7.088,1.005 7.087,1.097 7.088,1.188 7.088,1.279 7.088,1.371 7.088,1.462 7.088,1.553 7.088,1.645 7.088,1.736 7.088,1.827 7.088,1.919 7.088,2.01 7.087,2.102 7.088,2.193 7.088,2.284 7.088,2.193 7.088,2.101 7.088,2.011 7.088,1.918 7.088,1.828 7.088,1.736 7.088,1.645 7.087,1.553 7.088,1.462 7.088,1.371 7.088,1.279 7.088,1.188 7.088,1.096 7.088,1.005 7.088,0.914 7.088,0.822 7.088,0.731 7.088,0.64 7.087,0.548 7.088,0.457 7.088,0.366 7.088,0.274 7.088,0.182 7.088,0.092 h 7.088 v -4.47 h -7.088 l -7.088,-0.091 -7.088,-0.183 -7.088,-0.274 -7.088,-0.365 -7.088,-0.457 -7.087,-0.548 -7.088,-0.64 -7.088,-0.731 -7.088,-0.822 -7.088,-0.914 -7.088,-1.005 -7.088,-1.097 -7.088,-1.187 -7.088,-1.28 -7.088,-1.37 -7.088,-1.462 -7.087,-1.554 -7.088,-1.644 -7.088,-1.736 -7.088,-1.828 -7.088,-1.919 -7.088,-2.01 -7.088,-2.101 -7.088,-2.193 -7.088,-2.285 -7.088,-2.193 -7.087,-2.101 -7.088,-2.01 -7.088,-1.919 -7.088,-1.828 -7.088,-1.736 -7.088,-1.644 -7.088,-1.554 -7.088,-1.462 -7.088,-1.37 -7.088,-1.28 -7.088,-1.187 -7.087,-1.097 -7.088,-1.005 -7.088,-0.914 -7.088,-0.822 -7.088,-0.731 -7.088,-0.64 -7.088,-0.548 -7.088,-0.457 -7.088,-0.365 -7.088,-0.274 -7.088,-0.183 -7.087,-0.092 z"
   style="fill:#cbd5e8;fill-opacity:0.4;fill-rule:nonzero;stroke:#cbd5e8;stroke-width:1px;stroke-opacity:0.4"
   id="path49" />
                </g>
                <g
   id="m8814bc9e08"
   transform="matrix(1,0,0,-1,0,-16.2869)">
                    <path
   d="m 83.196,-193.422 v 5.959 h 7.088 l 7.087,0.037 7.088,0.073 7.088,0.11 7.088,0.146 7.088,0.183 7.088,0.219 7.088,0.256 7.088,0.292 7.088,0.329 7.088,0.366 7.088,0.402 7.087,0.438 7.088,0.475 7.088,0.512 7.088,0.548 7.088,0.585 7.088,0.622 7.088,0.657 7.088,0.695 7.088,0.731 7.088,0.767 7.088,0.804 7.087,0.841 7.088,0.877 7.088,0.914 7.088,0.877 7.088,0.841 7.088,0.804 7.088,0.767 7.088,0.731 7.088,0.695 7.088,0.658 7.087,0.621 7.088,0.585 7.088,0.548 7.088,0.512 7.088,0.475 7.088,0.438 7.088,0.402 7.088,0.366 7.088,0.329 7.088,0.292 7.088,0.256 7.087,0.219 7.088,0.183 7.088,0.146 7.088,0.11 7.088,0.073 7.088,0.037 h 7.088 v -5.959 h -7.088 l -7.088,-0.037 -7.088,-0.073 -7.088,-0.11 -7.088,-0.146 -7.088,-0.183 -7.087,-0.219 -7.088,-0.256 -7.088,-0.292 -7.088,-0.329 -7.088,-0.366 -7.088,-0.402 -7.088,-0.438 -7.088,-0.475 -7.088,-0.512 -7.088,-0.548 -7.088,-0.585 -7.087,-0.621 -7.088,-0.658 -7.088,-0.695 -7.088,-0.731 -7.088,-0.767 -7.088,-0.804 -7.088,-0.841 -7.088,-0.877 -7.088,-0.914 -7.088,-0.877 -7.087,-0.841 -7.088,-0.804 -7.088,-0.767 -7.088,-0.731 -7.088,-0.695 -7.088,-0.658 -7.088,-0.621 -7.088,-0.585 -7.088,-0.548 -7.088,-0.512 -7.088,-0.475 -7.087,-0.438 -7.088,-0.402 -7.088,-0.366 -7.088,-0.329 -7.088,-0.292 -7.088,-0.256 -7.088,-0.219 -7.088,-0.183 -7.088,-0.146 -7.088,-0.11 -7.088,-0.073 -7.087,-0.037 z"
   style="fill:#cbd5e8;fill-opacity:0.4;fill-rule:nonzero;stroke:#cbd5e8;stroke-width:1px;stroke-opacity:0.4"
   id="path50" />
                </g>
                <g
   id="mc8a65ead6e"
   transform="matrix(1,0,0,-1,0,-16.2869)">
                    <path
   d="m 83.196,-194.415 v 0.993 h 7.088 l 7.087,0.004 7.088,0.008 7.088,0.012 7.088,0.016 7.088,0.02 7.088,0.024 7.088,0.028 7.088,0.031 7.088,0.036 7.088,0.04 7.088,0.044 7.087,0.047 7.088,0.052 7.088,0.056 7.088,0.059 7.088,0.064 7.088,0.067 7.088,0.072 7.088,0.075 7.088,0.08 7.088,0.083 7.088,0.088 7.087,0.091 7.088,0.095 7.088,0.1 7.088,0.095 7.088,0.091 7.088,0.088 7.088,0.083 7.088,0.08 7.088,0.075 7.088,0.072 7.087,0.067 7.088,0.064 7.088,0.059 7.088,0.056 7.088,0.051 7.088,0.048 7.088,0.044 7.088,0.04 7.088,0.035 7.088,0.032 7.088,0.028 7.087,0.024 7.088,0.02 7.088,0.016 7.088,0.011 7.088,0.008 7.088,0.004 h 7.088 v -0.993 h -7.088 l -7.088,-0.004 -7.088,-0.008 -7.088,-0.012 -7.088,-0.016 -7.088,-0.019 -7.087,-0.024 -7.088,-0.028 -7.088,-0.032 -7.088,-0.036 -7.088,-0.039 -7.088,-0.044 -7.088,-0.048 -7.088,-0.051 -7.088,-0.056 -7.088,-0.06 -7.088,-0.063 -7.087,-0.068 -7.088,-0.071 -7.088,-0.076 -7.088,-0.079 -7.088,-0.084 -7.088,-0.087 -7.088,-0.091 -7.088,-0.096 -7.088,-0.099 -7.088,-0.095 -7.087,-0.092 -7.088,-0.087 -7.088,-0.084 -7.088,-0.079 -7.088,-0.075 -7.088,-0.072 -7.088,-0.067 -7.088,-0.064 -7.088,-0.06 -7.088,-0.055 -7.088,-0.052 -7.087,-0.048 -7.088,-0.043 -7.088,-0.04 -7.088,-0.036 -7.088,-0.032 -7.088,-0.027 -7.088,-0.024 -7.088,-0.02 -7.088,-0.016 -7.088,-0.012 -7.088,-0.008 -7.087,-0.004 z"
   style="fill:#cbd5e8;fill-opacity:0.4;fill-rule:nonzero;stroke:#cbd5e8;stroke-width:1px;stroke-opacity:0.4"
   id="path51" />
                </g>
                <g
   id="md6ef94f4d0"
   transform="matrix(1,0,0,-1,0,-16.2869)">
                    <path
   d="m 83.196,-196.898 v 2.483 h 7.088 l 7.087,-0.026 7.088,-0.052 7.088,-0.079 7.088,-0.105 7.088,-0.131 7.088,-0.157 7.088,-0.184 7.088,-0.21 7.088,-0.236 7.088,-0.262 7.088,-0.288 7.087,-0.315 7.088,-0.341 7.088,-0.367 7.088,-0.393 7.088,-0.42 7.088,-0.445 7.088,-0.472 7.088,-0.499 7.088,-0.524 7.088,-0.551 7.088,-0.576 7.087,-0.603 7.088,-0.63 7.088,-0.655 7.088,-0.63 7.088,-0.603 7.088,-0.576 7.088,-0.551 7.088,-0.524 7.088,-0.499 7.088,-0.472 7.087,-0.445 7.088,-0.42 7.088,-0.393 7.088,-0.367 7.088,-0.341 7.088,-0.315 7.088,-0.288 7.088,-0.262 7.088,-0.236 7.088,-0.21 7.088,-0.184 7.087,-0.157 7.088,-0.131 7.088,-0.105 7.088,-0.079 7.088,-0.052 7.088,-0.026 h 7.088 v -2.483 h -7.088 l -7.088,0.026 -7.088,0.052 -7.088,0.079 -7.088,0.105 -7.088,0.131 -7.087,0.157 -7.088,0.184 -7.088,0.21 -7.088,0.236 -7.088,0.262 -7.088,0.288 -7.088,0.315 -7.088,0.341 -7.088,0.367 -7.088,0.393 -7.088,0.42 -7.087,0.445 -7.088,0.472 -7.088,0.499 -7.088,0.524 -7.088,0.551 -7.088,0.576 -7.088,0.603 -7.088,0.63 -7.088,0.655 -7.088,0.63 -7.087,0.603 -7.088,0.576 -7.088,0.551 -7.088,0.524 -7.088,0.499 -7.088,0.472 -7.088,0.445 -7.088,0.42 -7.088,0.393 -7.088,0.367 -7.088,0.341 -7.087,0.315 -7.088,0.288 -7.088,0.262 -7.088,0.236 -7.088,0.21 -7.088,0.184 -7.088,0.157 -7.088,0.131 -7.088,0.105 -7.088,0.079 -7.088,0.052 -7.087,0.026 z"
   style="fill:#cbd5e8;fill-opacity:0.4;fill-rule:nonzero;stroke:#cbd5e8;stroke-width:1px;stroke-opacity:0.4"
   id="path52" />
                </g>
                <g
   id="ma36f4349ee"
   transform="matrix(1,0,0,-1,0,-16.2869)">
                    <path
   d="m 83.196,-205.34 v 0.497 h 7.088 l 7.087,0.191 7.088,0.383 7.088,0.575 7.088,0.766 7.088,0.957 7.088,1.149 7.088,1.34 7.088,1.532 7.088,1.724 7.088,1.915 7.088,2.106 7.087,2.298 7.088,2.489 7.088,2.681 7.088,2.872 7.088,3.064 7.088,3.255 7.088,3.447 7.088,3.638 7.088,3.83 7.088,4.021 7.088,4.213 7.087,4.404 7.088,4.595 7.088,4.788 7.088,4.595 7.088,4.404 7.088,4.213 7.088,4.021 7.088,3.83 7.088,3.638 7.088,3.447 7.087,3.255 7.088,3.064 7.088,2.872 7.088,2.681 7.088,2.489 7.088,2.298 7.088,2.107 7.088,1.914 7.088,1.724 7.088,1.532 7.088,1.34 7.087,1.149 7.088,0.957 7.088,0.766 7.088,0.575 7.088,0.383 7.088,0.191 h 7.088 v -0.496 h -7.088 l -7.088,-0.192 -7.088,-0.383 -7.088,-0.574 -7.088,-0.766 -7.088,-0.958 -7.087,-1.149 -7.088,-1.34 -7.088,-1.532 -7.088,-1.723 -7.088,-1.915 -7.088,-2.106 -7.088,-2.298 -7.088,-2.49 -7.088,-2.68 -7.088,-2.873 -7.088,-3.063 -7.087,-3.256 -7.088,-3.446 -7.088,-3.639 -7.088,-3.829 -7.088,-4.022 -7.088,-4.212 -7.088,-4.404 -7.088,-4.596 -7.088,-4.787 -7.088,-4.596 -7.087,-4.404 -7.088,-4.213 -7.088,-4.021 -7.088,-3.83 -7.088,-3.638 -7.088,-3.446 -7.088,-3.256 -7.088,-3.064 -7.088,-2.872 -7.088,-2.681 -7.088,-2.489 -7.087,-2.298 -7.088,-2.106 -7.088,-1.915 -7.088,-1.723 -7.088,-1.532 -7.088,-1.341 -7.088,-1.148 -7.088,-0.958 -7.088,-0.766 -7.088,-0.574 -7.088,-0.383 -7.087,-0.192 z"
   style="fill:#a6761d;fill-opacity:0.4;fill-rule:nonzero;stroke:#a6761d;stroke-width:1px;stroke-opacity:0.4"
   id="path53" />
                </g>
                <g
   id="mc5df870a14"
   transform="matrix(1,0,0,-1,0,-16.2869)">
                    <path
   d="m 83.196,-206.333 v 0.993 h 7.088 l 7.087,0.12 7.088,0.24 7.088,0.36 7.088,0.48 7.088,0.6 7.088,0.72 7.088,0.84 7.088,0.959 7.088,1.08 7.088,1.2 7.088,1.32 7.087,1.439 7.088,1.56 7.088,1.68 7.088,1.799 7.088,1.92 7.088,2.04 7.088,2.159 7.088,2.28 7.088,2.399 7.088,2.52 7.088,2.639 7.087,2.76 7.088,2.879 7.088,3 7.088,2.879 7.088,2.759 7.088,2.64 7.088,2.519 7.088,2.4 7.088,2.279 7.088,2.16 7.087,2.04 7.088,1.919 7.088,1.8 7.088,1.68 7.088,1.559 7.088,1.44 7.088,1.32 7.088,1.2 7.088,1.079 7.088,0.96 7.088,0.84 7.087,0.72 7.088,0.6 7.088,0.48 7.088,0.36 7.088,0.239 7.088,0.12 h 7.088 v -0.993 h -7.088 l -7.088,-0.12 -7.088,-0.24 -7.088,-0.36 -7.088,-0.479 -7.088,-0.6 -7.087,-0.72 -7.088,-0.84 -7.088,-0.96 -7.088,-1.08 -7.088,-1.199 -7.088,-1.32 -7.088,-1.44 -7.088,-1.56 -7.088,-1.679 -7.088,-1.8 -7.088,-1.92 -7.087,-2.039 -7.088,-2.16 -7.088,-2.279 -7.088,-2.4 -7.088,-2.519 -7.088,-2.64 -7.088,-2.759 -7.088,-2.88 -7.088,-2.999 -7.088,-2.879 -7.087,-2.76 -7.088,-2.639 -7.088,-2.52 -7.088,-2.399 -7.088,-2.28 -7.088,-2.16 -7.088,-2.039 -7.088,-1.92 -7.088,-1.799 -7.088,-1.68 -7.088,-1.56 -7.087,-1.44 -7.088,-1.319 -7.088,-1.2 -7.088,-1.08 -7.088,-0.96 -7.088,-0.839 -7.088,-0.72 -7.088,-0.6 -7.088,-0.48 -7.088,-0.36 -7.088,-0.24 -7.087,-0.12 z"
   style="fill:#a6761d;fill-opacity:0.4;fill-rule:nonzero;stroke:#a6761d;stroke-width:1px;stroke-opacity:0.4"
   id="path54" />
                </g>
                <g
   id="m1ccf10fb49"
   transform="matrix(1,0,0,-1,0,-16.2869)">
                    <path
   d="m 83.196,-210.802 v 4.469 h 7.088 l 7.087,0.057 7.088,0.115 7.088,0.171 7.088,0.229 7.088,0.286 7.088,0.343 7.088,0.401 7.088,0.458 7.088,0.514 7.088,0.572 7.088,0.63 7.087,0.686 7.088,0.744 7.088,0.801 7.088,0.858 7.088,0.915 7.088,0.973 7.088,1.029 7.088,1.087 7.088,1.145 7.088,1.201 7.088,1.258 7.087,1.316 7.088,1.373 7.088,1.43 7.088,1.373 7.088,1.316 7.088,1.259 7.088,1.201 7.088,1.144 7.088,1.087 7.088,1.03 7.087,0.972 7.088,0.916 7.088,0.858 7.088,0.801 7.088,0.743 7.088,0.687 7.088,0.629 7.088,0.572 7.088,0.515 7.088,0.458 7.088,0.4 7.087,0.343 7.088,0.287 7.088,0.228 7.088,0.172 7.088,0.114 7.088,0.058 h 7.088 v -4.47 h -7.088 l -7.088,-0.057 -7.088,-0.114 -7.088,-0.172 -7.088,-0.229 -7.088,-0.286 -7.087,-0.343 -7.088,-0.401 -7.088,-0.457 -7.088,-0.515 -7.088,-0.572 -7.088,-0.629 -7.088,-0.687 -7.088,-0.744 -7.088,-0.8 -7.088,-0.859 -7.088,-0.915 -7.087,-0.972 -7.088,-1.03 -7.088,-1.087 -7.088,-1.144 -7.088,-1.202 -7.088,-1.258 -7.088,-1.316 -7.088,-1.373 -7.088,-1.43 -7.088,-1.373 -7.087,-1.316 -7.088,-1.258 -7.088,-1.202 -7.088,-1.144 -7.088,-1.087 -7.088,-1.03 -7.088,-0.972 -7.088,-0.915 -7.088,-0.859 -7.088,-0.8 -7.088,-0.744 -7.087,-0.687 -7.088,-0.629 -7.088,-0.572 -7.088,-0.515 -7.088,-0.457 -7.088,-0.401 -7.088,-0.343 -7.088,-0.286 -7.088,-0.229 -7.088,-0.172 -7.088,-0.114 -7.087,-0.057 z"
   style="fill:#a6761d;fill-opacity:0.4;fill-rule:nonzero;stroke:#a6761d;stroke-width:1px;stroke-opacity:0.4"
   id="path55" />
                </g>
                <g
   id="m1909a5f919"
   transform="matrix(1,0,0,-1,0,-16.2869)">
                    <path
   d="m 83.196,-211.299 v 0.497 h 7.088 l 7.087,0.03 7.088,0.06 7.088,0.091 7.088,0.121 7.088,0.151 7.088,0.181 7.088,0.211 7.088,0.242 7.088,0.271 7.088,0.302 7.088,0.332 7.087,0.363 7.088,0.392 7.088,0.423 7.088,0.453 7.088,0.483 7.088,0.513 7.088,0.544 7.088,0.573 7.088,0.604 7.088,0.634 7.088,0.664 7.087,0.695 7.088,0.725 7.088,0.754 7.088,0.725 7.088,0.694 7.088,0.665 7.088,0.634 7.088,0.604 7.088,0.573 7.088,0.544 7.087,0.513 7.088,0.483 7.088,0.453 7.088,0.423 7.088,0.392 7.088,0.362 7.088,0.333 7.088,0.302 7.088,0.271 7.088,0.242 7.088,0.211 7.087,0.181 7.088,0.151 7.088,0.121 7.088,0.091 7.088,0.06 7.088,0.03 h 7.088 v -0.496 h -7.088 l -7.088,-0.031 -7.088,-0.06 -7.088,-0.091 -7.088,-0.12 -7.088,-0.151 -7.087,-0.181 -7.088,-0.212 -7.088,-0.241 -7.088,-0.272 -7.088,-0.302 -7.088,-0.332 -7.088,-0.362 -7.088,-0.393 -7.088,-0.423 -7.088,-0.453 -7.088,-0.483 -7.087,-0.513 -7.088,-0.543 -7.088,-0.574 -7.088,-0.604 -7.088,-0.634 -7.088,-0.664 -7.088,-0.695 -7.088,-0.724 -7.088,-0.755 -7.088,-0.725 -7.087,-0.694 -7.088,-0.664 -7.088,-0.634 -7.088,-0.604 -7.088,-0.574 -7.088,-0.543 -7.088,-0.514 -7.088,-0.483 -7.088,-0.453 -7.088,-0.422 -7.088,-0.393 -7.087,-0.362 -7.088,-0.332 -7.088,-0.302 -7.088,-0.272 -7.088,-0.241 -7.088,-0.212 -7.088,-0.181 -7.088,-0.151 -7.088,-0.121 -7.088,-0.09 -7.088,-0.061 -7.087,-0.03 z"
   style="fill:#a6761d;fill-opacity:0.4;fill-rule:nonzero;stroke:#a6761d;stroke-width:1px;stroke-opacity:0.4"
   id="path56" />
                </g>
                <g
   id="md54e99b276"
   transform="matrix(1,0,0,-1,0,-16.2869)">
                    <path
   d="m 83.196,-211.795 v 0.496 h 7.088 l 7.087,-0.003 7.088,-0.006 7.088,-0.01 7.088,-0.013 7.088,-0.016 7.088,-0.019 7.088,-0.022 7.088,-0.025 7.088,-0.029 7.088,-0.032 7.088,-0.035 7.087,-0.038 7.088,-0.041 7.088,-0.045 7.088,-0.047 7.088,-0.051 7.088,-0.054 7.088,-0.057 7.088,-0.061 7.088,-0.063 7.088,-0.067 7.088,-0.07 7.087,-0.073 7.088,-0.076 7.088,-0.08 7.088,-0.076 7.088,-0.073 7.088,-0.07 7.088,-0.067 7.088,-0.063 7.088,-0.061 7.088,-0.057 7.087,-0.054 7.088,-0.051 7.088,-0.048 7.088,-0.044 7.088,-0.041 7.088,-0.038 7.088,-0.035 7.088,-0.032 7.088,-0.029 7.088,-0.025 7.088,-0.022 7.087,-0.02 7.088,-0.015 7.088,-0.013 7.088,-0.01 7.088,-0.006 7.088,-0.003 h 7.088 v -0.497 h -7.088 l -7.088,0.003 -7.088,0.007 -7.088,0.009 -7.088,0.013 -7.088,0.016 -7.087,0.019 -7.088,0.022 -7.088,0.026 -7.088,0.028 -7.088,0.032 -7.088,0.035 -7.088,0.038 -7.088,0.041 -7.088,0.045 -7.088,0.048 -7.088,0.05 -7.087,0.054 -7.088,0.058 -7.088,0.06 -7.088,0.064 -7.088,0.066 -7.088,0.07 -7.088,0.073 -7.088,0.077 -7.088,0.079 -7.088,0.076 -7.087,0.073 -7.088,0.07 -7.088,0.067 -7.088,0.064 -7.088,0.06 -7.088,0.057 -7.088,0.054 -7.088,0.051 -7.088,0.048 -7.088,0.044 -7.088,0.042 -7.087,0.038 -7.088,0.035 -7.088,0.032 -7.088,0.028 -7.088,0.026 -7.088,0.022 -7.088,0.019 -7.088,0.016 -7.088,0.012 -7.088,0.01 -7.088,0.006 -7.087,0.004 z"
   style="fill:#a6761d;fill-opacity:0.4;fill-rule:nonzero;stroke:#a6761d;stroke-width:1px;stroke-opacity:0.4"
   id="path57" />
                </g>
                <g
   id="m7b843a0bc4"
   transform="matrix(1,0,0,-1,0,-16.2869)">
                    <path
   d="m 83.196,-220.734 v 0.993 h 7.088 l 7.087,0.072 7.088,0.143 7.088,0.214 7.088,0.286 7.088,0.358 7.088,0.429 7.088,0.5 7.088,0.572 7.088,0.644 7.088,0.715 7.088,0.787 7.087,0.858 7.088,0.929 7.088,1.002 7.088,1.072 7.088,1.144 7.088,1.216 7.088,1.287 7.088,1.359 7.088,1.43 7.088,1.502 7.088,1.573 7.087,1.645 7.088,1.716 7.088,1.788 7.088,1.716 7.088,1.644 7.088,1.574 7.088,1.501 7.088,1.431 7.088,1.358 7.088,1.287 7.087,1.216 7.088,1.144 7.088,1.073 7.088,1.001 7.088,0.93 7.088,0.858 7.088,0.786 7.088,0.715 7.088,0.644 7.088,0.572 7.088,0.501 7.087,0.429 7.088,0.357 7.088,0.286 7.088,0.215 7.088,0.143 7.088,0.071 h 7.088 v -0.993 h -7.088 l -7.088,-0.071 -7.088,-0.143 -7.088,-0.215 -7.088,-0.286 -7.088,-0.358 -7.087,-0.429 -7.088,-0.5 -7.088,-0.572 -7.088,-0.644 -7.088,-0.715 -7.088,-0.787 -7.088,-0.858 -7.088,-0.929 -7.088,-1.001 -7.088,-1.073 -7.088,-1.144 -7.087,-1.216 -7.088,-1.287 -7.088,-1.359 -7.088,-1.43 -7.088,-1.502 -7.088,-1.573 -7.088,-1.644 -7.088,-1.717 -7.088,-1.787 -7.088,-1.717 -7.087,-1.644 -7.088,-1.573 -7.088,-1.502 -7.088,-1.43 -7.088,-1.359 -7.088,-1.287 -7.088,-1.216 -7.088,-1.144 -7.088,-1.073 -7.088,-1.001 -7.088,-0.929 -7.087,-0.858 -7.088,-0.787 -7.088,-0.715 -7.088,-0.644 -7.088,-0.572 -7.088,-0.5 -7.088,-0.429 -7.088,-0.358 -7.088,-0.286 -7.088,-0.215 -7.088,-0.143 -7.087,-0.071 z"
   style="fill:#66a61e;fill-opacity:0.4;fill-rule:nonzero;stroke:#66a61e;stroke-width:1px;stroke-opacity:0.4"
   id="path58" />
                </g>
                <g
   id="m3d12533206"
   transform="matrix(1,0,0,-1,0,-16.2869)">
                    <path
   d="m 83.196,-221.231 v 0.497 h 7.088 l 7.087,0.045 7.088,0.091 7.088,0.136 7.088,0.181 7.088,0.226 7.088,0.272 7.088,0.317 7.088,0.362 7.088,0.408 7.088,0.453 7.088,0.498 7.087,0.543 7.088,0.589 7.088,0.634 7.088,0.68 7.088,0.724 7.088,0.77 7.088,0.815 7.088,0.861 7.088,0.906 7.088,0.951 7.088,0.996 7.087,1.042 7.088,1.087 7.088,1.132 7.088,1.087 7.088,1.041 7.088,0.997 7.088,0.951 7.088,0.906 7.088,0.86 7.088,0.815 7.087,0.77 7.088,0.725 7.088,0.679 7.088,0.634 7.088,0.589 7.088,0.544 7.088,0.498 7.088,0.453 7.088,0.407 7.088,0.362 7.088,0.318 7.087,0.271 7.088,0.227 7.088,0.181 7.088,0.136 7.088,0.09 7.088,0.046 h 7.088 v -0.497 h -7.088 l -7.088,-0.045 -7.088,-0.091 -7.088,-0.136 -7.088,-0.181 -7.088,-0.226 -7.087,-0.272 -7.088,-0.317 -7.088,-0.362 -7.088,-0.408 -7.088,-0.453 -7.088,-0.498 -7.088,-0.544 -7.088,-0.588 -7.088,-0.634 -7.088,-0.68 -7.088,-0.724 -7.087,-0.77 -7.088,-0.815 -7.088,-0.861 -7.088,-0.906 -7.088,-0.951 -7.088,-0.996 -7.088,-1.042 -7.088,-1.087 -7.088,-1.132 -7.088,-1.087 -7.087,-1.042 -7.088,-0.996 -7.088,-0.951 -7.088,-0.906 -7.088,-0.86 -7.088,-0.815 -7.088,-0.77 -7.088,-0.725 -7.088,-0.679 -7.088,-0.634 -7.088,-0.589 -7.087,-0.544 -7.088,-0.498 -7.088,-0.453 -7.088,-0.407 -7.088,-0.363 -7.088,-0.317 -7.088,-0.271 -7.088,-0.227 -7.088,-0.181 -7.088,-0.136 -7.088,-0.09 -7.087,-0.046 z"
   style="fill:#66a61e;fill-opacity:0.4;fill-rule:nonzero;stroke:#66a61e;stroke-width:1px;stroke-opacity:0.4"
   id="path59" />
                </g>
                <g
   id="m1355ad95b7"
   transform="matrix(1,0,0,-1,0,-16.2869)">
                    <path
   d="m 83.196,-229.673 v 0.497 h 7.088 l 7.087,0.229 7.088,0.46 7.088,0.689 7.088,0.918 7.088,1.148 7.088,1.378 7.088,1.607 7.088,1.837 7.088,2.067 7.088,2.296 7.088,2.526 7.087,2.756 7.088,2.985 7.088,3.214 7.088,3.445 7.088,3.674 7.088,3.903 7.088,4.134 7.088,4.362 7.088,4.593 7.088,4.822 7.088,5.052 7.087,5.281 7.088,5.511 7.088,5.741 7.088,5.511 7.088,5.281 7.088,5.052 7.088,4.822 7.088,4.592 7.088,4.363 7.088,4.133 7.087,3.904 7.088,3.674 7.088,3.444 7.088,3.215 7.088,2.985 7.088,2.755 7.088,2.526 7.088,2.297 7.088,2.066 7.088,1.837 7.088,1.608 7.087,1.377 7.088,1.148 7.088,0.919 7.088,0.689 7.088,0.459 7.088,0.23 h 7.088 v -0.497 h -7.088 l -7.088,-0.23 -7.088,-0.459 -7.088,-0.689 -7.088,-0.918 -7.088,-1.148 -7.087,-1.378 -7.088,-1.607 -7.088,-1.837 -7.088,-2.067 -7.088,-2.296 -7.088,-2.526 -7.088,-2.756 -7.088,-2.985 -7.088,-3.214 -7.088,-3.445 -7.088,-3.674 -7.087,-3.903 -7.088,-4.134 -7.088,-4.362 -7.088,-4.593 -7.088,-4.822 -7.088,-5.052 -7.088,-5.281 -7.088,-5.511 -7.088,-5.741 -7.088,-5.511 -7.087,-5.281 -7.088,-5.052 -7.088,-4.822 -7.088,-4.592 -7.088,-4.363 -7.088,-4.133 -7.088,-3.904 -7.088,-3.674 -7.088,-3.444 -7.088,-3.215 -7.088,-2.985 -7.087,-2.756 -7.088,-2.525 -7.088,-2.297 -7.088,-2.066 -7.088,-1.837 -7.088,-1.608 -7.088,-1.377 -7.088,-1.148 -7.088,-0.919 -7.088,-0.689 -7.088,-0.459 -7.087,-0.23 z"
   style="fill:#fbb4ae;fill-opacity:0.4;fill-rule:nonzero;stroke:#fbb4ae;stroke-width:1px;stroke-opacity:0.4"
   id="path60" />
                </g>
                <g
   id="m613d09f2e9"
   transform="matrix(1,0,0,-1,0,-16.2869)">
                    <path
   d="m 83.196,-230.169 v 0.496 h 7.088 l 7.087,0.202 7.088,0.404 7.088,0.605 7.088,0.807 7.088,1.009 7.088,1.211 7.088,1.413 7.088,1.615 7.088,1.816 7.088,2.018 7.088,2.22 7.087,2.422 7.088,2.623 7.088,2.826 7.088,3.027 7.088,3.229 7.088,3.431 7.088,3.633 7.088,3.834 7.088,4.036 7.088,4.238 7.088,4.44 7.087,4.642 7.088,4.844 7.088,5.045 7.088,4.844 7.088,4.641 7.088,4.44 7.088,4.238 7.088,4.037 7.088,3.834 7.088,3.633 7.087,3.431 7.088,3.229 7.088,3.027 7.088,2.825 7.088,2.624 7.088,2.422 7.088,2.22 7.088,2.018 7.088,1.816 7.088,1.615 7.088,1.412 7.087,1.211 7.088,1.009 7.088,0.807 7.088,0.606 7.088,0.404 7.088,0.201 h 7.088 v -0.496 h -7.088 l -7.088,-0.202 -7.088,-0.404 -7.088,-0.605 -7.088,-0.807 -7.088,-1.009 -7.087,-1.211 -7.088,-1.413 -7.088,-1.615 -7.088,-1.816 -7.088,-2.018 -7.088,-2.22 -7.088,-2.422 -7.088,-2.623 -7.088,-2.826 -7.088,-3.027 -7.088,-3.229 -7.087,-3.431 -7.088,-3.633 -7.088,-3.834 -7.088,-4.036 -7.088,-4.238 -7.088,-4.44 -7.088,-4.642 -7.088,-4.844 -7.088,-5.045 -7.088,-4.844 -7.087,-4.641 -7.088,-4.44 -7.088,-4.238 -7.088,-4.037 -7.088,-3.834 -7.088,-3.633 -7.088,-3.431 -7.088,-3.229 -7.088,-3.027 -7.088,-2.825 -7.088,-2.624 -7.087,-2.422 -7.088,-2.22 -7.088,-2.018 -7.088,-1.816 -7.088,-1.615 -7.088,-1.412 -7.088,-1.211 -7.088,-1.009 -7.088,-0.807 -7.088,-0.606 -7.088,-0.404 -7.087,-0.201 z"
   style="fill:#fbb4ae;fill-opacity:0.4;fill-rule:nonzero;stroke:#fbb4ae;stroke-width:1px;stroke-opacity:0.4"
   id="path61" />
                </g>
                <g
   id="m31b367954a"
   transform="matrix(1,0,0,-1,0,-16.2869)">
                    <path
   d="m 83.196,-230.666 v 0.497 h 7.088 l 7.087,0.158 7.088,0.316 7.088,0.474 7.088,0.633 7.088,0.79 7.088,0.949 7.088,1.107 7.088,1.265 7.088,1.423 7.088,1.581 7.088,1.739 7.087,1.898 7.088,2.055 7.088,2.214 7.088,2.371 7.088,2.53 7.088,2.688 7.088,2.846 7.088,3.004 7.088,3.163 7.088,3.32 7.088,3.479 7.087,3.636 7.088,3.795 7.088,3.953 7.088,3.795 7.088,3.636 7.088,3.479 7.088,3.32 7.088,3.163 7.088,3.004 7.088,2.846 7.087,2.688 7.088,2.53 7.088,2.371 7.088,2.214 7.088,2.055 7.088,1.898 7.088,1.739 7.088,1.581 7.088,1.423 7.088,1.265 7.088,1.107 7.087,0.949 7.088,0.79 7.088,0.633 7.088,0.474 7.088,0.316 7.088,0.158 h 7.088 v -0.496 h -7.088 l -7.088,-0.158 -7.088,-0.317 -7.088,-0.474 -7.088,-0.632 -7.088,-0.791 -7.087,-0.949 -7.088,-1.107 -7.088,-1.264 -7.088,-1.423 -7.088,-1.582 -7.088,-1.739 -7.088,-1.897 -7.088,-2.056 -7.088,-2.213 -7.088,-2.372 -7.088,-2.53 -7.087,-2.688 -7.088,-2.846 -7.088,-3.004 -7.088,-3.162 -7.088,-3.321 -7.088,-3.478 -7.088,-3.637 -7.088,-3.795 -7.088,-3.953 -7.088,-3.794 -7.087,-3.637 -7.088,-3.478 -7.088,-3.321 -7.088,-3.162 -7.088,-3.004 -7.088,-2.846 -7.088,-2.688 -7.088,-2.53 -7.088,-2.372 -7.088,-2.213 -7.088,-2.056 -7.087,-1.897 -7.088,-1.74 -7.088,-1.581 -7.088,-1.423 -7.088,-1.265 -7.088,-1.107 -7.088,-0.948 -7.088,-0.791 -7.088,-0.632 -7.088,-0.475 -7.088,-0.316 -7.087,-0.158 z"
   style="fill:#fbb4ae;fill-opacity:0.4;fill-rule:nonzero;stroke:#fbb4ae;stroke-width:1px;stroke-opacity:0.4"
   id="path62" />
                </g>
                <g
   id="m62a49ac320"
   transform="matrix(1,0,0,-1,0,-16.2869)">
                    <path
   d="m 83.196,-233.645 v 2.979 h 7.088 l 7.087,0.087 7.088,0.175 7.088,0.262 7.088,0.35 7.088,0.437 7.088,0.524 7.088,0.612 7.088,0.699 7.088,0.787 7.088,0.874 7.088,0.961 7.087,1.049 7.088,1.136 7.088,1.224 7.088,1.311 7.088,1.398 7.088,1.486 7.088,1.573 7.088,1.661 7.088,1.748 7.088,1.835 7.088,1.923 7.087,2.01 7.088,2.098 7.088,2.185 7.088,2.098 7.088,2.01 7.088,1.923 7.088,1.835 7.088,1.748 7.088,1.661 7.088,1.573 7.087,1.486 7.088,1.398 7.088,1.311 7.088,1.224 7.088,1.136 7.088,1.049 7.088,0.961 7.088,0.874 7.088,0.787 7.088,0.699 7.088,0.612 7.087,0.524 7.088,0.437 7.088,0.35 7.088,0.262 7.088,0.175 7.088,0.087 h 7.088 v -2.979 h -7.088 l -7.088,-0.088 -7.088,-0.175 -7.088,-0.262 -7.088,-0.349 -7.088,-0.437 -7.087,-0.525 -7.088,-0.612 -7.088,-0.699 -7.088,-0.786 -7.088,-0.874 -7.088,-0.962 -7.088,-1.049 -7.088,-1.136 -7.088,-1.223 -7.088,-1.311 -7.088,-1.399 -7.087,-1.486 -7.088,-1.573 -7.088,-1.66 -7.088,-1.748 -7.088,-1.836 -7.088,-1.923 -7.088,-2.01 -7.088,-2.097 -7.088,-2.185 -7.088,-2.098 -7.087,-2.01 -7.088,-1.923 -7.088,-1.835 -7.088,-1.748 -7.088,-1.661 -7.088,-1.573 -7.088,-1.486 -7.088,-1.398 -7.088,-1.311 -7.088,-1.224 -7.088,-1.136 -7.087,-1.049 -7.088,-0.961 -7.088,-0.874 -7.088,-0.787 -7.088,-0.699 -7.088,-0.612 -7.088,-0.524 -7.088,-0.437 -7.088,-0.35 -7.088,-0.262 -7.088,-0.175 -7.087,-0.087 z"
   style="fill:#fbb4ae;fill-opacity:0.4;fill-rule:nonzero;stroke:#fbb4ae;stroke-width:1px;stroke-opacity:0.4"
   id="path63" />
                </g>
                <g
   id="ma6eff6168a"
   transform="matrix(1,0,0,-1,0,-16.2869)">
                    <path
   d="m 83.196,-237.122 v 3.477 h 7.088 l 7.087,0.065 7.088,0.13 7.088,0.195 7.088,0.261 7.088,0.326 7.088,0.391 7.088,0.456 7.088,0.521 7.088,0.586 7.088,0.652 7.088,0.717 7.087,0.781 7.088,0.847 7.088,0.913 7.088,0.977 7.088,1.042 7.088,1.108 7.088,1.173 7.088,1.238 7.088,1.303 7.088,1.368 7.088,1.433 7.087,1.499 7.088,1.563 7.088,1.629 7.088,1.564 7.088,1.498 7.088,1.434 7.088,1.368 7.088,1.303 7.088,1.238 7.088,1.173 7.087,1.107 7.088,1.043 7.088,0.977 7.088,0.912 7.088,0.847 7.088,0.782 7.088,0.717 7.088,0.651 7.088,0.587 7.088,0.521 7.088,0.456 7.087,0.391 7.088,0.325 7.088,0.261 7.088,0.196 7.088,0.13 7.088,0.065 h 7.088 v -3.476 h -7.088 l -7.088,-0.065 -7.088,-0.131 -7.088,-0.195 -7.088,-0.261 -7.088,-0.325 -7.087,-0.391 -7.088,-0.456 -7.088,-0.522 -7.088,-0.586 -7.088,-0.652 -7.088,-0.716 -7.088,-0.782 -7.088,-0.847 -7.088,-0.912 -7.088,-0.977 -7.088,-1.043 -7.087,-1.108 -7.088,-1.172 -7.088,-1.238 -7.088,-1.303 -7.088,-1.368 -7.088,-1.434 -7.088,-1.498 -7.088,-1.564 -7.088,-1.629 -7.088,-1.563 -7.087,-1.499 -7.088,-1.433 -7.088,-1.369 -7.088,-1.303 -7.088,-1.237 -7.088,-1.173 -7.088,-1.108 -7.088,-1.042 -7.088,-0.978 -7.088,-0.912 -7.088,-0.847 -7.087,-0.782 -7.088,-0.716 -7.088,-0.652 -7.088,-0.586 -7.088,-0.521 -7.088,-0.456 -7.088,-0.391 -7.088,-0.326 -7.088,-0.261 -7.088,-0.195 -7.088,-0.13 -7.087,-0.066 z"
   style="fill:#fbb4ae;fill-opacity:0.4;fill-rule:nonzero;stroke:#fbb4ae;stroke-width:1px;stroke-opacity:0.4"
   id="path64" />
                </g>
                <g
   id="mbe38e08124"
   transform="matrix(1,0,0,-1,0,-16.2869)">
                    <path
   d="m 83.196,-238.611 v 1.489 h 7.088 l 7.087,0.038 7.088,0.074 7.088,0.112 7.088,0.15 7.088,0.187 7.088,0.224 7.088,0.261 7.088,0.299 7.088,0.336 7.088,0.373 7.088,0.411 7.087,0.448 7.088,0.486 7.088,0.522 7.088,0.561 7.088,0.597 7.088,0.635 7.088,0.672 7.088,0.71 7.088,0.747 7.088,0.784 7.088,0.821 7.087,0.859 7.088,0.896 7.088,0.934 7.088,0.896 7.088,0.859 7.088,0.822 7.088,0.784 7.088,0.747 7.088,0.709 7.088,0.673 7.087,0.634 7.088,0.598 7.088,0.56 7.088,0.523 7.088,0.485 7.088,0.449 7.088,0.41 7.088,0.374 7.088,0.336 7.088,0.299 7.088,0.261 7.087,0.224 7.088,0.187 7.088,0.149 7.088,0.112 7.088,0.075 7.088,0.037 h 7.088 v -1.49 h -7.088 l -7.088,-0.037 -7.088,-0.075 -7.088,-0.112 -7.088,-0.149 -7.088,-0.187 -7.087,-0.224 -7.088,-0.261 -7.088,-0.299 -7.088,-0.336 -7.088,-0.373 -7.088,-0.411 -7.088,-0.448 -7.088,-0.486 -7.088,-0.523 -7.088,-0.56 -7.088,-0.597 -7.087,-0.635 -7.088,-0.672 -7.088,-0.71 -7.088,-0.747 -7.088,-0.784 -7.088,-0.822 -7.088,-0.858 -7.088,-0.897 -7.088,-0.933 -7.088,-0.897 -7.087,-0.858 -7.088,-0.822 -7.088,-0.784 -7.088,-0.747 -7.088,-0.71 -7.088,-0.672 -7.088,-0.635 -7.088,-0.597 -7.088,-0.56 -7.088,-0.523 -7.088,-0.486 -7.087,-0.448 -7.088,-0.41 -7.088,-0.374 -7.088,-0.336 -7.088,-0.299 -7.088,-0.261 -7.088,-0.224 -7.088,-0.187 -7.088,-0.149 -7.088,-0.112 -7.088,-0.075 -7.087,-0.037 z"
   style="fill:#fbb4ae;fill-opacity:0.4;fill-rule:nonzero;stroke:#fbb4ae;stroke-width:1px;stroke-opacity:0.4"
   id="path65" />
                </g>
                <g
   id="mb6ae0f8c55"
   transform="matrix(1,0,0,-1,0,-16.2869)">
                    <path
   d="m 83.196,-247.053 v 0.496 h 7.088 l 7.087,0.108 7.088,0.216 7.088,0.325 7.088,0.432 7.088,0.54 7.088,0.648 7.088,0.757 7.088,0.864 7.088,0.973 7.088,1.08 7.088,1.189 7.087,1.297 7.088,1.404 7.088,1.513 7.088,1.621 7.088,1.729 7.088,1.837 7.088,1.945 7.088,2.053 7.088,2.161 7.088,2.27 7.088,2.377 7.087,2.485 7.088,2.594 7.088,2.701 7.088,2.593 7.088,2.486 7.088,2.377 7.088,2.269 7.088,2.161 7.088,2.054 7.088,1.945 7.087,1.837 7.088,1.729 7.088,1.62 7.088,1.513 7.088,1.405 7.088,1.297 7.088,1.188 7.088,1.081 7.088,0.972 7.088,0.865 7.088,0.756 7.087,0.649 7.088,0.54 7.088,0.432 7.088,0.324 7.088,0.216 7.088,0.109 h 7.088 v -0.497 h -7.088 l -7.088,-0.108 -7.088,-0.216 -7.088,-0.324 -7.088,-0.433 -7.088,-0.54 -7.087,-0.648 -7.088,-0.757 -7.088,-0.864 -7.088,-0.973 -7.088,-1.08 -7.088,-1.189 -7.088,-1.297 -7.088,-1.404 -7.088,-1.513 -7.088,-1.621 -7.088,-1.729 -7.087,-1.837 -7.088,-1.945 -7.088,-2.053 -7.088,-2.161 -7.088,-2.269 -7.088,-2.378 -7.088,-2.485 -7.088,-2.594 -7.088,-2.701 -7.088,-2.593 -7.087,-2.486 -7.088,-2.377 -7.088,-2.269 -7.088,-2.161 -7.088,-2.053 -7.088,-1.946 -7.088,-1.836 -7.088,-1.729 -7.088,-1.621 -7.088,-1.513 -7.088,-1.405 -7.087,-1.297 -7.088,-1.188 -7.088,-1.081 -7.088,-0.972 -7.088,-0.865 -7.088,-0.756 -7.088,-0.649 -7.088,-0.54 -7.088,-0.432 -7.088,-0.324 -7.088,-0.216 -7.087,-0.108 z"
   style="fill:#fff2ae;fill-opacity:0.4;fill-rule:nonzero;stroke:#fff2ae;stroke-width:1px;stroke-opacity:0.4"
   id="path66" />
                </g>
                <g
   id="m9696f4ab7e"
   transform="matrix(1,0,0,-1,0,-16.2869)">
                    <path
   d="m 83.196,-257.482 v 10.429 h 7.088 l 7.087,0.05 7.088,0.102 7.088,0.153 7.088,0.203 7.088,0.254 7.088,0.305 7.088,0.356 7.088,0.407 7.088,0.458 7.088,0.508 7.088,0.56 7.087,0.61 7.088,0.661 7.088,0.712 7.088,0.763 7.088,0.813 7.088,0.865 7.088,0.915 7.088,0.966 7.088,1.017 7.088,1.068 7.088,1.119 7.087,1.169 7.088,1.221 7.088,1.271 7.088,1.221 7.088,1.169 7.088,1.119 7.088,1.068 7.088,1.017 7.088,0.966 7.088,0.915 7.087,0.865 7.088,0.813 7.088,0.763 7.088,0.712 7.088,0.661 7.088,0.61 7.088,0.56 7.088,0.508 7.088,0.458 7.088,0.407 7.088,0.356 7.087,0.305 7.088,0.254 7.088,0.203 7.088,0.153 7.088,0.102 7.088,0.05 h 7.088 V -225.7 h -7.088 l -7.088,-0.051 -7.088,-0.102 -7.088,-0.152 -7.088,-0.204 -7.088,-0.254 -7.087,-0.305 -7.088,-0.356 -7.088,-0.407 -7.088,-0.457 -7.088,-0.509 -7.088,-0.559 -7.088,-0.61 -7.088,-0.661 -7.088,-0.712 -7.088,-0.763 -7.088,-0.814 -7.087,-0.864 -7.088,-0.916 -7.088,-0.966 -7.088,-1.017 -7.088,-1.068 -7.088,-1.118 -7.088,-1.17 -7.088,-1.22 -7.088,-1.272 -7.088,-1.22 -7.087,-1.17 -7.088,-1.118 -7.088,-1.068 -7.088,-1.017 -7.088,-0.966 -7.088,-0.916 -7.088,-0.864 -7.088,-0.814 -7.088,-0.762 -7.088,-0.712 -7.088,-0.661 -7.087,-0.611 -7.088,-0.559 -7.088,-0.509 -7.088,-0.457 -7.088,-0.407 -7.088,-0.356 -7.088,-0.305 -7.088,-0.254 -7.088,-0.204 -7.088,-0.152 -7.088,-0.102 -7.087,-0.051 z"
   style="fill:#fff2ae;fill-opacity:0.4;fill-rule:nonzero;stroke:#fff2ae;stroke-width:1px;stroke-opacity:0.4"
   id="path67" />
                </g>
                <g
   transform="translate(57.2141,26.3754)"
   id="g67">
                    <text
   x="-36.679001"
   y="0"
   style="font-size:11px;font-family:ArialMT, Arial"
   id="text67">Flatiron</text>
                </g>
                <g
   transform="translate(57.2141,55.1776)"
   id="g68">
                    <text
   x="-36.873001"
   y="0"
   style="font-size:11px;font-family:ArialMT, Arial"
   id="text68">T<tspan
   x="-30.562 -26.898001"
   y="0 0"
   id="tspan67">ri</tspan>NetX</text>
                </g>
                <g
   transform="translate(57.2141,69.0214)"
   id="g69">
                    <text
   x="-33.623001"
   y="0"
   style="font-size:11px;font-family:ArialMT, Arial"
   id="text69">Cerner</text>
                </g>
                <g
   transform="translate(57.2141,101.735)"
   id="g70">
                    <text
   x="-33.011002"
   y="0"
   style="font-size:11px;font-family:ArialMT, Arial"
   id="text70">Optum</text>
                </g>
                <g
   transform="translate(57.2141,143.013)"
   id="g71">
                    <text
   x="-23.848"
   y="0"
   style="font-size:11px;font-family:ArialMT, Arial"
   id="text71">SAIL</text>
                </g>
                <g
   transform="translate(57.2141,158.904)"
   id="g72">
                    <text
   x="-38.709"
   y="0"
   style="font-size:11px;font-family:ArialMT, Arial"
   id="text72">W<tspan
   x="-28.735001 -21.398001"
   y="0 0"
   id="tspan71">AD</tspan>LS</text>
                </g>
                <g
   transform="translate(57.2141,176.037)"
   id="g73">
                    <text
   x="-32.388"
   y="0"
   style="font-size:11px;font-family:ArialMT, Arial"
   id="text73">VUMC</text>
                </g>
                <g
   transform="translate(57.2141,195.9)"
   id="g74">
                    <text
   x="-19.556"
   y="0"
   style="font-size:11px;font-family:ArialMT, Arial"
   id="text74">IBM</text>
                </g>
                <g
   transform="translate(57.2141,208.067)"
   id="g75">
                    <text
   x="-22.618"
   y="0"
   style="font-size:11px;font-family:ArialMT, Arial"
   id="text75">NPS</text>
                </g>
                <g
   transform="translate(57.2141,221.475)"
   id="g76">
                    <text
   x="-31.167999"
   y="0"
   style="font-size:11px;font-family:ArialMT, Arial"
   id="text76">CPRD</text>
                </g>
                <g
   transform="translate(57.2141,239.6)"
   id="g77">
                    <text
   x="-55.015999"
   y="0"
   style="font-size:11px;font-family:ArialMT, Arial"
   id="text77">SLaM NHS</text>
                </g>
                <g
   transform="translate(544.55,29.2736)"
   id="g78">
                    <text
   x="-74.021004"
   y="0"
   style="font-size:11px;font-family:ArialMT, Arial"
   id="text78">Neoplasms</text>
                </g>
                <g
   transform="translate(594.314,67.183076)"
   id="g79">
                    <text
   x="-122.719"
   y="-7.9999909"
   style="font-size:11px;line-height:0.9;font-family:ArialMT, Arial"
   id="text79"><tspan
     id="tspan5"
     x="-122.719"
     y="-7.9999909"
     style="line-height:0.9">Codes for special purposes </tspan><tspan
     id="tspan6"
     x="-122.719"
     y="1.9000088"
     style="line-height:0.9">(COVID-19)</tspan></text>
                </g>
                <g
   transform="translate(625.614,82.502324)"
   id="g80">
                    <text
   x="-154.758"
   y="0"
   style="font-size:11px;line-height:0.85;font-family:ArialMT, Arial"
   id="text80"><tspan
     id="tspan1"
     x="-154.758"
     y="0"
     style="line-height:0.85">Endocrine, nutritional and </tspan><tspan
     id="tspan2"
     x="-154.758"
     y="9.3500004"
     style="line-height:0.85">metabolic diseases</tspan></text>
                </g>
                <g
   transform="translate(671.259,110.319)"
   id="g81">
                    <text
   x="-200.73"
   y="0"
   style="font-size:11px;font-family:ArialMT, Arial"
   id="text81">Diseases of the circulatory system</text>
                </g>
                <g
   transform="translate(498.601,147.591)"
   id="g82">
                    <text
   x="-27.351999"
   y="0"
   style="font-size:11px;font-family:ArialMT, Arial"
   id="text82">other</text>
                </g>
                <g
   transform="translate(597.589,172.299)"
   id="g83">
                    <text
   x="-126.732"
   y="0"
   style="font-size:11px;line-height:0.85;font-family:ArialMT, Arial;letter-spacing:0px;word-spacing:0px"
   id="text83"><tspan
     id="tspan3"
     x="-126.732"
     y="0"
     style="line-height:0.85;letter-spacing:0px;word-spacing:0px">Certain infectious and parasitic </tspan><tspan
     id="tspan4"
     x="-126.732"
     y="9.3500004"
     style="line-height:0.85;letter-spacing:0px;word-spacing:0px">diseases</tspan></text>
                </g>
                <g
   transform="translate(611.681,202.961)"
   id="g84">
                    <text
   x="-140.086"
   y="0"
   style="font-size:11px;font-family:ArialMT, Arial"
   id="text84">Mental and behavioural disorders</text>
                </g>
                <g
   transform="translate(60.603,-4.64138)"
   id="g85">
                    <text
   x="0"
   y="0"
   style="font-size:11px;font-family:ArialMT, Arial"
   id="text85"><tspan
     style="font-weight:bold"
     id="tspan87">Data source</tspan></text>
                </g>
                <g
   transform="translate(467.272,-4.44606)"
   id="g86">
                    <text
   x="-78.587997"
   y="0"
   style="font-size:11px;font-family:ArialMT, Arial"
   id="text86"><tspan
     style="font-weight:bold"
     id="tspan88">ICD-10 chapter</tspan></text>
                </g>
            </g>
        </g>
    </g>
</svg>
