<?xml version="1.0" encoding="utf-8" standalone="no"?>
<!DOCTYPE svg PUBLIC "-//W3C//DTD SVG 1.1//EN"
  "http://www.w3.org/Graphics/SVG/1.1/DTD/svg11.dtd">
<svg xmlns:xlink="http://www.w3.org/1999/xlink" width="388.476117pt" height="207.69795pt" viewBox="0 0 388.476117 207.69795" xmlns="http://www.w3.org/2000/svg" version="1.1">
 <metadata>
  <rdf:RDF xmlns:dc="http://purl.org/dc/elements/1.1/" xmlns:cc="http://creativecommons.org/ns#" xmlns:rdf="http://www.w3.org/1999/02/22-rdf-syntax-ns#">
   <cc:Work>
    <dc:type rdf:resource="http://purl.org/dc/dcmitype/StillImage"/>
    <dc:date>2024-07-01T12:06:03.505599</dc:date>
    <dc:format>image/svg+xml</dc:format>
    <dc:creator>
     <cc:Agent>
      <dc:title>Matplotlib v3.7.3, https://matplotlib.org/</dc:title>
     </cc:Agent>
    </dc:creator>
   </cc:Work>
  </rdf:RDF>
 </metadata>
 <defs>
  <style type="text/css">*{stroke-linejoin: round; stroke-linecap: butt}</style>
 </defs>
 <g id="figure_1">
  <g id="patch_1">
   <path d="M 0 207.69795 
L 388.476117 207.69795 
L 388.476117 0 
L 0 0 
z
" style="fill: #ffffff"/>
  </g>
  <g id="axes_1">
   <g id="PolyCollection_1">
    <path d="M 81.029213 186.681287 
L 81.029213 193.145223 
L 98.901053 193.145223 
L 98.901053 186.681287 
L 98.901053 186.681287 
L 81.029213 186.681287 
z
" clip-path="url(#pe4fd767127)" style="fill: #fdcdac; fill-opacity: 0.9"/>
   </g>
   <g id="PolyCollection_2">
    <path d="M 81.029213 174.561407 
L 81.029213 181.025343 
L 98.901053 181.025343 
L 98.901053 174.561407 
L 98.901053 174.561407 
L 81.029213 174.561407 
z
" clip-path="url(#pe4fd767127)" style="fill: #f4cae4; fill-opacity: 0.9"/>
   </g>
   <g id="PolyCollection_3">
    <path d="M 81.029213 162.441526 
L 81.029213 168.905462 
L 98.901053 168.905462 
L 98.901053 162.441526 
L 98.901053 162.441526 
L 81.029213 162.441526 
z
" clip-path="url(#pe4fd767127)" style="fill: #f1e2cc; fill-opacity: 0.9"/>
   </g>
   <g id="PolyCollection_4">
    <path d="M 81.029213 150.321646 
L 81.029213 156.785582 
L 98.901053 156.785582 
L 98.901053 150.321646 
L 98.901053 150.321646 
L 81.029213 150.321646 
z
" clip-path="url(#pe4fd767127)" style="fill: #e6f5c9; fill-opacity: 0.9"/>
   </g>
   <g id="PolyCollection_5">
    <path d="M 81.029213 134.969798 
L 81.029213 144.665702 
L 98.901053 144.665702 
L 98.901053 134.969798 
L 98.901053 134.969798 
L 81.029213 134.969798 
z
" clip-path="url(#pe4fd767127)" style="fill: #fff2ae; fill-opacity: 0.9"/>
   </g>
   <g id="PolyCollection_6">
    <path d="M 81.029213 119.61795 
L 81.029213 129.313854 
L 98.901053 129.313854 
L 98.901053 119.61795 
L 98.901053 119.61795 
L 81.029213 119.61795 
z
" clip-path="url(#pe4fd767127)" style="fill: #cbd5e8; fill-opacity: 0.9"/>
   </g>
   <g id="PolyCollection_7">
    <path d="M 81.029213 46.090677 
L 81.029213 113.962006 
L 98.901053 113.962006 
L 98.901053 46.090677 
L 98.901053 46.090677 
L 81.029213 46.090677 
z
" clip-path="url(#pe4fd767127)" style="fill: #b3e2cd; fill-opacity: 0.9"/>
   </g>
   <g id="PolyCollection_8">
    <path d="M 349.106806 186.681287 
L 349.106806 193.145223 
L 366.978645 193.145223 
L 366.978645 186.681287 
L 366.978645 186.681287 
L 349.106806 186.681287 
z
" clip-path="url(#pe4fd767127)" style="fill: #cccccc; fill-opacity: 0.9"/>
   </g>
   <g id="PolyCollection_9">
    <path d="M 349.106806 126.081886 
L 349.106806 181.025343 
L 366.978645 181.025343 
L 366.978645 126.081886 
L 366.978645 126.081886 
L 349.106806 126.081886 
z
" clip-path="url(#pe4fd767127)" style="fill: #cccccc; fill-opacity: 0.9"/>
   </g>
   <g id="PolyCollection_10">
    <path d="M 349.106806 113.962006 
L 349.106806 120.425942 
L 366.978645 120.425942 
L 366.978645 113.962006 
L 366.978645 113.962006 
L 349.106806 113.962006 
z
" clip-path="url(#pe4fd767127)" style="fill: #cccccc; fill-opacity: 0.9"/>
   </g>
   <g id="PolyCollection_11">
    <path d="M 349.106806 98.610158 
L 349.106806 108.306062 
L 366.978645 108.306062 
L 366.978645 98.610158 
L 366.978645 98.610158 
L 349.106806 98.610158 
z
" clip-path="url(#pe4fd767127)" style="fill: #cccccc; fill-opacity: 0.9"/>
   </g>
   <g id="PolyCollection_12">
    <path d="M 349.106806 83.25831 
L 349.106806 92.954214 
L 366.978645 92.954214 
L 366.978645 83.25831 
L 366.978645 83.25831 
L 349.106806 83.25831 
z
" clip-path="url(#pe4fd767127)" style="fill: #cccccc; fill-opacity: 0.9"/>
   </g>
   <g id="PolyCollection_13">
    <path d="M 349.106806 64.674493 
L 349.106806 77.602366 
L 366.978645 77.602366 
L 366.978645 64.674493 
L 366.978645 64.674493 
L 349.106806 64.674493 
z
" clip-path="url(#pe4fd767127)" style="fill: #cccccc; fill-opacity: 0.9"/>
   </g>
   <g id="PolyCollection_14">
    <path d="M 349.106806 46.090677 
L 349.106806 59.018549 
L 366.978645 59.018549 
L 366.978645 46.090677 
L 366.978645 46.090677 
L 349.106806 46.090677 
z
" clip-path="url(#pe4fd767127)" style="fill: #cccccc; fill-opacity: 0.9"/>
   </g>
   <g id="PolyCollection_15">
    <defs>
     <path id="m6c3b073c25" d="M 98.901053 -21.016663 
L 98.901053 -14.552727 
L 103.807048 -14.552727 
L 108.713043 -14.552727 
L 113.619038 -14.552727 
L 118.525034 -14.552727 
L 123.431029 -14.552727 
L 128.337024 -14.552727 
L 133.243019 -14.552727 
L 138.149014 -14.552727 
L 143.055009 -14.552727 
L 147.961004 -14.552727 
L 152.867 -14.552727 
L 157.772995 -14.552727 
L 162.67899 -14.552727 
L 167.584985 -14.552727 
L 172.49098 -14.552727 
L 177.396975 -14.552727 
L 182.302971 -14.552727 
L 187.208966 -14.552727 
L 192.114961 -14.552727 
L 197.020956 -14.552727 
L 201.926951 -14.552727 
L 206.832946 -14.552727 
L 211.738941 -14.552727 
L 216.644937 -14.552727 
L 221.550932 -14.552727 
L 226.456927 -14.552727 
L 231.362922 -14.552727 
L 236.268917 -14.552727 
L 241.174912 -14.552727 
L 246.080908 -14.552727 
L 250.986903 -14.552727 
L 255.892898 -14.552727 
L 260.798893 -14.552727 
L 265.704888 -14.552727 
L 270.610883 -14.552727 
L 275.516878 -14.552727 
L 280.422874 -14.552727 
L 285.328869 -14.552727 
L 290.234864 -14.552727 
L 295.140859 -14.552727 
L 300.046854 -14.552727 
L 304.952849 -14.552727 
L 309.858845 -14.552727 
L 314.76484 -14.552727 
L 319.670835 -14.552727 
L 324.57683 -14.552727 
L 329.482825 -14.552727 
L 334.38882 -14.552727 
L 339.294815 -14.552727 
L 344.200811 -14.552727 
L 349.106806 -14.552727 
L 349.106806 -21.016663 
L 349.106806 -21.016663 
L 344.200811 -21.016663 
L 339.294815 -21.016663 
L 334.38882 -21.016663 
L 329.482825 -21.016663 
L 324.57683 -21.016663 
L 319.670835 -21.016663 
L 314.76484 -21.016663 
L 309.858845 -21.016663 
L 304.952849 -21.016663 
L 300.046854 -21.016663 
L 295.140859 -21.016663 
L 290.234864 -21.016663 
L 285.328869 -21.016663 
L 280.422874 -21.016663 
L 275.516878 -21.016663 
L 270.610883 -21.016663 
L 265.704888 -21.016663 
L 260.798893 -21.016663 
L 255.892898 -21.016663 
L 250.986903 -21.016663 
L 246.080908 -21.016663 
L 241.174912 -21.016663 
L 236.268917 -21.016663 
L 231.362922 -21.016663 
L 226.456927 -21.016663 
L 221.550932 -21.016663 
L 216.644937 -21.016663 
L 211.738941 -21.016663 
L 206.832946 -21.016663 
L 201.926951 -21.016663 
L 197.020956 -21.016663 
L 192.114961 -21.016663 
L 187.208966 -21.016663 
L 182.302971 -21.016663 
L 177.396975 -21.016663 
L 172.49098 -21.016663 
L 167.584985 -21.016663 
L 162.67899 -21.016663 
L 157.772995 -21.016663 
L 152.867 -21.016663 
L 147.961004 -21.016663 
L 143.055009 -21.016663 
L 138.149014 -21.016663 
L 133.243019 -21.016663 
L 128.337024 -21.016663 
L 123.431029 -21.016663 
L 118.525034 -21.016663 
L 113.619038 -21.016663 
L 108.713043 -21.016663 
L 103.807048 -21.016663 
L 98.901053 -21.016663 
z
" style="stroke: #fdcdac; stroke-opacity: 0.4; stroke-width: 0.5"/>
    </defs>
    <g clip-path="url(#pe4fd767127)">
     <use xlink:href="#m6c3b073c25" x="0" y="207.69795" style="fill: #fdcdac; fill-opacity: 0.4; stroke: #fdcdac; stroke-opacity: 0.4; stroke-width: 0.5"/>
    </g>
   </g>
   <g id="PolyCollection_16">
    <defs>
     <path id="mcf811b6fe0" d="M 98.901053 -33.136543 
L 98.901053 -26.672607 
L 103.807048 -26.672607 
L 108.713043 -26.672607 
L 113.619038 -26.672607 
L 118.525034 -26.672607 
L 123.431029 -26.672607 
L 128.337024 -26.672607 
L 133.243019 -26.672607 
L 138.149014 -26.672607 
L 143.055009 -26.672607 
L 147.961004 -26.672607 
L 152.867 -26.672607 
L 157.772995 -26.672607 
L 162.67899 -26.672607 
L 167.584985 -26.672607 
L 172.49098 -26.672607 
L 177.396975 -26.672607 
L 182.302971 -26.672607 
L 187.208966 -26.672607 
L 192.114961 -26.672607 
L 197.020956 -26.672607 
L 201.926951 -26.672607 
L 206.832946 -26.672607 
L 211.738941 -26.672607 
L 216.644937 -26.672607 
L 221.550932 -26.672607 
L 226.456927 -26.672607 
L 231.362922 -26.672607 
L 236.268917 -26.672607 
L 241.174912 -26.672607 
L 246.080908 -26.672607 
L 250.986903 -26.672607 
L 255.892898 -26.672607 
L 260.798893 -26.672607 
L 265.704888 -26.672607 
L 270.610883 -26.672607 
L 275.516878 -26.672607 
L 280.422874 -26.672607 
L 285.328869 -26.672607 
L 290.234864 -26.672607 
L 295.140859 -26.672607 
L 300.046854 -26.672607 
L 304.952849 -26.672607 
L 309.858845 -26.672607 
L 314.76484 -26.672607 
L 319.670835 -26.672607 
L 324.57683 -26.672607 
L 329.482825 -26.672607 
L 334.38882 -26.672607 
L 339.294815 -26.672607 
L 344.200811 -26.672607 
L 349.106806 -26.672607 
L 349.106806 -33.136543 
L 349.106806 -33.136543 
L 344.200811 -33.136543 
L 339.294815 -33.136543 
L 334.38882 -33.136543 
L 329.482825 -33.136543 
L 324.57683 -33.136543 
L 319.670835 -33.136543 
L 314.76484 -33.136543 
L 309.858845 -33.136543 
L 304.952849 -33.136543 
L 300.046854 -33.136543 
L 295.140859 -33.136543 
L 290.234864 -33.136543 
L 285.328869 -33.136543 
L 280.422874 -33.136543 
L 275.516878 -33.136543 
L 270.610883 -33.136543 
L 265.704888 -33.136543 
L 260.798893 -33.136543 
L 255.892898 -33.136543 
L 250.986903 -33.136543 
L 246.080908 -33.136543 
L 241.174912 -33.136543 
L 236.268917 -33.136543 
L 231.362922 -33.136543 
L 226.456927 -33.136543 
L 221.550932 -33.136543 
L 216.644937 -33.136543 
L 211.738941 -33.136543 
L 206.832946 -33.136543 
L 201.926951 -33.136543 
L 197.020956 -33.136543 
L 192.114961 -33.136543 
L 187.208966 -33.136543 
L 182.302971 -33.136543 
L 177.396975 -33.136543 
L 172.49098 -33.136543 
L 167.584985 -33.136543 
L 162.67899 -33.136543 
L 157.772995 -33.136543 
L 152.867 -33.136543 
L 147.961004 -33.136543 
L 143.055009 -33.136543 
L 138.149014 -33.136543 
L 133.243019 -33.136543 
L 128.337024 -33.136543 
L 123.431029 -33.136543 
L 118.525034 -33.136543 
L 113.619038 -33.136543 
L 108.713043 -33.136543 
L 103.807048 -33.136543 
L 98.901053 -33.136543 
z
" style="stroke: #f4cae4; stroke-opacity: 0.4; stroke-width: 0.5"/>
    </defs>
    <g clip-path="url(#pe4fd767127)">
     <use xlink:href="#mcf811b6fe0" x="0" y="207.69795" style="fill: #f4cae4; fill-opacity: 0.4; stroke: #f4cae4; stroke-opacity: 0.4; stroke-width: 0.5"/>
    </g>
   </g>
   <g id="PolyCollection_17">
    <defs>
     <path id="m68b31af494" d="M 98.901053 -45.256424 
L 98.901053 -38.792488 
L 103.807048 -38.792488 
L 108.713043 -38.783438 
L 113.619038 -38.765339 
L 118.525034 -38.73819 
L 123.431029 -38.701992 
L 128.337024 -38.656745 
L 133.243019 -38.602448 
L 138.149014 -38.539101 
L 143.055009 -38.466705 
L 147.961004 -38.38526 
L 152.867 -38.294764 
L 157.772995 -38.19522 
L 162.67899 -38.086626 
L 167.584985 -37.968982 
L 172.49098 -37.842289 
L 177.396975 -37.706546 
L 182.302971 -37.561754 
L 187.208966 -37.407912 
L 192.114961 -37.245021 
L 197.020956 -37.073081 
L 201.926951 -36.89209 
L 206.832946 -36.702051 
L 211.738941 -36.502961 
L 216.644937 -36.294823 
L 221.550932 -36.077634 
L 226.456927 -35.851397 
L 231.362922 -35.634208 
L 236.268917 -35.42607 
L 241.174912 -35.22698 
L 246.080908 -35.036941 
L 250.986903 -34.85595 
L 255.892898 -34.68401 
L 260.798893 -34.521119 
L 265.704888 -34.367277 
L 270.610883 -34.222485 
L 275.516878 -34.086742 
L 280.422874 -33.960049 
L 285.328869 -33.842405 
L 290.234864 -33.733811 
L 295.140859 -33.634267 
L 300.046854 -33.543771 
L 304.952849 -33.462326 
L 309.858845 -33.38993 
L 314.76484 -33.326583 
L 319.670835 -33.272286 
L 324.57683 -33.227039 
L 329.482825 -33.190841 
L 334.38882 -33.163692 
L 339.294815 -33.145593 
L 344.200811 -33.136543 
L 349.106806 -33.136543 
L 349.106806 -39.60048 
L 349.106806 -39.60048 
L 344.200811 -39.60048 
L 339.294815 -39.609529 
L 334.38882 -39.627628 
L 329.482825 -39.654777 
L 324.57683 -39.690975 
L 319.670835 -39.736222 
L 314.76484 -39.790519 
L 309.858845 -39.853866 
L 304.952849 -39.926262 
L 300.046854 -40.007707 
L 295.140859 -40.098203 
L 290.234864 -40.197747 
L 285.328869 -40.306341 
L 280.422874 -40.423985 
L 275.516878 -40.550678 
L 270.610883 -40.686421 
L 265.704888 -40.831213 
L 260.798893 -40.985055 
L 255.892898 -41.147946 
L 250.986903 -41.319887 
L 246.080908 -41.500877 
L 241.174912 -41.690916 
L 236.268917 -41.890006 
L 231.362922 -42.098144 
L 226.456927 -42.315333 
L 221.550932 -42.54157 
L 216.644937 -42.758759 
L 211.738941 -42.966897 
L 206.832946 -43.165987 
L 201.926951 -43.356026 
L 197.020956 -43.537017 
L 192.114961 -43.708957 
L 187.208966 -43.871848 
L 182.302971 -44.02569 
L 177.396975 -44.170482 
L 172.49098 -44.306225 
L 167.584985 -44.432918 
L 162.67899 -44.550562 
L 157.772995 -44.659156 
L 152.867 -44.7587 
L 147.961004 -44.849196 
L 143.055009 -44.930641 
L 138.149014 -45.003037 
L 133.243019 -45.066384 
L 128.337024 -45.120681 
L 123.431029 -45.165928 
L 118.525034 -45.202127 
L 113.619038 -45.229275 
L 108.713043 -45.247374 
L 103.807048 -45.256424 
L 98.901053 -45.256424 
z
" style="stroke: #f1e2cc; stroke-opacity: 0.4; stroke-width: 0.5"/>
    </defs>
    <g clip-path="url(#pe4fd767127)">
     <use xlink:href="#m68b31af494" x="0" y="207.69795" style="fill: #f1e2cc; fill-opacity: 0.4; stroke: #f1e2cc; stroke-opacity: 0.4; stroke-width: 0.5"/>
    </g>
   </g>
   <g id="PolyCollection_18">
    <defs>
     <path id="m3f6a0f39b2" d="M 98.901053 -57.376304 
L 98.901053 -50.912368 
L 103.807048 -50.912368 
L 108.713043 -50.894269 
L 113.619038 -50.858071 
L 118.525034 -50.803774 
L 123.431029 -50.731377 
L 128.337024 -50.640882 
L 133.243019 -50.532288 
L 138.149014 -50.405595 
L 143.055009 -50.260803 
L 147.961004 -50.097912 
L 152.867 -49.916921 
L 157.772995 -49.717832 
L 162.67899 -49.500644 
L 167.584985 -49.265357 
L 172.49098 -49.01197 
L 177.396975 -48.740485 
L 182.302971 -48.450901 
L 187.208966 -48.143217 
L 192.114961 -47.817435 
L 197.020956 -47.473554 
L 201.926951 -47.111573 
L 206.832946 -46.731494 
L 211.738941 -46.333315 
L 216.644937 -45.917038 
L 221.550932 -45.482661 
L 226.456927 -45.030186 
L 231.362922 -44.595809 
L 236.268917 -44.179532 
L 241.174912 -43.781353 
L 246.080908 -43.401274 
L 250.986903 -43.039294 
L 255.892898 -42.695412 
L 260.798893 -42.36963 
L 265.704888 -42.061946 
L 270.610883 -41.772362 
L 275.516878 -41.500877 
L 280.422874 -41.24749 
L 285.328869 -41.012203 
L 290.234864 -40.795015 
L 295.140859 -40.595926 
L 300.046854 -40.414935 
L 304.952849 -40.252044 
L 309.858845 -40.107252 
L 314.76484 -39.980559 
L 319.670835 -39.871965 
L 324.57683 -39.78147 
L 329.482825 -39.709074 
L 334.38882 -39.654777 
L 339.294815 -39.618579 
L 344.200811 -39.60048 
L 349.106806 -39.60048 
L 349.106806 -46.064416 
L 349.106806 -46.064416 
L 344.200811 -46.064416 
L 339.294815 -46.082515 
L 334.38882 -46.118713 
L 329.482825 -46.17301 
L 324.57683 -46.245406 
L 319.670835 -46.335901 
L 314.76484 -46.444495 
L 309.858845 -46.571188 
L 304.952849 -46.71598 
L 300.046854 -46.878872 
L 295.140859 -47.059862 
L 290.234864 -47.258951 
L 285.328869 -47.476139 
L 280.422874 -47.711426 
L 275.516878 -47.964813 
L 270.610883 -48.236298 
L 265.704888 -48.525882 
L 260.798893 -48.833566 
L 255.892898 -49.159348 
L 250.986903 -49.50323 
L 246.080908 -49.86521 
L 241.174912 -50.245289 
L 236.268917 -50.643468 
L 231.362922 -51.059745 
L 226.456927 -51.494122 
L 221.550932 -51.946597 
L 216.644937 -52.380974 
L 211.738941 -52.797251 
L 206.832946 -53.19543 
L 201.926951 -53.575509 
L 197.020956 -53.93749 
L 192.114961 -54.281371 
L 187.208966 -54.607153 
L 182.302971 -54.914837 
L 177.396975 -55.204421 
L 172.49098 -55.475906 
L 167.584985 -55.729293 
L 162.67899 -55.96458 
L 157.772995 -56.181768 
L 152.867 -56.380858 
L 147.961004 -56.561848 
L 143.055009 -56.724739 
L 138.149014 -56.869531 
L 133.243019 -56.996224 
L 128.337024 -57.104818 
L 123.431029 -57.195313 
L 118.525034 -57.26771 
L 113.619038 -57.322007 
L 108.713043 -57.358205 
L 103.807048 -57.376304 
L 98.901053 -57.376304 
z
" style="stroke: #e6f5c9; stroke-opacity: 0.4; stroke-width: 0.5"/>
    </defs>
    <g clip-path="url(#pe4fd767127)">
     <use xlink:href="#m3f6a0f39b2" x="0" y="207.69795" style="fill: #e6f5c9; fill-opacity: 0.4; stroke: #e6f5c9; stroke-opacity: 0.4; stroke-width: 0.5"/>
    </g>
   </g>
   <g id="PolyCollection_19">
    <defs>
     <path id="me771c9818a" d="M 98.901053 -72.728152 
L 98.901053 -63.032248 
L 103.807048 -63.032248 
L 108.713043 -63.005099 
L 113.619038 -62.950802 
L 118.525034 -62.869357 
L 123.431029 -62.760762 
L 128.337024 -62.62502 
L 133.243019 -62.462129 
L 138.149014 -62.272089 
L 143.055009 -62.054901 
L 147.961004 -61.810564 
L 152.867 -61.539079 
L 157.772995 -61.240445 
L 162.67899 -60.914662 
L 167.584985 -60.561731 
L 172.49098 -60.181652 
L 177.396975 -59.774424 
L 182.302971 -59.340047 
L 187.208966 -58.878522 
L 192.114961 -58.389849 
L 197.020956 -57.874027 
L 201.926951 -57.331056 
L 206.832946 -56.760937 
L 211.738941 -56.163669 
L 216.644937 -55.539253 
L 221.550932 -54.887688 
L 226.456927 -54.208975 
L 231.362922 -53.55741 
L 236.268917 -52.932994 
L 241.174912 -52.335726 
L 246.080908 -51.765607 
L 250.986903 -51.222637 
L 255.892898 -50.706814 
L 260.798893 -50.218141 
L 265.704888 -49.756616 
L 270.610883 -49.322239 
L 275.516878 -48.915011 
L 280.422874 -48.534932 
L 285.328869 -48.182001 
L 290.234864 -47.856219 
L 295.140859 -47.557585 
L 300.046854 -47.2861 
L 304.952849 -47.041763 
L 309.858845 -46.824574 
L 314.76484 -46.634535 
L 319.670835 -46.471644 
L 324.57683 -46.335901 
L 329.482825 -46.227307 
L 334.38882 -46.145861 
L 339.294815 -46.091564 
L 344.200811 -46.064416 
L 349.106806 -46.064416 
L 349.106806 -55.76032 
L 349.106806 -55.76032 
L 344.200811 -55.76032 
L 339.294815 -55.787468 
L 334.38882 -55.841765 
L 329.482825 -55.923211 
L 324.57683 -56.031805 
L 319.670835 -56.167548 
L 314.76484 -56.330439 
L 309.858845 -56.520479 
L 304.952849 -56.737667 
L 300.046854 -56.982004 
L 295.140859 -57.253489 
L 290.234864 -57.552123 
L 285.328869 -57.877905 
L 280.422874 -58.230836 
L 275.516878 -58.610915 
L 270.610883 -59.018143 
L 265.704888 -59.45252 
L 260.798893 -59.914045 
L 255.892898 -60.402719 
L 250.986903 -60.918541 
L 246.080908 -61.461511 
L 241.174912 -62.03163 
L 236.268917 -62.628898 
L 231.362922 -63.253314 
L 226.456927 -63.904879 
L 221.550932 -64.583592 
L 216.644937 -65.235157 
L 211.738941 -65.859573 
L 206.832946 -66.456841 
L 201.926951 -67.02696 
L 197.020956 -67.569931 
L 192.114961 -68.085753 
L 187.208966 -68.574427 
L 182.302971 -69.035952 
L 177.396975 -69.470328 
L 172.49098 -69.877556 
L 167.584985 -70.257635 
L 162.67899 -70.610566 
L 157.772995 -70.936349 
L 152.867 -71.234983 
L 147.961004 -71.506468 
L 143.055009 -71.750805 
L 138.149014 -71.967993 
L 133.243019 -72.158033 
L 128.337024 -72.320924 
L 123.431029 -72.456667 
L 118.525034 -72.565261 
L 113.619038 -72.646706 
L 108.713043 -72.701003 
L 103.807048 -72.728152 
L 98.901053 -72.728152 
z
" style="stroke: #fff2ae; stroke-opacity: 0.4; stroke-width: 0.5"/>
    </defs>
    <g clip-path="url(#pe4fd767127)">
     <use xlink:href="#me771c9818a" x="0" y="207.69795" style="fill: #fff2ae; fill-opacity: 0.4; stroke: #fff2ae; stroke-opacity: 0.4; stroke-width: 0.5"/>
    </g>
   </g>
   <g id="PolyCollection_20">
    <defs>
     <path id="m30a2311ddb" d="M 98.901053 -88.08 
L 98.901053 -78.384096 
L 103.807048 -78.384096 
L 108.713043 -78.347898 
L 113.619038 -78.275502 
L 118.525034 -78.166908 
L 123.431029 -78.022115 
L 128.337024 -77.841125 
L 133.243019 -77.623937 
L 138.149014 -77.370551 
L 143.055009 -77.080966 
L 147.961004 -76.755184 
L 152.867 -76.393204 
L 157.772995 -75.995025 
L 162.67899 -75.560649 
L 167.584985 -75.090074 
L 172.49098 -74.583301 
L 177.396975 -74.040331 
L 182.302971 -73.461162 
L 187.208966 -72.845795 
L 192.114961 -72.194231 
L 197.020956 -71.506468 
L 201.926951 -70.782507 
L 206.832946 -70.022348 
L 211.738941 -69.225991 
L 216.644937 -68.393436 
L 221.550932 -67.524683 
L 226.456927 -66.619732 
L 231.362922 -65.750979 
L 236.268917 -64.918424 
L 241.174912 -64.122067 
L 246.080908 -63.361908 
L 250.986903 -62.637948 
L 255.892898 -61.950185 
L 260.798893 -61.29862 
L 265.704888 -60.683253 
L 270.610883 -60.104085 
L 275.516878 -59.561114 
L 280.422874 -59.054341 
L 285.328869 -58.583767 
L 290.234864 -58.14939 
L 295.140859 -57.751212 
L 300.046854 -57.389232 
L 304.952849 -57.063449 
L 309.858845 -56.773865 
L 314.76484 -56.520479 
L 319.670835 -56.30329 
L 324.57683 -56.1223 
L 329.482825 -55.977508 
L 334.38882 -55.868914 
L 339.294815 -55.796518 
L 344.200811 -55.76032 
L 349.106806 -55.76032 
L 349.106806 -65.456224 
L 349.106806 -65.456224 
L 344.200811 -65.456224 
L 339.294815 -65.492422 
L 334.38882 -65.564818 
L 329.482825 -65.673412 
L 324.57683 -65.818204 
L 319.670835 -65.999194 
L 314.76484 -66.216383 
L 309.858845 -66.469769 
L 304.952849 -66.759353 
L 300.046854 -67.085136 
L 295.140859 -67.447116 
L 290.234864 -67.845295 
L 285.328869 -68.279671 
L 280.422874 -68.750246 
L 275.516878 -69.257018 
L 270.610883 -69.799989 
L 265.704888 -70.379157 
L 260.798893 -70.994524 
L 255.892898 -71.646089 
L 250.986903 -72.333852 
L 246.080908 -73.057813 
L 241.174912 -73.817971 
L 236.268917 -74.614328 
L 231.362922 -75.446883 
L 226.456927 -76.315636 
L 221.550932 -77.220587 
L 216.644937 -78.08934 
L 211.738941 -78.921895 
L 206.832946 -79.718252 
L 201.926951 -80.478411 
L 197.020956 -81.202372 
L 192.114961 -81.890135 
L 187.208966 -82.5417 
L 182.302971 -83.157066 
L 177.396975 -83.736235 
L 172.49098 -84.279206 
L 167.584985 -84.785978 
L 162.67899 -85.256553 
L 157.772995 -85.690929 
L 152.867 -86.089108 
L 147.961004 -86.451088 
L 143.055009 -86.77687 
L 138.149014 -87.066455 
L 133.243019 -87.319841 
L 128.337024 -87.537029 
L 123.431029 -87.71802 
L 118.525034 -87.862812 
L 113.619038 -87.971406 
L 108.713043 -88.043802 
L 103.807048 -88.08 
L 98.901053 -88.08 
z
" style="stroke: #cbd5e8; stroke-opacity: 0.4; stroke-width: 0.5"/>
    </defs>
    <g clip-path="url(#pe4fd767127)">
     <use xlink:href="#m30a2311ddb" x="0" y="207.69795" style="fill: #cbd5e8; fill-opacity: 0.4; stroke: #cbd5e8; stroke-opacity: 0.4; stroke-width: 0.5"/>
    </g>
   </g>
   <g id="PolyCollection_21">
    <defs>
     <path id="m19937123ec" d="M 98.901053 -109.895784 
L 98.901053 -93.735944 
L 103.807048 -93.735944 
L 108.713043 -93.690697 
L 113.619038 -93.600201 
L 118.525034 -93.464459 
L 123.431029 -93.283469 
L 128.337024 -93.057231 
L 133.243019 -92.785745 
L 138.149014 -92.469013 
L 143.055009 -92.107032 
L 147.961004 -91.699804 
L 152.867 -91.247329 
L 157.772995 -90.749606 
L 162.67899 -90.206635 
L 167.584985 -89.618417 
L 172.49098 -88.984951 
L 177.396975 -88.306238 
L 182.302971 -87.582277 
L 187.208966 -86.813069 
L 192.114961 -85.998613 
L 197.020956 -85.138909 
L 201.926951 -84.233958 
L 206.832946 -83.283759 
L 211.738941 -82.288313 
L 216.644937 -81.24762 
L 221.550932 -80.161678 
L 226.456927 -79.03049 
L 231.362922 -77.944548 
L 236.268917 -76.903855 
L 241.174912 -75.908408 
L 246.080908 -74.95821 
L 250.986903 -74.053259 
L 255.892898 -73.193555 
L 260.798893 -72.379099 
L 265.704888 -71.609891 
L 270.610883 -70.88593 
L 275.516878 -70.207217 
L 280.422874 -69.573751 
L 285.328869 -68.985533 
L 290.234864 -68.442562 
L 295.140859 -67.944839 
L 300.046854 -67.492364 
L 304.952849 -67.085136 
L 309.858845 -66.723155 
L 314.76484 -66.406422 
L 319.670835 -66.134937 
L 324.57683 -65.908699 
L 329.482825 -65.727709 
L 334.38882 -65.591966 
L 339.294815 -65.501471 
L 344.200811 -65.456224 
L 349.106806 -65.456224 
L 349.106806 -81.616064 
L 349.106806 -81.616064 
L 344.200811 -81.616064 
L 339.294815 -81.661311 
L 334.38882 -81.751807 
L 329.482825 -81.887549 
L 324.57683 -82.068539 
L 319.670835 -82.294777 
L 314.76484 -82.566263 
L 309.858845 -82.882995 
L 304.952849 -83.244976 
L 300.046854 -83.652204 
L 295.140859 -84.104679 
L 290.234864 -84.602402 
L 285.328869 -85.145373 
L 280.422874 -85.733591 
L 275.516878 -86.367057 
L 270.610883 -87.04577 
L 265.704888 -87.769731 
L 260.798893 -88.538939 
L 255.892898 -89.353395 
L 250.986903 -90.213099 
L 246.080908 -91.11805 
L 241.174912 -92.068249 
L 236.268917 -93.063695 
L 231.362922 -94.104388 
L 226.456927 -95.19033 
L 221.550932 -96.321518 
L 216.644937 -97.40746 
L 211.738941 -98.448153 
L 206.832946 -99.4436 
L 201.926951 -100.393798 
L 197.020956 -101.298749 
L 192.114961 -102.158453 
L 187.208966 -102.972909 
L 182.302971 -103.742117 
L 177.396975 -104.466078 
L 172.49098 -105.144791 
L 167.584985 -105.778257 
L 162.67899 -106.366475 
L 157.772995 -106.909446 
L 152.867 -107.407169 
L 147.961004 -107.859644 
L 143.055009 -108.266872 
L 138.149014 -108.628853 
L 133.243019 -108.945586 
L 128.337024 -109.217071 
L 123.431029 -109.443309 
L 118.525034 -109.624299 
L 113.619038 -109.760042 
L 108.713043 -109.850537 
L 103.807048 -109.895784 
L 98.901053 -109.895784 
z
" style="stroke: #b3e2cd; stroke-opacity: 0.4; stroke-width: 0.5"/>
    </defs>
    <g clip-path="url(#pe4fd767127)">
     <use xlink:href="#m19937123ec" x="0" y="207.69795" style="fill: #b3e2cd; fill-opacity: 0.4; stroke: #b3e2cd; stroke-opacity: 0.4; stroke-width: 0.5"/>
    </g>
   </g>
   <g id="PolyCollection_22">
    <defs>
     <path id="m2b884740d1" d="M 98.901053 -116.35972 
L 98.901053 -109.895784 
L 103.807048 -109.895784 
L 108.713043 -109.859586 
L 113.619038 -109.78719 
L 118.525034 -109.678596 
L 123.431029 -109.533804 
L 128.337024 -109.352814 
L 133.243019 -109.135625 
L 138.149014 -108.882239 
L 143.055009 -108.592655 
L 147.961004 -108.266872 
L 152.867 -107.904892 
L 157.772995 -107.506713 
L 162.67899 -107.072337 
L 167.584985 -106.601762 
L 172.49098 -106.09499 
L 177.396975 -105.552019 
L 182.302971 -104.972851 
L 187.208966 -104.357484 
L 192.114961 -103.705919 
L 197.020956 -103.018156 
L 201.926951 -102.294195 
L 206.832946 -101.534037 
L 211.738941 -100.73768 
L 216.644937 -99.905125 
L 221.550932 -99.036372 
L 226.456927 -98.131421 
L 231.362922 -97.262668 
L 236.268917 -96.430113 
L 241.174912 -95.633756 
L 246.080908 -94.873597 
L 250.986903 -94.149636 
L 255.892898 -93.461873 
L 260.798893 -92.810308 
L 265.704888 -92.194942 
L 270.610883 -91.615773 
L 275.516878 -91.072802 
L 280.422874 -90.56603 
L 285.328869 -90.095455 
L 290.234864 -89.661079 
L 295.140859 -89.2629 
L 300.046854 -88.90092 
L 304.952849 -88.575138 
L 309.858845 -88.285553 
L 314.76484 -88.032167 
L 319.670835 -87.814979 
L 324.57683 -87.633988 
L 329.482825 -87.489196 
L 334.38882 -87.380602 
L 339.294815 -87.308206 
L 344.200811 -87.272008 
L 349.106806 -87.272008 
L 349.106806 -93.735944 
L 349.106806 -93.735944 
L 344.200811 -93.735944 
L 339.294815 -93.772142 
L 334.38882 -93.844538 
L 329.482825 -93.953132 
L 324.57683 -94.097924 
L 319.670835 -94.278915 
L 314.76484 -94.496103 
L 309.858845 -94.749489 
L 304.952849 -95.039074 
L 300.046854 -95.364856 
L 295.140859 -95.726836 
L 290.234864 -96.125015 
L 285.328869 -96.559391 
L 280.422874 -97.029966 
L 275.516878 -97.536738 
L 270.610883 -98.079709 
L 265.704888 -98.658878 
L 260.798893 -99.274244 
L 255.892898 -99.925809 
L 250.986903 -100.613572 
L 246.080908 -101.337533 
L 241.174912 -102.097692 
L 236.268917 -102.894049 
L 231.362922 -103.726604 
L 226.456927 -104.595357 
L 221.550932 -105.500308 
L 216.644937 -106.369061 
L 211.738941 -107.201616 
L 206.832946 -107.997973 
L 201.926951 -108.758131 
L 197.020956 -109.482092 
L 192.114961 -110.169855 
L 187.208966 -110.82142 
L 182.302971 -111.436787 
L 177.396975 -112.015955 
L 172.49098 -112.558926 
L 167.584985 -113.065698 
L 162.67899 -113.536273 
L 157.772995 -113.97065 
L 152.867 -114.368828 
L 147.961004 -114.730808 
L 143.055009 -115.056591 
L 138.149014 -115.346175 
L 133.243019 -115.599561 
L 128.337024 -115.81675 
L 123.431029 -115.99774 
L 118.525034 -116.142532 
L 113.619038 -116.251126 
L 108.713043 -116.323522 
L 103.807048 -116.35972 
L 98.901053 -116.35972 
z
" style="stroke: #b3e2cd; stroke-opacity: 0.4; stroke-width: 0.5"/>
    </defs>
    <g clip-path="url(#pe4fd767127)">
     <use xlink:href="#m2b884740d1" x="0" y="207.69795" style="fill: #b3e2cd; fill-opacity: 0.4; stroke: #b3e2cd; stroke-opacity: 0.4; stroke-width: 0.5"/>
    </g>
   </g>
   <g id="PolyCollection_23">
    <defs>
     <path id="m1ecc7a972b" d="M 98.901053 -126.055624 
L 98.901053 -116.35972 
L 103.807048 -116.35972 
L 108.713043 -116.332572 
L 113.619038 -116.278275 
L 118.525034 -116.196829 
L 123.431029 -116.088235 
L 128.337024 -115.952492 
L 133.243019 -115.789601 
L 138.149014 -115.599561 
L 143.055009 -115.382373 
L 147.961004 -115.138036 
L 152.867 -114.866551 
L 157.772995 -114.567917 
L 162.67899 -114.242135 
L 167.584985 -113.889204 
L 172.49098 -113.509124 
L 177.396975 -113.101897 
L 182.302971 -112.66752 
L 187.208966 -112.205995 
L 192.114961 -111.717321 
L 197.020956 -111.201499 
L 201.926951 -110.658529 
L 206.832946 -110.08841 
L 211.738941 -109.491142 
L 216.644937 -108.866726 
L 221.550932 -108.215161 
L 226.456927 -107.536448 
L 231.362922 -106.884883 
L 236.268917 -106.260467 
L 241.174912 -105.663199 
L 246.080908 -105.09308 
L 250.986903 -104.550109 
L 255.892898 -104.034287 
L 260.798893 -103.545613 
L 265.704888 -103.084088 
L 270.610883 -102.649712 
L 275.516878 -102.242484 
L 280.422874 -101.862404 
L 285.328869 -101.509474 
L 290.234864 -101.183691 
L 295.140859 -100.885057 
L 300.046854 -100.613572 
L 304.952849 -100.369235 
L 309.858845 -100.152047 
L 314.76484 -99.962007 
L 319.670835 -99.799116 
L 324.57683 -99.663373 
L 329.482825 -99.554779 
L 334.38882 -99.473334 
L 339.294815 -99.419037 
L 344.200811 -99.391888 
L 349.106806 -99.391888 
L 349.106806 -109.087792 
L 349.106806 -109.087792 
L 344.200811 -109.087792 
L 339.294815 -109.114941 
L 334.38882 -109.169238 
L 329.482825 -109.250683 
L 324.57683 -109.359278 
L 319.670835 -109.49502 
L 314.76484 -109.657911 
L 309.858845 -109.847951 
L 304.952849 -110.065139 
L 300.046854 -110.309476 
L 295.140859 -110.580961 
L 290.234864 -110.879595 
L 285.328869 -111.205378 
L 280.422874 -111.558309 
L 275.516878 -111.938388 
L 270.610883 -112.345616 
L 265.704888 -112.779992 
L 260.798893 -113.241518 
L 255.892898 -113.730191 
L 250.986903 -114.246013 
L 246.080908 -114.788984 
L 241.174912 -115.359103 
L 236.268917 -115.956371 
L 231.362922 -116.580787 
L 226.456927 -117.232352 
L 221.550932 -117.911065 
L 216.644937 -118.56263 
L 211.738941 -119.187046 
L 206.832946 -119.784314 
L 201.926951 -120.354433 
L 197.020956 -120.897403 
L 192.114961 -121.413225 
L 187.208966 -121.901899 
L 182.302971 -122.363424 
L 177.396975 -122.797801 
L 172.49098 -123.205029 
L 167.584985 -123.585108 
L 162.67899 -123.938039 
L 157.772995 -124.263821 
L 152.867 -124.562455 
L 147.961004 -124.83394 
L 143.055009 -125.078277 
L 138.149014 -125.295465 
L 133.243019 -125.485505 
L 128.337024 -125.648396 
L 123.431029 -125.784139 
L 118.525034 -125.892733 
L 113.619038 -125.974179 
L 108.713043 -126.028476 
L 103.807048 -126.055624 
L 98.901053 -126.055624 
z
" style="stroke: #b3e2cd; stroke-opacity: 0.4; stroke-width: 0.5"/>
    </defs>
    <g clip-path="url(#pe4fd767127)">
     <use xlink:href="#m1ecc7a972b" x="0" y="207.69795" style="fill: #b3e2cd; fill-opacity: 0.4; stroke: #b3e2cd; stroke-opacity: 0.4; stroke-width: 0.5"/>
    </g>
   </g>
   <g id="PolyCollection_24">
    <defs>
     <path id="mc8be6a4c49" d="M 98.901053 -135.751528 
L 98.901053 -126.055624 
L 103.807048 -126.055624 
L 108.713043 -126.037525 
L 113.619038 -126.001327 
L 118.525034 -125.94703 
L 123.431029 -125.874634 
L 128.337024 -125.784139 
L 133.243019 -125.675545 
L 138.149014 -125.548852 
L 143.055009 -125.40406 
L 147.961004 -125.241168 
L 152.867 -125.060178 
L 157.772995 -124.861089 
L 162.67899 -124.643901 
L 167.584985 -124.408613 
L 172.49098 -124.155227 
L 177.396975 -123.883742 
L 182.302971 -123.594158 
L 187.208966 -123.286474 
L 192.114961 -122.960692 
L 197.020956 -122.61681 
L 201.926951 -122.25483 
L 206.832946 -121.874751 
L 211.738941 -121.476572 
L 216.644937 -121.060295 
L 221.550932 -120.625918 
L 226.456927 -120.173443 
L 231.362922 -119.739066 
L 236.268917 -119.322789 
L 241.174912 -118.92461 
L 246.080908 -118.544531 
L 250.986903 -118.18255 
L 255.892898 -117.838669 
L 260.798893 -117.512886 
L 265.704888 -117.205203 
L 270.610883 -116.915619 
L 275.516878 -116.644133 
L 280.422874 -116.390747 
L 285.328869 -116.15546 
L 290.234864 -115.938272 
L 295.140859 -115.739182 
L 300.046854 -115.558192 
L 304.952849 -115.395301 
L 309.858845 -115.250509 
L 314.76484 -115.123816 
L 319.670835 -115.015222 
L 324.57683 -114.924726 
L 329.482825 -114.85233 
L 334.38882 -114.798033 
L 339.294815 -114.761835 
L 344.200811 -114.743736 
L 349.106806 -114.743736 
L 349.106806 -124.43964 
L 349.106806 -124.43964 
L 344.200811 -124.43964 
L 339.294815 -124.457739 
L 334.38882 -124.493937 
L 329.482825 -124.548234 
L 324.57683 -124.620631 
L 319.670835 -124.711126 
L 314.76484 -124.81972 
L 309.858845 -124.946413 
L 304.952849 -125.091205 
L 300.046854 -125.254096 
L 295.140859 -125.435087 
L 290.234864 -125.634176 
L 285.328869 -125.851364 
L 280.422874 -126.086651 
L 275.516878 -126.340038 
L 270.610883 -126.611523 
L 265.704888 -126.901107 
L 260.798893 -127.208791 
L 255.892898 -127.534573 
L 250.986903 -127.878454 
L 246.080908 -128.240435 
L 241.174912 -128.620514 
L 236.268917 -129.018693 
L 231.362922 -129.43497 
L 226.456927 -129.869347 
L 221.550932 -130.321822 
L 216.644937 -130.756199 
L 211.738941 -131.172476 
L 206.832946 -131.570655 
L 201.926951 -131.950734 
L 197.020956 -132.312714 
L 192.114961 -132.656596 
L 187.208966 -132.982378 
L 182.302971 -133.290062 
L 177.396975 -133.579646 
L 172.49098 -133.851131 
L 167.584985 -134.104518 
L 162.67899 -134.339805 
L 157.772995 -134.556993 
L 152.867 -134.756082 
L 147.961004 -134.937073 
L 143.055009 -135.099964 
L 138.149014 -135.244756 
L 133.243019 -135.371449 
L 128.337024 -135.480043 
L 123.431029 -135.570538 
L 118.525034 -135.642934 
L 113.619038 -135.697231 
L 108.713043 -135.733429 
L 103.807048 -135.751528 
L 98.901053 -135.751528 
z
" style="stroke: #b3e2cd; stroke-opacity: 0.4; stroke-width: 0.5"/>
    </defs>
    <g clip-path="url(#pe4fd767127)">
     <use xlink:href="#mc8be6a4c49" x="0" y="207.69795" style="fill: #b3e2cd; fill-opacity: 0.4; stroke: #b3e2cd; stroke-opacity: 0.4; stroke-width: 0.5"/>
    </g>
   </g>
   <g id="PolyCollection_25">
    <defs>
     <path id="m0888f2b948" d="M 98.901053 -148.679401 
L 98.901053 -135.751528 
L 103.807048 -135.751528 
L 108.713043 -135.742479 
L 113.619038 -135.72438 
L 118.525034 -135.697231 
L 123.431029 -135.661033 
L 128.337024 -135.615786 
L 133.243019 -135.561489 
L 138.149014 -135.498142 
L 143.055009 -135.425746 
L 147.961004 -135.3443 
L 152.867 -135.253805 
L 157.772995 -135.154261 
L 162.67899 -135.045667 
L 167.584985 -134.928023 
L 172.49098 -134.80133 
L 177.396975 -134.665587 
L 182.302971 -134.520795 
L 187.208966 -134.366953 
L 192.114961 -134.204062 
L 197.020956 -134.032121 
L 201.926951 -133.851131 
L 206.832946 -133.661092 
L 211.738941 -133.462002 
L 216.644937 -133.253864 
L 221.550932 -133.036675 
L 226.456927 -132.810438 
L 231.362922 -132.593249 
L 236.268917 -132.385111 
L 241.174912 -132.186021 
L 246.080908 -131.995982 
L 250.986903 -131.814991 
L 255.892898 -131.643051 
L 260.798893 -131.48016 
L 265.704888 -131.326318 
L 270.610883 -131.181526 
L 275.516878 -131.045783 
L 280.422874 -130.91909 
L 285.328869 -130.801446 
L 290.234864 -130.692852 
L 295.140859 -130.593307 
L 300.046854 -130.502812 
L 304.952849 -130.421367 
L 309.858845 -130.348971 
L 314.76484 -130.285624 
L 319.670835 -130.231327 
L 324.57683 -130.18608 
L 329.482825 -130.149881 
L 334.38882 -130.122733 
L 339.294815 -130.104634 
L 344.200811 -130.095584 
L 349.106806 -130.095584 
L 349.106806 -143.023457 
L 349.106806 -143.023457 
L 344.200811 -143.023457 
L 339.294815 -143.032506 
L 334.38882 -143.050605 
L 329.482825 -143.077754 
L 324.57683 -143.113952 
L 319.670835 -143.159199 
L 314.76484 -143.213496 
L 309.858845 -143.276843 
L 304.952849 -143.349239 
L 300.046854 -143.430685 
L 295.140859 -143.52118 
L 290.234864 -143.620724 
L 285.328869 -143.729318 
L 280.422874 -143.846962 
L 275.516878 -143.973655 
L 270.610883 -144.109398 
L 265.704888 -144.25419 
L 260.798893 -144.408032 
L 255.892898 -144.570923 
L 250.986903 -144.742864 
L 246.080908 -144.923854 
L 241.174912 -145.113893 
L 236.268917 -145.312983 
L 231.362922 -145.521121 
L 226.456927 -145.73831 
L 221.550932 -145.964547 
L 216.644937 -146.181736 
L 211.738941 -146.389874 
L 206.832946 -146.588964 
L 201.926951 -146.779003 
L 197.020956 -146.959994 
L 192.114961 -147.131934 
L 187.208966 -147.294825 
L 182.302971 -147.448667 
L 177.396975 -147.593459 
L 172.49098 -147.729202 
L 167.584985 -147.855895 
L 162.67899 -147.973539 
L 157.772995 -148.082133 
L 152.867 -148.181678 
L 147.961004 -148.272173 
L 143.055009 -148.353618 
L 138.149014 -148.426014 
L 133.243019 -148.489361 
L 128.337024 -148.543658 
L 123.431029 -148.588905 
L 118.525034 -148.625104 
L 113.619038 -148.652252 
L 108.713043 -148.670351 
L 103.807048 -148.679401 
L 98.901053 -148.679401 
z
" style="stroke: #b3e2cd; stroke-opacity: 0.4; stroke-width: 0.5"/>
    </defs>
    <g clip-path="url(#pe4fd767127)">
     <use xlink:href="#m0888f2b948" x="0" y="207.69795" style="fill: #b3e2cd; fill-opacity: 0.4; stroke: #b3e2cd; stroke-opacity: 0.4; stroke-width: 0.5"/>
    </g>
   </g>
   <g id="PolyCollection_26">
    <defs>
     <path id="me8efdbb3cb" d="M 98.901053 -161.607273 
L 98.901053 -148.679401 
L 103.807048 -148.679401 
L 108.713043 -148.679401 
L 113.619038 -148.679401 
L 118.525034 -148.679401 
L 123.431029 -148.679401 
L 128.337024 -148.679401 
L 133.243019 -148.679401 
L 138.149014 -148.679401 
L 143.055009 -148.679401 
L 147.961004 -148.679401 
L 152.867 -148.679401 
L 157.772995 -148.679401 
L 162.67899 -148.679401 
L 167.584985 -148.679401 
L 172.49098 -148.679401 
L 177.396975 -148.679401 
L 182.302971 -148.679401 
L 187.208966 -148.679401 
L 192.114961 -148.679401 
L 197.020956 -148.679401 
L 201.926951 -148.679401 
L 206.832946 -148.679401 
L 211.738941 -148.679401 
L 216.644937 -148.679401 
L 221.550932 -148.679401 
L 226.456927 -148.679401 
L 231.362922 -148.679401 
L 236.268917 -148.679401 
L 241.174912 -148.679401 
L 246.080908 -148.679401 
L 250.986903 -148.679401 
L 255.892898 -148.679401 
L 260.798893 -148.679401 
L 265.704888 -148.679401 
L 270.610883 -148.679401 
L 275.516878 -148.679401 
L 280.422874 -148.679401 
L 285.328869 -148.679401 
L 290.234864 -148.679401 
L 295.140859 -148.679401 
L 300.046854 -148.679401 
L 304.952849 -148.679401 
L 309.858845 -148.679401 
L 314.76484 -148.679401 
L 319.670835 -148.679401 
L 324.57683 -148.679401 
L 329.482825 -148.679401 
L 334.38882 -148.679401 
L 339.294815 -148.679401 
L 344.200811 -148.679401 
L 349.106806 -148.679401 
L 349.106806 -161.607273 
L 349.106806 -161.607273 
L 344.200811 -161.607273 
L 339.294815 -161.607273 
L 334.38882 -161.607273 
L 329.482825 -161.607273 
L 324.57683 -161.607273 
L 319.670835 -161.607273 
L 314.76484 -161.607273 
L 309.858845 -161.607273 
L 304.952849 -161.607273 
L 300.046854 -161.607273 
L 295.140859 -161.607273 
L 290.234864 -161.607273 
L 285.328869 -161.607273 
L 280.422874 -161.607273 
L 275.516878 -161.607273 
L 270.610883 -161.607273 
L 265.704888 -161.607273 
L 260.798893 -161.607273 
L 255.892898 -161.607273 
L 250.986903 -161.607273 
L 246.080908 -161.607273 
L 241.174912 -161.607273 
L 236.268917 -161.607273 
L 231.362922 -161.607273 
L 226.456927 -161.607273 
L 221.550932 -161.607273 
L 216.644937 -161.607273 
L 211.738941 -161.607273 
L 206.832946 -161.607273 
L 201.926951 -161.607273 
L 197.020956 -161.607273 
L 192.114961 -161.607273 
L 187.208966 -161.607273 
L 182.302971 -161.607273 
L 177.396975 -161.607273 
L 172.49098 -161.607273 
L 167.584985 -161.607273 
L 162.67899 -161.607273 
L 157.772995 -161.607273 
L 152.867 -161.607273 
L 147.961004 -161.607273 
L 143.055009 -161.607273 
L 138.149014 -161.607273 
L 133.243019 -161.607273 
L 128.337024 -161.607273 
L 123.431029 -161.607273 
L 118.525034 -161.607273 
L 113.619038 -161.607273 
L 108.713043 -161.607273 
L 103.807048 -161.607273 
L 98.901053 -161.607273 
z
" style="stroke: #b3e2cd; stroke-opacity: 0.4; stroke-width: 0.5"/>
    </defs>
    <g clip-path="url(#pe4fd767127)">
     <use xlink:href="#me8efdbb3cb" x="0" y="207.69795" style="fill: #b3e2cd; fill-opacity: 0.4; stroke: #b3e2cd; stroke-opacity: 0.4; stroke-width: 0.5"/>
    </g>
   </g>
   <g id="text_1">
    <text style="font: 10px 'Arial'; text-anchor: end" x="78.348438" y="192.439817" transform="rotate(-0 78.348438 192.439817)">United Kingdom</text>
   </g>
   <g id="text_2">
    <text style="font: 10px 'Arial'; text-anchor: end" x="78.348438" y="180.378531" transform="rotate(-0 78.348438 180.378531)">Taiwan</text>
   </g>
   <g id="text_3">
    <text style="font: 10px 'Arial'; text-anchor: end" x="78.348438" y="168.260994" transform="rotate(-0 78.348438 168.260994)">Germany</text>
   </g>
   <g id="text_4">
    <text style="font: 10px 'Arial'; text-anchor: end" x="78.348438" y="156.138771" transform="rotate(-0 78.348438 156.138771)">France</text>
   </g>
   <g id="text_5">
    <text style="font: 10px 'Arial'; text-anchor: end" x="78.348438" y="142.463844" transform="rotate(-0 78.348438 142.463844)">Spain</text>
   </g>
   <g id="text_6">
    <text style="font: 10px 'Arial'; text-anchor: end" x="78.348438" y="127.051058" transform="rotate(-0 78.348438 127.051058)">Australia</text>
   </g>
   <g id="text_7">
    <text style="font: 10px 'Arial'; text-anchor: end" x="78.348438" y="82.611498" transform="rotate(-0 78.348438 82.611498)">United States</text>
   </g>
   <g id="text_8">
    <text style="font: 10px 'Arial'; text-anchor: end" x="346.42603" y="192.498411" transform="rotate(-0 346.42603 192.498411)">United States</text>
   </g>
   <g id="text_9">
    <text style="font: 10px 'Arial'; text-anchor: end" x="346.42603" y="156.080177" transform="rotate(-0 346.42603 156.080177)">United Kingdom</text>
   </g>
   <g id="text_10">
    <text style="font: 10px 'Arial'; text-anchor: end" x="346.42603" y="119.77913" transform="rotate(-0 346.42603 119.77913)">Netherlands</text>
   </g>
   <g id="text_11">
    <text style="font: 10px 'Arial'; text-anchor: end" x="346.42603" y="106.043266" transform="rotate(-0 346.42603 106.043266)">Japan</text>
   </g>
   <g id="text_12">
    <text style="font: 10px 'Arial'; text-anchor: end" x="346.42603" y="90.693762" transform="rotate(-0 346.42603 90.693762)">Germany</text>
   </g>
   <g id="text_13">
    <text style="font: 10px 'Arial'; text-anchor: end" x="346.42603" y="73.723586" transform="rotate(-0 346.42603 73.723586)">Canada</text>
   </g>
   <g id="text_14">
    <text style="font: 10px 'Arial'; text-anchor: end" x="346.42603" y="55.13977" transform="rotate(-0 346.42603 55.13977)">Switzerland</text>
   </g>
   <g id="text_15">
    <text style="font: 700 10px 'Arial'; text-anchor: start" x="81.029213" y="39.138038" transform="rotate(-0 81.029213 39.138038)">Data origin</text>
   </g>
   <g id="text_16">
    <text style="font: 700 10px 'Arial'; text-anchor: end" x="366.978645" y="39.269288" transform="rotate(-0 366.978645 39.269288)">First author</text>
   </g>
   <g id="text_17">
    <text style="font: 14.4px 'Arial'" transform="translate(66.731742 17.50725)">B</text>
    <text style="font: 14.4px 'Arial'" transform="translate(66.731742 32.73795)"/>
   </g>
  </g>
 </g>
 <defs>
  <clipPath id="pe4fd767127">
   <rect x="66.731742" y="38.73795" width="314.544375" height="161.76"/>
  </clipPath>
 </defs>
</svg>
