<?xml version="1.0" encoding="utf-8" standalone="no"?>
<!DOCTYPE svg PUBLIC "-//W3C//DTD SVG 1.1//EN"
  "http://www.w3.org/Graphics/SVG/1.1/DTD/svg11.dtd">
<svg xmlns:xlink="http://www.w3.org/1999/xlink" width="310.100937pt" height="213.00625pt" viewBox="0 0 310.100937 213.00625" xmlns="http://www.w3.org/2000/svg" version="1.1">
 <metadata>
  <rdf:RDF xmlns:dc="http://purl.org/dc/elements/1.1/" xmlns:cc="http://creativecommons.org/ns#" xmlns:rdf="http://www.w3.org/1999/02/22-rdf-syntax-ns#">
   <cc:Work>
    <dc:type rdf:resource="http://purl.org/dc/dcmitype/StillImage"/>
    <dc:date>2024-07-01T15:57:09.087557</dc:date>
    <dc:format>image/svg+xml</dc:format>
    <dc:creator>
     <cc:Agent>
      <dc:title>Matplotlib v3.7.3, https://matplotlib.org/</dc:title>
     </cc:Agent>
    </dc:creator>
   </cc:Work>
  </rdf:RDF>
 </metadata>
 <defs>
  <style type="text/css">*{stroke-linejoin: round; stroke-linecap: butt}</style>
 </defs>
 <g id="figure_1">
  <g id="patch_1">
   <path d="M 0 213.00625 
L 310.100937 213.00625 
L 310.100937 0 
L 0 0 
z
" style="fill: #ffffff"/>
  </g>
  <g id="axes_1">
   <g id="patch_2">
    <path d="M 51.800938 175.45 
L 302.900938 175.45 
L 302.900938 36.85 
L 51.800938 36.85 
z
" style="fill: #e5e5e5"/>
   </g>
   <g id="matplotlib.axis_1">
    <g id="xtick_1">
     <g id="line2d_1">
      <defs>
       <path id="m78495580a9" d="M 0 0 
L 0 3.5 
" style="stroke: #000000; stroke-width: 0.8"/>
      </defs>
      <g>
       <use xlink:href="#m78495580a9" x="73.590607" y="175.45" style="stroke: #000000; stroke-width: 0.8"/>
      </g>
     </g>
     <g id="text_1">
      <!-- 2018 -->
      <g transform="translate(60.865607 190.048438) scale(0.1 -0.1)">
       <defs>
        <path id="DejaVuSans-32" d="M 1228 531 
L 3431 531 
L 3431 0 
L 469 0 
L 469 531 
Q 828 903 1448 1529 
Q 2069 2156 2228 2338 
Q 2531 2678 2651 2914 
Q 2772 3150 2772 3378 
Q 2772 3750 2511 3984 
Q 2250 4219 1831 4219 
Q 1534 4219 1204 4116 
Q 875 4013 500 3803 
L 500 4441 
Q 881 4594 1212 4672 
Q 1544 4750 1819 4750 
Q 2544 4750 2975 4387 
Q 3406 4025 3406 3419 
Q 3406 3131 3298 2873 
Q 3191 2616 2906 2266 
Q 2828 2175 2409 1742 
Q 1991 1309 1228 531 
z
" transform="scale(0.015625)"/>
        <path id="DejaVuSans-30" d="M 2034 4250 
Q 1547 4250 1301 3770 
Q 1056 3291 1056 2328 
Q 1056 1369 1301 889 
Q 1547 409 2034 409 
Q 2525 409 2770 889 
Q 3016 1369 3016 2328 
Q 3016 3291 2770 3770 
Q 2525 4250 2034 4250 
z
M 2034 4750 
Q 2819 4750 3233 4129 
Q 3647 3509 3647 2328 
Q 3647 1150 3233 529 
Q 2819 -91 2034 -91 
Q 1250 -91 836 529 
Q 422 1150 422 2328 
Q 422 3509 836 4129 
Q 1250 4750 2034 4750 
z
" transform="scale(0.015625)"/>
        <path id="DejaVuSans-31" d="M 794 531 
L 1825 531 
L 1825 4091 
L 703 3866 
L 703 4441 
L 1819 4666 
L 2450 4666 
L 2450 531 
L 3481 531 
L 3481 0 
L 794 0 
L 794 531 
z
" transform="scale(0.015625)"/>
        <path id="DejaVuSans-38" d="M 2034 2216 
Q 1584 2216 1326 1975 
Q 1069 1734 1069 1313 
Q 1069 891 1326 650 
Q 1584 409 2034 409 
Q 2484 409 2743 651 
Q 3003 894 3003 1313 
Q 3003 1734 2745 1975 
Q 2488 2216 2034 2216 
z
M 1403 2484 
Q 997 2584 770 2862 
Q 544 3141 544 3541 
Q 544 4100 942 4425 
Q 1341 4750 2034 4750 
Q 2731 4750 3128 4425 
Q 3525 4100 3525 3541 
Q 3525 3141 3298 2862 
Q 3072 2584 2669 2484 
Q 3125 2378 3379 2068 
Q 3634 1759 3634 1313 
Q 3634 634 3220 271 
Q 2806 -91 2034 -91 
Q 1263 -91 848 271 
Q 434 634 434 1313 
Q 434 1759 690 2068 
Q 947 2378 1403 2484 
z
M 1172 3481 
Q 1172 3119 1398 2916 
Q 1625 2713 2034 2713 
Q 2441 2713 2670 2916 
Q 2900 3119 2900 3481 
Q 2900 3844 2670 4047 
Q 2441 4250 2034 4250 
Q 1625 4250 1398 4047 
Q 1172 3844 1172 3481 
z
" transform="scale(0.015625)"/>
       </defs>
       <use xlink:href="#DejaVuSans-32"/>
       <use xlink:href="#DejaVuSans-30" x="63.623047"/>
       <use xlink:href="#DejaVuSans-31" x="127.246094"/>
       <use xlink:href="#DejaVuSans-38" x="190.869141"/>
      </g>
     </g>
    </g>
    <g id="xtick_2">
     <g id="line2d_2">
      <g>
       <use xlink:href="#m78495580a9" x="125.470772" y="175.45" style="stroke: #000000; stroke-width: 0.8"/>
      </g>
     </g>
     <g id="text_2">
      <!-- 2019 -->
      <g transform="translate(112.745772 190.048438) scale(0.1 -0.1)">
       <defs>
        <path id="DejaVuSans-39" d="M 703 97 
L 703 672 
Q 941 559 1184 500 
Q 1428 441 1663 441 
Q 2288 441 2617 861 
Q 2947 1281 2994 2138 
Q 2813 1869 2534 1725 
Q 2256 1581 1919 1581 
Q 1219 1581 811 2004 
Q 403 2428 403 3163 
Q 403 3881 828 4315 
Q 1253 4750 1959 4750 
Q 2769 4750 3195 4129 
Q 3622 3509 3622 2328 
Q 3622 1225 3098 567 
Q 2575 -91 1691 -91 
Q 1453 -91 1209 -44 
Q 966 3 703 97 
z
M 1959 2075 
Q 2384 2075 2632 2365 
Q 2881 2656 2881 3163 
Q 2881 3666 2632 3958 
Q 2384 4250 1959 4250 
Q 1534 4250 1286 3958 
Q 1038 3666 1038 3163 
Q 1038 2656 1286 2365 
Q 1534 2075 1959 2075 
z
" transform="scale(0.015625)"/>
       </defs>
       <use xlink:href="#DejaVuSans-32"/>
       <use xlink:href="#DejaVuSans-30" x="63.623047"/>
       <use xlink:href="#DejaVuSans-31" x="127.246094"/>
       <use xlink:href="#DejaVuSans-39" x="190.869141"/>
      </g>
     </g>
    </g>
    <g id="xtick_3">
     <g id="line2d_3">
      <g>
       <use xlink:href="#m78495580a9" x="177.350938" y="175.45" style="stroke: #000000; stroke-width: 0.8"/>
      </g>
     </g>
     <g id="text_3">
      <!-- 2020 -->
      <g transform="translate(164.625938 190.048438) scale(0.1 -0.1)">
       <use xlink:href="#DejaVuSans-32"/>
       <use xlink:href="#DejaVuSans-30" x="63.623047"/>
       <use xlink:href="#DejaVuSans-32" x="127.246094"/>
       <use xlink:href="#DejaVuSans-30" x="190.869141"/>
      </g>
     </g>
    </g>
    <g id="xtick_4">
     <g id="line2d_4">
      <g>
       <use xlink:href="#m78495580a9" x="229.231103" y="175.45" style="stroke: #000000; stroke-width: 0.8"/>
      </g>
     </g>
     <g id="text_4">
      <!-- 2021 -->
      <g transform="translate(216.506103 190.048438) scale(0.1 -0.1)">
       <use xlink:href="#DejaVuSans-32"/>
       <use xlink:href="#DejaVuSans-30" x="63.623047"/>
       <use xlink:href="#DejaVuSans-32" x="127.246094"/>
       <use xlink:href="#DejaVuSans-31" x="190.869141"/>
      </g>
     </g>
    </g>
    <g id="xtick_5">
     <g id="line2d_5">
      <g>
       <use xlink:href="#m78495580a9" x="281.111268" y="175.45" style="stroke: #000000; stroke-width: 0.8"/>
      </g>
     </g>
     <g id="text_5">
      <!-- 2022 -->
      <g transform="translate(268.386268 190.048438) scale(0.1 -0.1)">
       <use xlink:href="#DejaVuSans-32"/>
       <use xlink:href="#DejaVuSans-30" x="63.623047"/>
       <use xlink:href="#DejaVuSans-32" x="127.246094"/>
       <use xlink:href="#DejaVuSans-32" x="190.869141"/>
      </g>
     </g>
    </g>
    <g id="text_6">
     <!-- Year of publication -->
     <g transform="translate(131.079844 203.726563) scale(0.1 -0.1)">
      <defs>
       <path id="DejaVuSans-59" d="M -13 4666 
L 666 4666 
L 1959 2747 
L 3244 4666 
L 3922 4666 
L 2272 2222 
L 2272 0 
L 1638 0 
L 1638 2222 
L -13 4666 
z
" transform="scale(0.015625)"/>
       <path id="DejaVuSans-65" d="M 3597 1894 
L 3597 1613 
L 953 1613 
Q 991 1019 1311 708 
Q 1631 397 2203 397 
Q 2534 397 2845 478 
Q 3156 559 3463 722 
L 3463 178 
Q 3153 47 2828 -22 
Q 2503 -91 2169 -91 
Q 1331 -91 842 396 
Q 353 884 353 1716 
Q 353 2575 817 3079 
Q 1281 3584 2069 3584 
Q 2775 3584 3186 3129 
Q 3597 2675 3597 1894 
z
M 3022 2063 
Q 3016 2534 2758 2815 
Q 2500 3097 2075 3097 
Q 1594 3097 1305 2825 
Q 1016 2553 972 2059 
L 3022 2063 
z
" transform="scale(0.015625)"/>
       <path id="DejaVuSans-61" d="M 2194 1759 
Q 1497 1759 1228 1600 
Q 959 1441 959 1056 
Q 959 750 1161 570 
Q 1363 391 1709 391 
Q 2188 391 2477 730 
Q 2766 1069 2766 1631 
L 2766 1759 
L 2194 1759 
z
M 3341 1997 
L 3341 0 
L 2766 0 
L 2766 531 
Q 2569 213 2275 61 
Q 1981 -91 1556 -91 
Q 1019 -91 701 211 
Q 384 513 384 1019 
Q 384 1609 779 1909 
Q 1175 2209 1959 2209 
L 2766 2209 
L 2766 2266 
Q 2766 2663 2505 2880 
Q 2244 3097 1772 3097 
Q 1472 3097 1187 3025 
Q 903 2953 641 2809 
L 641 3341 
Q 956 3463 1253 3523 
Q 1550 3584 1831 3584 
Q 2591 3584 2966 3190 
Q 3341 2797 3341 1997 
z
" transform="scale(0.015625)"/>
       <path id="DejaVuSans-72" d="M 2631 2963 
Q 2534 3019 2420 3045 
Q 2306 3072 2169 3072 
Q 1681 3072 1420 2755 
Q 1159 2438 1159 1844 
L 1159 0 
L 581 0 
L 581 3500 
L 1159 3500 
L 1159 2956 
Q 1341 3275 1631 3429 
Q 1922 3584 2338 3584 
Q 2397 3584 2469 3576 
Q 2541 3569 2628 3553 
L 2631 2963 
z
" transform="scale(0.015625)"/>
       <path id="DejaVuSans-20" transform="scale(0.015625)"/>
       <path id="DejaVuSans-6f" d="M 1959 3097 
Q 1497 3097 1228 2736 
Q 959 2375 959 1747 
Q 959 1119 1226 758 
Q 1494 397 1959 397 
Q 2419 397 2687 759 
Q 2956 1122 2956 1747 
Q 2956 2369 2687 2733 
Q 2419 3097 1959 3097 
z
M 1959 3584 
Q 2709 3584 3137 3096 
Q 3566 2609 3566 1747 
Q 3566 888 3137 398 
Q 2709 -91 1959 -91 
Q 1206 -91 779 398 
Q 353 888 353 1747 
Q 353 2609 779 3096 
Q 1206 3584 1959 3584 
z
" transform="scale(0.015625)"/>
       <path id="DejaVuSans-66" d="M 2375 4863 
L 2375 4384 
L 1825 4384 
Q 1516 4384 1395 4259 
Q 1275 4134 1275 3809 
L 1275 3500 
L 2222 3500 
L 2222 3053 
L 1275 3053 
L 1275 0 
L 697 0 
L 697 3053 
L 147 3053 
L 147 3500 
L 697 3500 
L 697 3744 
Q 697 4328 969 4595 
Q 1241 4863 1831 4863 
L 2375 4863 
z
" transform="scale(0.015625)"/>
       <path id="DejaVuSans-70" d="M 1159 525 
L 1159 -1331 
L 581 -1331 
L 581 3500 
L 1159 3500 
L 1159 2969 
Q 1341 3281 1617 3432 
Q 1894 3584 2278 3584 
Q 2916 3584 3314 3078 
Q 3713 2572 3713 1747 
Q 3713 922 3314 415 
Q 2916 -91 2278 -91 
Q 1894 -91 1617 61 
Q 1341 213 1159 525 
z
M 3116 1747 
Q 3116 2381 2855 2742 
Q 2594 3103 2138 3103 
Q 1681 3103 1420 2742 
Q 1159 2381 1159 1747 
Q 1159 1113 1420 752 
Q 1681 391 2138 391 
Q 2594 391 2855 752 
Q 3116 1113 3116 1747 
z
" transform="scale(0.015625)"/>
       <path id="DejaVuSans-75" d="M 544 1381 
L 544 3500 
L 1119 3500 
L 1119 1403 
Q 1119 906 1312 657 
Q 1506 409 1894 409 
Q 2359 409 2629 706 
Q 2900 1003 2900 1516 
L 2900 3500 
L 3475 3500 
L 3475 0 
L 2900 0 
L 2900 538 
Q 2691 219 2414 64 
Q 2138 -91 1772 -91 
Q 1169 -91 856 284 
Q 544 659 544 1381 
z
M 1991 3584 
L 1991 3584 
z
" transform="scale(0.015625)"/>
       <path id="DejaVuSans-62" d="M 3116 1747 
Q 3116 2381 2855 2742 
Q 2594 3103 2138 3103 
Q 1681 3103 1420 2742 
Q 1159 2381 1159 1747 
Q 1159 1113 1420 752 
Q 1681 391 2138 391 
Q 2594 391 2855 752 
Q 3116 1113 3116 1747 
z
M 1159 2969 
Q 1341 3281 1617 3432 
Q 1894 3584 2278 3584 
Q 2916 3584 3314 3078 
Q 3713 2572 3713 1747 
Q 3713 922 3314 415 
Q 2916 -91 2278 -91 
Q 1894 -91 1617 61 
Q 1341 213 1159 525 
L 1159 0 
L 581 0 
L 581 4863 
L 1159 4863 
L 1159 2969 
z
" transform="scale(0.015625)"/>
       <path id="DejaVuSans-6c" d="M 603 4863 
L 1178 4863 
L 1178 0 
L 603 0 
L 603 4863 
z
" transform="scale(0.015625)"/>
       <path id="DejaVuSans-69" d="M 603 3500 
L 1178 3500 
L 1178 0 
L 603 0 
L 603 3500 
z
M 603 4863 
L 1178 4863 
L 1178 4134 
L 603 4134 
L 603 4863 
z
" transform="scale(0.015625)"/>
       <path id="DejaVuSans-63" d="M 3122 3366 
L 3122 2828 
Q 2878 2963 2633 3030 
Q 2388 3097 2138 3097 
Q 1578 3097 1268 2742 
Q 959 2388 959 1747 
Q 959 1106 1268 751 
Q 1578 397 2138 397 
Q 2388 397 2633 464 
Q 2878 531 3122 666 
L 3122 134 
Q 2881 22 2623 -34 
Q 2366 -91 2075 -91 
Q 1284 -91 818 406 
Q 353 903 353 1747 
Q 353 2603 823 3093 
Q 1294 3584 2113 3584 
Q 2378 3584 2631 3529 
Q 2884 3475 3122 3366 
z
" transform="scale(0.015625)"/>
       <path id="DejaVuSans-74" d="M 1172 4494 
L 1172 3500 
L 2356 3500 
L 2356 3053 
L 1172 3053 
L 1172 1153 
Q 1172 725 1289 603 
Q 1406 481 1766 481 
L 2356 481 
L 2356 0 
L 1766 0 
Q 1100 0 847 248 
Q 594 497 594 1153 
L 594 3053 
L 172 3053 
L 172 3500 
L 594 3500 
L 594 4494 
L 1172 4494 
z
" transform="scale(0.015625)"/>
       <path id="DejaVuSans-6e" d="M 3513 2113 
L 3513 0 
L 2938 0 
L 2938 2094 
Q 2938 2591 2744 2837 
Q 2550 3084 2163 3084 
Q 1697 3084 1428 2787 
Q 1159 2491 1159 1978 
L 1159 0 
L 581 0 
L 581 3500 
L 1159 3500 
L 1159 2956 
Q 1366 3272 1645 3428 
Q 1925 3584 2291 3584 
Q 2894 3584 3203 3211 
Q 3513 2838 3513 2113 
z
" transform="scale(0.015625)"/>
      </defs>
      <use xlink:href="#DejaVuSans-59"/>
      <use xlink:href="#DejaVuSans-65" x="47.833984"/>
      <use xlink:href="#DejaVuSans-61" x="109.357422"/>
      <use xlink:href="#DejaVuSans-72" x="170.636719"/>
      <use xlink:href="#DejaVuSans-20" x="211.75"/>
      <use xlink:href="#DejaVuSans-6f" x="243.537109"/>
      <use xlink:href="#DejaVuSans-66" x="304.71875"/>
      <use xlink:href="#DejaVuSans-20" x="339.923828"/>
      <use xlink:href="#DejaVuSans-70" x="371.710938"/>
      <use xlink:href="#DejaVuSans-75" x="435.1875"/>
      <use xlink:href="#DejaVuSans-62" x="498.566406"/>
      <use xlink:href="#DejaVuSans-6c" x="562.042969"/>
      <use xlink:href="#DejaVuSans-69" x="589.826172"/>
      <use xlink:href="#DejaVuSans-63" x="617.609375"/>
      <use xlink:href="#DejaVuSans-61" x="672.589844"/>
      <use xlink:href="#DejaVuSans-74" x="733.869141"/>
      <use xlink:href="#DejaVuSans-69" x="773.078125"/>
      <use xlink:href="#DejaVuSans-6f" x="800.861328"/>
      <use xlink:href="#DejaVuSans-6e" x="862.042969"/>
     </g>
    </g>
   </g>
   <g id="matplotlib.axis_2">
    <g id="ytick_1">
     <g id="line2d_6">
      <path d="M 51.800938 175.45 
L 302.900938 175.45 
" clip-path="url(#pc84d9e215e)" style="fill: none; stroke: #ffffff; stroke-width: 0.8; stroke-linecap: square"/>
     </g>
     <g id="line2d_7">
      <defs>
       <path id="m8905eccd0e" d="M 0 0 
L -3.5 0 
" style="stroke: #000000; stroke-width: 0.8"/>
      </defs>
      <g>
       <use xlink:href="#m8905eccd0e" x="51.800938" y="175.45" style="stroke: #000000; stroke-width: 0.8"/>
      </g>
     </g>
     <g id="text_7">
      <!-- 0 -->
      <g transform="translate(38.438438 179.249219) scale(0.1 -0.1)">
       <use xlink:href="#DejaVuSans-30"/>
      </g>
     </g>
    </g>
    <g id="ytick_2">
     <g id="line2d_8">
      <path d="M 51.800938 155.65 
L 302.900938 155.65 
" clip-path="url(#pc84d9e215e)" style="fill: none; stroke: #ffffff; stroke-width: 0.8; stroke-linecap: square"/>
     </g>
     <g id="line2d_9">
      <g>
       <use xlink:href="#m8905eccd0e" x="51.800938" y="155.65" style="stroke: #000000; stroke-width: 0.8"/>
      </g>
     </g>
     <g id="text_8">
      <!-- 2 -->
      <g transform="translate(38.438438 159.449219) scale(0.1 -0.1)">
       <use xlink:href="#DejaVuSans-32"/>
      </g>
     </g>
    </g>
    <g id="ytick_3">
     <g id="line2d_10">
      <path d="M 51.800938 135.85 
L 302.900938 135.85 
" clip-path="url(#pc84d9e215e)" style="fill: none; stroke: #ffffff; stroke-width: 0.8; stroke-linecap: square"/>
     </g>
     <g id="line2d_11">
      <g>
       <use xlink:href="#m8905eccd0e" x="51.800938" y="135.85" style="stroke: #000000; stroke-width: 0.8"/>
      </g>
     </g>
     <g id="text_9">
      <!-- 4 -->
      <g transform="translate(38.438438 139.649219) scale(0.1 -0.1)">
       <defs>
        <path id="DejaVuSans-34" d="M 2419 4116 
L 825 1625 
L 2419 1625 
L 2419 4116 
z
M 2253 4666 
L 3047 4666 
L 3047 1625 
L 3713 1625 
L 3713 1100 
L 3047 1100 
L 3047 0 
L 2419 0 
L 2419 1100 
L 313 1100 
L 313 1709 
L 2253 4666 
z
" transform="scale(0.015625)"/>
       </defs>
       <use xlink:href="#DejaVuSans-34"/>
      </g>
     </g>
    </g>
    <g id="ytick_4">
     <g id="line2d_12">
      <path d="M 51.800938 116.05 
L 302.900938 116.05 
" clip-path="url(#pc84d9e215e)" style="fill: none; stroke: #ffffff; stroke-width: 0.8; stroke-linecap: square"/>
     </g>
     <g id="line2d_13">
      <g>
       <use xlink:href="#m8905eccd0e" x="51.800938" y="116.05" style="stroke: #000000; stroke-width: 0.8"/>
      </g>
     </g>
     <g id="text_10">
      <!-- 6 -->
      <g transform="translate(38.438438 119.849219) scale(0.1 -0.1)">
       <defs>
        <path id="DejaVuSans-36" d="M 2113 2584 
Q 1688 2584 1439 2293 
Q 1191 2003 1191 1497 
Q 1191 994 1439 701 
Q 1688 409 2113 409 
Q 2538 409 2786 701 
Q 3034 994 3034 1497 
Q 3034 2003 2786 2293 
Q 2538 2584 2113 2584 
z
M 3366 4563 
L 3366 3988 
Q 3128 4100 2886 4159 
Q 2644 4219 2406 4219 
Q 1781 4219 1451 3797 
Q 1122 3375 1075 2522 
Q 1259 2794 1537 2939 
Q 1816 3084 2150 3084 
Q 2853 3084 3261 2657 
Q 3669 2231 3669 1497 
Q 3669 778 3244 343 
Q 2819 -91 2113 -91 
Q 1303 -91 875 529 
Q 447 1150 447 2328 
Q 447 3434 972 4092 
Q 1497 4750 2381 4750 
Q 2619 4750 2861 4703 
Q 3103 4656 3366 4563 
z
" transform="scale(0.015625)"/>
       </defs>
       <use xlink:href="#DejaVuSans-36"/>
      </g>
     </g>
    </g>
    <g id="ytick_5">
     <g id="line2d_14">
      <path d="M 51.800938 96.25 
L 302.900938 96.25 
" clip-path="url(#pc84d9e215e)" style="fill: none; stroke: #ffffff; stroke-width: 0.8; stroke-linecap: square"/>
     </g>
     <g id="line2d_15">
      <g>
       <use xlink:href="#m8905eccd0e" x="51.800938" y="96.25" style="stroke: #000000; stroke-width: 0.8"/>
      </g>
     </g>
     <g id="text_11">
      <!-- 8 -->
      <g transform="translate(38.438438 100.049219) scale(0.1 -0.1)">
       <use xlink:href="#DejaVuSans-38"/>
      </g>
     </g>
    </g>
    <g id="ytick_6">
     <g id="line2d_16">
      <path d="M 51.800938 76.45 
L 302.900938 76.45 
" clip-path="url(#pc84d9e215e)" style="fill: none; stroke: #ffffff; stroke-width: 0.8; stroke-linecap: square"/>
     </g>
     <g id="line2d_17">
      <g>
       <use xlink:href="#m8905eccd0e" x="51.800938" y="76.45" style="stroke: #000000; stroke-width: 0.8"/>
      </g>
     </g>
     <g id="text_12">
      <!-- 10 -->
      <g transform="translate(32.075938 80.249219) scale(0.1 -0.1)">
       <use xlink:href="#DejaVuSans-31"/>
       <use xlink:href="#DejaVuSans-30" x="63.623047"/>
      </g>
     </g>
    </g>
    <g id="ytick_7">
     <g id="line2d_18">
      <path d="M 51.800938 56.65 
L 302.900938 56.65 
" clip-path="url(#pc84d9e215e)" style="fill: none; stroke: #ffffff; stroke-width: 0.8; stroke-linecap: square"/>
     </g>
     <g id="line2d_19">
      <g>
       <use xlink:href="#m8905eccd0e" x="51.800938" y="56.65" style="stroke: #000000; stroke-width: 0.8"/>
      </g>
     </g>
     <g id="text_13">
      <!-- 12 -->
      <g transform="translate(32.075938 60.449219) scale(0.1 -0.1)">
       <use xlink:href="#DejaVuSans-31"/>
       <use xlink:href="#DejaVuSans-32" x="63.623047"/>
      </g>
     </g>
    </g>
    <g id="ytick_8">
     <g id="line2d_20">
      <path d="M 51.800938 36.85 
L 302.900938 36.85 
" clip-path="url(#pc84d9e215e)" style="fill: none; stroke: #ffffff; stroke-width: 0.8; stroke-linecap: square"/>
     </g>
     <g id="line2d_21">
      <g>
       <use xlink:href="#m8905eccd0e" x="51.800938" y="36.85" style="stroke: #000000; stroke-width: 0.8"/>
      </g>
     </g>
     <g id="text_14">
      <!-- 14 -->
      <g transform="translate(32.075938 40.649219) scale(0.1 -0.1)">
       <use xlink:href="#DejaVuSans-31"/>
       <use xlink:href="#DejaVuSans-34" x="63.623047"/>
      </g>
     </g>
    </g>
    <g id="text_15">
     <!-- Articles included per  -->
     <g transform="translate(14.798438 159.157813) rotate(-90) scale(0.1 -0.1)">
      <defs>
       <path id="DejaVuSans-41" d="M 2188 4044 
L 1331 1722 
L 3047 1722 
L 2188 4044 
z
M 1831 4666 
L 2547 4666 
L 4325 0 
L 3669 0 
L 3244 1197 
L 1141 1197 
L 716 0 
L 50 0 
L 1831 4666 
z
" transform="scale(0.015625)"/>
       <path id="DejaVuSans-73" d="M 2834 3397 
L 2834 2853 
Q 2591 2978 2328 3040 
Q 2066 3103 1784 3103 
Q 1356 3103 1142 2972 
Q 928 2841 928 2578 
Q 928 2378 1081 2264 
Q 1234 2150 1697 2047 
L 1894 2003 
Q 2506 1872 2764 1633 
Q 3022 1394 3022 966 
Q 3022 478 2636 193 
Q 2250 -91 1575 -91 
Q 1294 -91 989 -36 
Q 684 19 347 128 
L 347 722 
Q 666 556 975 473 
Q 1284 391 1588 391 
Q 1994 391 2212 530 
Q 2431 669 2431 922 
Q 2431 1156 2273 1281 
Q 2116 1406 1581 1522 
L 1381 1569 
Q 847 1681 609 1914 
Q 372 2147 372 2553 
Q 372 3047 722 3315 
Q 1072 3584 1716 3584 
Q 2034 3584 2315 3537 
Q 2597 3491 2834 3397 
z
" transform="scale(0.015625)"/>
       <path id="DejaVuSans-64" d="M 2906 2969 
L 2906 4863 
L 3481 4863 
L 3481 0 
L 2906 0 
L 2906 525 
Q 2725 213 2448 61 
Q 2172 -91 1784 -91 
Q 1150 -91 751 415 
Q 353 922 353 1747 
Q 353 2572 751 3078 
Q 1150 3584 1784 3584 
Q 2172 3584 2448 3432 
Q 2725 3281 2906 2969 
z
M 947 1747 
Q 947 1113 1208 752 
Q 1469 391 1925 391 
Q 2381 391 2643 752 
Q 2906 1113 2906 1747 
Q 2906 2381 2643 2742 
Q 2381 3103 1925 3103 
Q 1469 3103 1208 2742 
Q 947 2381 947 1747 
z
" transform="scale(0.015625)"/>
      </defs>
      <use xlink:href="#DejaVuSans-41"/>
      <use xlink:href="#DejaVuSans-72" x="68.408203"/>
      <use xlink:href="#DejaVuSans-74" x="109.521484"/>
      <use xlink:href="#DejaVuSans-69" x="148.730469"/>
      <use xlink:href="#DejaVuSans-63" x="176.513672"/>
      <use xlink:href="#DejaVuSans-6c" x="231.494141"/>
      <use xlink:href="#DejaVuSans-65" x="259.277344"/>
      <use xlink:href="#DejaVuSans-73" x="320.800781"/>
      <use xlink:href="#DejaVuSans-20" x="372.900391"/>
      <use xlink:href="#DejaVuSans-69" x="404.6875"/>
      <use xlink:href="#DejaVuSans-6e" x="432.470703"/>
      <use xlink:href="#DejaVuSans-63" x="495.849609"/>
      <use xlink:href="#DejaVuSans-6c" x="550.830078"/>
      <use xlink:href="#DejaVuSans-75" x="578.613281"/>
      <use xlink:href="#DejaVuSans-64" x="641.992188"/>
      <use xlink:href="#DejaVuSans-65" x="705.46875"/>
      <use xlink:href="#DejaVuSans-64" x="766.992188"/>
      <use xlink:href="#DejaVuSans-20" x="830.46875"/>
      <use xlink:href="#DejaVuSans-70" x="862.255859"/>
      <use xlink:href="#DejaVuSans-65" x="925.732422"/>
      <use xlink:href="#DejaVuSans-72" x="987.255859"/>
      <use xlink:href="#DejaVuSans-20" x="1028.369141"/>
     </g>
     <!--  100,000 published articles -->
     <g transform="translate(25.99625 174.201563) rotate(-90) scale(0.1 -0.1)">
      <defs>
       <path id="DejaVuSans-2c" d="M 750 794 
L 1409 794 
L 1409 256 
L 897 -744 
L 494 -744 
L 750 256 
L 750 794 
z
" transform="scale(0.015625)"/>
       <path id="DejaVuSans-68" d="M 3513 2113 
L 3513 0 
L 2938 0 
L 2938 2094 
Q 2938 2591 2744 2837 
Q 2550 3084 2163 3084 
Q 1697 3084 1428 2787 
Q 1159 2491 1159 1978 
L 1159 0 
L 581 0 
L 581 4863 
L 1159 4863 
L 1159 2956 
Q 1366 3272 1645 3428 
Q 1925 3584 2291 3584 
Q 2894 3584 3203 3211 
Q 3513 2838 3513 2113 
z
" transform="scale(0.015625)"/>
      </defs>
      <use xlink:href="#DejaVuSans-20"/>
      <use xlink:href="#DejaVuSans-31" x="31.787109"/>
      <use xlink:href="#DejaVuSans-30" x="95.410156"/>
      <use xlink:href="#DejaVuSans-30" x="159.033203"/>
      <use xlink:href="#DejaVuSans-2c" x="222.65625"/>
      <use xlink:href="#DejaVuSans-30" x="254.443359"/>
      <use xlink:href="#DejaVuSans-30" x="318.066406"/>
      <use xlink:href="#DejaVuSans-30" x="381.689453"/>
      <use xlink:href="#DejaVuSans-20" x="445.3125"/>
      <use xlink:href="#DejaVuSans-70" x="477.099609"/>
      <use xlink:href="#DejaVuSans-75" x="540.576172"/>
      <use xlink:href="#DejaVuSans-62" x="603.955078"/>
      <use xlink:href="#DejaVuSans-6c" x="667.431641"/>
      <use xlink:href="#DejaVuSans-69" x="695.214844"/>
      <use xlink:href="#DejaVuSans-73" x="722.998047"/>
      <use xlink:href="#DejaVuSans-68" x="775.097656"/>
      <use xlink:href="#DejaVuSans-65" x="838.476562"/>
      <use xlink:href="#DejaVuSans-64" x="900"/>
      <use xlink:href="#DejaVuSans-20" x="963.476562"/>
      <use xlink:href="#DejaVuSans-61" x="995.263672"/>
      <use xlink:href="#DejaVuSans-72" x="1056.542969"/>
      <use xlink:href="#DejaVuSans-74" x="1097.65625"/>
      <use xlink:href="#DejaVuSans-69" x="1136.865234"/>
      <use xlink:href="#DejaVuSans-63" x="1164.648438"/>
      <use xlink:href="#DejaVuSans-6c" x="1219.628906"/>
      <use xlink:href="#DejaVuSans-65" x="1247.412109"/>
      <use xlink:href="#DejaVuSans-73" x="1308.935547"/>
     </g>
    </g>
   </g>
   <g id="patch_3">
    <path d="M 63.214574 175.45 
L 83.96664 175.45 
L 83.96664 124.922797 
L 63.214574 124.922797 
z
" clip-path="url(#pc84d9e215e)" style="fill: #b3e2cd; stroke: #000000; stroke-linejoin: miter"/>
   </g>
   <g id="patch_4">
    <path d="M 115.094739 175.45 
L 135.846805 175.45 
L 135.846805 114.006848 
L 115.094739 114.006848 
z
" clip-path="url(#pc84d9e215e)" style="fill: #b3e2cd; stroke: #000000; stroke-linejoin: miter"/>
   </g>
   <g id="patch_5">
    <path d="M 166.974904 175.45 
L 187.726971 175.45 
L 187.726971 110.283329 
L 166.974904 110.283329 
z
" clip-path="url(#pc84d9e215e)" style="fill: #b3e2cd; stroke: #000000; stroke-linejoin: miter"/>
   </g>
   <g id="patch_6">
    <path d="M 218.85507 175.45 
L 239.607136 175.45 
L 239.607136 102.310638 
L 218.85507 102.310638 
z
" clip-path="url(#pc84d9e215e)" style="fill: #b3e2cd; stroke: #000000; stroke-linejoin: miter"/>
   </g>
   <g id="patch_7">
    <path d="M 270.735235 175.45 
L 291.487301 175.45 
L 291.487301 90.817007 
L 270.735235 90.817007 
z
" clip-path="url(#pc84d9e215e)" style="fill: #b3e2cd; stroke: #000000; stroke-linejoin: miter"/>
   </g>
   <g id="patch_8">
    <path d="M 63.214574 124.922797 
L 83.96664 124.922797 
L 83.96664 124.922797 
L 63.214574 124.922797 
z
" clip-path="url(#pc84d9e215e)" style="fill: #fdcdac; stroke: #000000; stroke-linejoin: miter"/>
   </g>
   <g id="patch_9">
    <path d="M 115.094739 114.006848 
L 135.846805 114.006848 
L 135.846805 114.006848 
L 115.094739 114.006848 
z
" clip-path="url(#pc84d9e215e)" style="fill: #fdcdac; stroke: #000000; stroke-linejoin: miter"/>
   </g>
   <g id="patch_10">
    <path d="M 166.974904 110.283329 
L 187.726971 110.283329 
L 187.726971 107.266353 
L 166.974904 107.266353 
z
" clip-path="url(#pc84d9e215e)" style="fill: #fdcdac; stroke: #000000; stroke-linejoin: miter"/>
   </g>
   <g id="patch_11">
    <path d="M 218.85507 102.310638 
L 239.607136 102.310638 
L 239.607136 82.363539 
L 218.85507 82.363539 
z
" clip-path="url(#pc84d9e215e)" style="fill: #fdcdac; stroke: #000000; stroke-linejoin: miter"/>
   </g>
   <g id="patch_12">
    <path d="M 270.735235 90.817007 
L 291.487301 90.817007 
L 291.487301 67.431575 
L 270.735235 67.431575 
z
" clip-path="url(#pc84d9e215e)" style="fill: #fdcdac; stroke: #000000; stroke-linejoin: miter"/>
   </g>
   <g id="PolyCollection_1">
    <path d="M 73.590607 124.129647 
L 73.590607 147.101132 
L 75.686775 146.296389 
L 77.782944 145.491646 
L 79.879112 144.686903 
L 81.97528 143.88216 
L 84.071448 143.077417 
L 86.167617 142.272674 
L 88.263785 141.467931 
L 90.359953 140.663188 
L 92.456122 139.858445 
L 94.55229 139.053702 
L 96.648458 138.248959 
L 98.744626 137.444216 
L 100.840795 136.639473 
L 102.936963 135.83473 
L 105.033131 135.029987 
L 107.1293 134.225244 
L 109.225468 133.420501 
L 111.321636 132.615758 
L 113.417805 131.811015 
L 115.513973 131.006272 
L 117.610141 130.201529 
L 119.706309 129.396786 
L 121.802478 128.592043 
L 123.898646 127.7873 
L 125.994814 126.976262 
L 128.090983 126.14634 
L 130.187151 125.316418 
L 132.283319 124.486496 
L 134.379487 123.656574 
L 136.475656 122.826652 
L 138.571824 121.996731 
L 140.667992 121.166809 
L 142.764161 120.336887 
L 144.860329 119.506965 
L 146.956497 118.677043 
L 149.052666 117.847121 
L 151.148834 117.017199 
L 153.245002 116.187277 
L 155.34117 115.357355 
L 157.437339 114.527433 
L 159.533507 113.697511 
L 161.629675 112.86759 
L 163.725844 112.037668 
L 165.822012 111.207746 
L 167.91818 110.377824 
L 170.014348 109.547902 
L 172.110517 108.71798 
L 174.206685 107.888058 
L 176.302853 107.402525 
L 178.399022 106.863982 
L 180.49519 106.313764 
L 182.591358 105.957068 
L 184.687527 105.600372 
L 186.783695 105.243677 
L 188.879863 104.886981 
L 190.976031 104.530285 
L 193.0722 104.173589 
L 195.168368 103.816893 
L 197.264536 103.460198 
L 199.360705 103.103502 
L 201.456873 102.746806 
L 203.553041 102.39011 
L 205.649209 102.033414 
L 207.745378 101.676718 
L 209.841546 101.320218 
L 211.937714 100.963824 
L 214.033883 100.607429 
L 216.130051 100.251035 
L 218.226219 99.89464 
L 220.322388 99.538246 
L 222.418556 99.181851 
L 224.514724 98.825456 
L 226.610892 98.469062 
L 228.707061 98.112667 
L 230.803229 97.756273 
L 232.899397 97.399878 
L 234.995566 97.043484 
L 237.091734 96.687089 
L 239.187902 96.330695 
L 241.28407 95.9743 
L 243.380239 95.617905 
L 245.476407 95.261511 
L 247.572575 94.905116 
L 249.668744 94.548722 
L 251.764912 94.192327 
L 253.86108 93.835933 
L 255.957249 93.479538 
L 258.053417 93.123143 
L 260.149585 92.766749 
L 262.245753 92.410354 
L 264.341922 92.05396 
L 266.43809 91.697565 
L 268.534258 91.341171 
L 270.630427 90.984776 
L 272.726595 90.628382 
L 274.822763 90.271987 
L 276.918931 89.915592 
L 279.0151 89.559198 
L 281.111268 89.202803 
L 281.111268 65.562041 
L 281.111268 65.562041 
L 279.0151 66.391963 
L 276.918931 67.221884 
L 274.822763 68.051806 
L 272.726595 68.881728 
L 270.630427 69.71165 
L 268.534258 70.377437 
L 266.43809 71.016696 
L 264.341922 71.655955 
L 262.245753 72.295214 
L 260.149585 72.934472 
L 258.053417 73.751469 
L 255.957249 74.400208 
L 253.86108 74.980927 
L 251.764912 75.673479 
L 249.668744 76.254198 
L 247.572575 76.834917 
L 245.476407 77.415637 
L 243.380239 78.024919 
L 241.28407 78.604563 
L 239.187902 79.184206 
L 237.091734 79.76385 
L 234.995566 80.343494 
L 232.899397 80.923137 
L 230.803229 81.502781 
L 228.707061 82.082424 
L 226.610892 82.662068 
L 224.514724 83.241712 
L 222.418556 83.821355 
L 220.322388 84.400999 
L 218.226219 84.980642 
L 216.130051 85.560286 
L 214.033883 86.139929 
L 211.937714 86.719573 
L 209.841546 87.299217 
L 207.745378 87.87886 
L 205.649209 88.458504 
L 203.553041 89.038147 
L 201.456873 89.617791 
L 199.360705 90.197435 
L 197.264536 90.777078 
L 195.168368 91.356722 
L 193.0722 91.936365 
L 190.976031 92.516009 
L 188.879863 93.095653 
L 186.783695 93.67578 
L 184.687527 94.2565 
L 182.591358 94.837219 
L 180.49519 95.417938 
L 178.399022 95.998658 
L 176.302853 96.579377 
L 174.206685 97.160097 
L 172.110517 97.740816 
L 170.014348 98.321536 
L 167.91818 98.902255 
L 165.822012 99.482974 
L 163.725844 100.063694 
L 161.629675 100.644413 
L 159.533507 101.225133 
L 157.437339 101.805852 
L 155.34117 102.386571 
L 153.245002 102.967291 
L 151.148834 103.54801 
L 149.052666 104.12873 
L 146.956497 104.709449 
L 144.860329 105.288623 
L 142.764161 105.866964 
L 140.667992 106.445305 
L 138.571824 107.023646 
L 136.475656 107.601988 
L 134.379487 108.180329 
L 132.283319 108.75867 
L 130.187151 109.337012 
L 128.090983 109.915353 
L 125.994814 110.493694 
L 123.898646 111.072035 
L 121.802478 111.650377 
L 119.706309 112.228718 
L 117.610141 112.807059 
L 115.513973 113.3854 
L 113.417805 113.963742 
L 111.321636 114.542465 
L 109.225468 115.122109 
L 107.1293 115.701752 
L 105.033131 116.281396 
L 102.936963 116.86104 
L 100.840795 117.440511 
L 98.744626 118.020122 
L 96.648458 118.599733 
L 94.55229 119.179344 
L 92.456122 119.758955 
L 90.359953 120.336993 
L 88.263785 120.91031 
L 86.167617 121.483628 
L 84.071448 122.018884 
L 81.97528 122.593702 
L 79.879112 123.091304 
L 77.782944 123.437418 
L 75.686775 123.783533 
L 73.590607 124.129647 
z
" clip-path="url(#pc84d9e215e)" style="fill: #808080; fill-opacity: 0.15"/>
   </g>
   <g id="line2d_22">
    <path d="M 73.590607 128.523373 
L 75.686775 127.930945 
L 77.782944 127.338518 
L 79.879112 126.746091 
L 81.97528 126.153664 
L 84.071448 125.561236 
L 86.167617 124.968809 
L 88.263785 124.376382 
L 90.359953 123.783954 
L 92.456122 123.191527 
L 94.55229 122.5991 
L 96.648458 122.006673 
L 98.744626 121.414245 
L 100.840795 120.821818 
L 102.936963 120.229391 
L 105.033131 119.636963 
L 107.1293 119.044536 
L 109.225468 118.452109 
L 111.321636 117.859682 
L 113.417805 117.267254 
L 115.513973 116.674827 
L 117.610141 116.0824 
L 119.706309 115.489973 
L 121.802478 114.897545 
L 123.898646 114.305118 
L 125.994814 113.712691 
L 128.090983 113.120263 
L 130.187151 112.527836 
L 132.283319 111.935409 
L 134.379487 111.342982 
L 136.475656 110.750554 
L 138.571824 110.158127 
L 140.667992 109.5657 
L 142.764161 108.973272 
L 144.860329 108.380845 
L 146.956497 107.788418 
L 149.052666 107.195991 
L 151.148834 106.603563 
L 153.245002 106.011136 
L 155.34117 105.418709 
L 157.437339 104.826281 
L 159.533507 104.233854 
L 161.629675 103.641427 
L 163.725844 103.049 
L 165.822012 102.456572 
L 167.91818 101.864145 
L 170.014348 101.271718 
L 172.110517 100.679291 
L 174.206685 100.086863 
L 176.302853 99.494436 
L 178.399022 98.902009 
L 180.49519 98.309581 
L 182.591358 97.717154 
L 184.687527 97.124727 
L 186.783695 96.5323 
L 188.879863 95.939872 
L 190.976031 95.347445 
L 193.0722 94.755018 
L 195.168368 94.16259 
L 197.264536 93.570163 
L 199.360705 92.977736 
L 201.456873 92.385309 
L 203.553041 91.792881 
L 205.649209 91.200454 
L 207.745378 90.608027 
L 209.841546 90.0156 
L 211.937714 89.423172 
L 214.033883 88.830745 
L 216.130051 88.238318 
L 218.226219 87.64589 
L 220.322388 87.053463 
L 222.418556 86.461036 
L 224.514724 85.868609 
L 226.610892 85.276181 
L 228.707061 84.683754 
L 230.803229 84.091327 
L 232.899397 83.498899 
L 234.995566 82.906472 
L 237.091734 82.314045 
L 239.187902 81.721618 
L 241.28407 81.12919 
L 243.380239 80.536763 
L 245.476407 79.944336 
L 247.572575 79.351909 
L 249.668744 78.759481 
L 251.764912 78.167054 
L 253.86108 77.574627 
L 255.957249 76.982199 
L 258.053417 76.389772 
L 260.149585 75.797345 
L 262.245753 75.204918 
L 264.341922 74.61249 
L 266.43809 74.020063 
L 268.534258 73.427636 
L 270.630427 72.835208 
L 272.726595 72.242781 
L 274.822763 71.650354 
L 276.918931 71.057927 
L 279.0151 70.465499 
L 281.111268 69.873072 
" clip-path="url(#pc84d9e215e)" style="fill: none; stroke: #808080; stroke-width: 2.25; stroke-linecap: square"/>
   </g>
   <g id="patch_13">
    <path d="M 51.800938 175.45 
L 51.800938 36.85 
" style="fill: none; stroke: #ffffff; stroke-linejoin: miter; stroke-linecap: square"/>
   </g>
   <g id="patch_14">
    <path d="M 302.900938 175.45 
L 302.900938 36.85 
" style="fill: none; stroke: #ffffff; stroke-linejoin: miter; stroke-linecap: square"/>
   </g>
   <g id="patch_15">
    <path d="M 51.800938 175.45 
L 302.900938 175.45 
" style="fill: none; stroke: #ffffff; stroke-linejoin: miter; stroke-linecap: square"/>
   </g>
   <g id="patch_16">
    <path d="M 51.800938 36.85 
L 302.900938 36.85 
" style="fill: none; stroke: #ffffff; stroke-linejoin: miter; stroke-linecap: square"/>
   </g>
   <g id="text_16">
    <!-- 69 -->
    <g transform="translate(67.228107 107.993109) scale(0.1 -0.1)">
     <use xlink:href="#DejaVuSans-36"/>
     <use xlink:href="#DejaVuSans-39" x="63.623047"/>
    </g>
   </g>
   <g id="text_17">
    <!-- 88 -->
    <g transform="translate(119.108272 97.07716) scale(0.1 -0.1)">
     <use xlink:href="#DejaVuSans-38"/>
     <use xlink:href="#DejaVuSans-38" x="63.623047"/>
    </g>
   </g>
   <g id="text_18">
    <!-- 113 -->
    <g transform="translate(167.807188 90.336666) scale(0.1 -0.1)">
     <defs>
      <path id="DejaVuSans-33" d="M 2597 2516 
Q 3050 2419 3304 2112 
Q 3559 1806 3559 1356 
Q 3559 666 3084 287 
Q 2609 -91 1734 -91 
Q 1441 -91 1130 -33 
Q 819 25 488 141 
L 488 750 
Q 750 597 1062 519 
Q 1375 441 1716 441 
Q 2309 441 2620 675 
Q 2931 909 2931 1356 
Q 2931 1769 2642 2001 
Q 2353 2234 1838 2234 
L 1294 2234 
L 1294 2753 
L 1863 2753 
Q 2328 2753 2575 2939 
Q 2822 3125 2822 3475 
Q 2822 3834 2567 4026 
Q 2313 4219 1838 4219 
Q 1578 4219 1281 4162 
Q 984 4106 628 3988 
L 628 4550 
Q 988 4650 1302 4700 
Q 1616 4750 1894 4750 
Q 2613 4750 3031 4423 
Q 3450 4097 3450 3541 
Q 3450 3153 3228 2886 
Q 3006 2619 2597 2516 
z
" transform="scale(0.015625)"/>
     </defs>
     <use xlink:href="#DejaVuSans-31"/>
     <use xlink:href="#DejaVuSans-31" x="63.623047"/>
     <use xlink:href="#DejaVuSans-33" x="127.246094"/>
    </g>
   </g>
   <g id="text_19">
    <!-- 168 -->
    <g transform="translate(219.687353 65.433852) scale(0.1 -0.1)">
     <use xlink:href="#DejaVuSans-31"/>
     <use xlink:href="#DejaVuSans-36" x="63.623047"/>
     <use xlink:href="#DejaVuSans-38" x="127.246094"/>
    </g>
   </g>
   <g id="text_20">
    <!-- 194 -->
    <g transform="translate(271.567518 50.501888) scale(0.1 -0.1)">
     <use xlink:href="#DejaVuSans-31"/>
     <use xlink:href="#DejaVuSans-39" x="63.623047"/>
     <use xlink:href="#DejaVuSans-34" x="127.246094"/>
    </g>
   </g>
   <g id="legend_1">
    <g id="patch_17">
     <path d="M 64.698594 24.878125 
L 290.003281 24.878125 
Q 292.003281 24.878125 292.003281 22.878125 
L 292.003281 9.2 
Q 292.003281 7.2 290.003281 7.2 
L 64.698594 7.2 
Q 62.698594 7.2 62.698594 9.2 
L 62.698594 22.878125 
Q 62.698594 24.878125 64.698594 24.878125 
z
" style="fill: #e5e5e5; opacity: 0.8; stroke: #cccccc; stroke-width: 0.5; stroke-linejoin: miter"/>
    </g>
    <g id="patch_18">
     <path d="M 66.698594 18.798438 
L 86.698594 18.798438 
L 86.698594 11.798438 
L 66.698594 11.798438 
z
" style="fill: #b3e2cd; stroke: #000000; stroke-linejoin: miter"/>
    </g>
    <g id="text_21">
     <!-- Other focus -->
     <g transform="translate(94.698594 18.798438) scale(0.1 -0.1)">
      <defs>
       <path id="DejaVuSans-4f" d="M 2522 4238 
Q 1834 4238 1429 3725 
Q 1025 3213 1025 2328 
Q 1025 1447 1429 934 
Q 1834 422 2522 422 
Q 3209 422 3611 934 
Q 4013 1447 4013 2328 
Q 4013 3213 3611 3725 
Q 3209 4238 2522 4238 
z
M 2522 4750 
Q 3503 4750 4090 4092 
Q 4678 3434 4678 2328 
Q 4678 1225 4090 567 
Q 3503 -91 2522 -91 
Q 1538 -91 948 565 
Q 359 1222 359 2328 
Q 359 3434 948 4092 
Q 1538 4750 2522 4750 
z
" transform="scale(0.015625)"/>
      </defs>
      <use xlink:href="#DejaVuSans-4f"/>
      <use xlink:href="#DejaVuSans-74" x="78.710938"/>
      <use xlink:href="#DejaVuSans-68" x="117.919922"/>
      <use xlink:href="#DejaVuSans-65" x="181.298828"/>
      <use xlink:href="#DejaVuSans-72" x="242.822266"/>
      <use xlink:href="#DejaVuSans-20" x="283.935547"/>
      <use xlink:href="#DejaVuSans-66" x="315.722656"/>
      <use xlink:href="#DejaVuSans-6f" x="350.927734"/>
      <use xlink:href="#DejaVuSans-63" x="412.109375"/>
      <use xlink:href="#DejaVuSans-75" x="467.089844"/>
      <use xlink:href="#DejaVuSans-73" x="530.46875"/>
     </g>
    </g>
    <g id="patch_19">
     <path d="M 172.954844 18.798438 
L 192.954844 18.798438 
L 192.954844 11.798438 
L 172.954844 11.798438 
z
" style="fill: #fdcdac; stroke: #000000; stroke-linejoin: miter"/>
    </g>
    <g id="text_22">
     <!-- COVID-19 related -->
     <g transform="translate(200.954844 18.798438) scale(0.1 -0.1)">
      <defs>
       <path id="DejaVuSans-43" d="M 4122 4306 
L 4122 3641 
Q 3803 3938 3442 4084 
Q 3081 4231 2675 4231 
Q 1875 4231 1450 3742 
Q 1025 3253 1025 2328 
Q 1025 1406 1450 917 
Q 1875 428 2675 428 
Q 3081 428 3442 575 
Q 3803 722 4122 1019 
L 4122 359 
Q 3791 134 3420 21 
Q 3050 -91 2638 -91 
Q 1578 -91 968 557 
Q 359 1206 359 2328 
Q 359 3453 968 4101 
Q 1578 4750 2638 4750 
Q 3056 4750 3426 4639 
Q 3797 4528 4122 4306 
z
" transform="scale(0.015625)"/>
       <path id="DejaVuSans-56" d="M 1831 0 
L 50 4666 
L 709 4666 
L 2188 738 
L 3669 4666 
L 4325 4666 
L 2547 0 
L 1831 0 
z
" transform="scale(0.015625)"/>
       <path id="DejaVuSans-49" d="M 628 4666 
L 1259 4666 
L 1259 0 
L 628 0 
L 628 4666 
z
" transform="scale(0.015625)"/>
       <path id="DejaVuSans-44" d="M 1259 4147 
L 1259 519 
L 2022 519 
Q 2988 519 3436 956 
Q 3884 1394 3884 2338 
Q 3884 3275 3436 3711 
Q 2988 4147 2022 4147 
L 1259 4147 
z
M 628 4666 
L 1925 4666 
Q 3281 4666 3915 4102 
Q 4550 3538 4550 2338 
Q 4550 1131 3912 565 
Q 3275 0 1925 0 
L 628 0 
L 628 4666 
z
" transform="scale(0.015625)"/>
       <path id="DejaVuSans-2d" d="M 313 2009 
L 1997 2009 
L 1997 1497 
L 313 1497 
L 313 2009 
z
" transform="scale(0.015625)"/>
      </defs>
      <use xlink:href="#DejaVuSans-43"/>
      <use xlink:href="#DejaVuSans-4f" x="69.824219"/>
      <use xlink:href="#DejaVuSans-56" x="146.785156"/>
      <use xlink:href="#DejaVuSans-49" x="215.193359"/>
      <use xlink:href="#DejaVuSans-44" x="244.685547"/>
      <use xlink:href="#DejaVuSans-2d" x="321.6875"/>
      <use xlink:href="#DejaVuSans-31" x="357.771484"/>
      <use xlink:href="#DejaVuSans-39" x="421.394531"/>
      <use xlink:href="#DejaVuSans-20" x="485.017578"/>
      <use xlink:href="#DejaVuSans-72" x="516.804688"/>
      <use xlink:href="#DejaVuSans-65" x="555.667969"/>
      <use xlink:href="#DejaVuSans-6c" x="617.191406"/>
      <use xlink:href="#DejaVuSans-61" x="644.974609"/>
      <use xlink:href="#DejaVuSans-74" x="706.253906"/>
      <use xlink:href="#DejaVuSans-65" x="745.462891"/>
      <use xlink:href="#DejaVuSans-64" x="806.986328"/>
     </g>
    </g>
   </g>
  </g>
 </g>
 <defs>
  <clipPath id="pc84d9e215e">
   <rect x="51.800938" y="36.85" width="251.1" height="138.6"/>
  </clipPath>
 </defs>
</svg>
